solid ascii
  facet normal -0.629833 -0.636145 -0.445679
    outer loop
      vertex 57.1828 129.947 193.753
      vertex 56.8745 128.905 195.676
      vertex 56.2521 129.964 195.044
    endloop
  endfacet
  facet normal -0.193311 -0.794199 -0.57609
    outer loop
      vertex 58.2371 129.974 193.362
      vertex 57.8655 128.848 195.039
      vertex 57.1828 129.947 193.753
    endloop
  endfacet
  facet normal -0.359696 -0.795006 -0.488451
    outer loop
      vertex 56.8745 128.905 195.676
      vertex 57.1828 129.947 193.753
      vertex 57.8655 128.848 195.039
    endloop
  endfacet
  facet normal 0.0972637 -0.795248 -0.598432
    outer loop
      vertex 59.2798 130.018 193.473
      vertex 58.9306 128.839 194.983
      vertex 58.2371 129.974 193.362
    endloop
  endfacet
  facet normal -0.0365607 -0.825895 -0.562638
    outer loop
      vertex 57.8655 128.848 195.039
      vertex 58.2371 129.974 193.362
      vertex 58.9306 128.839 194.983
    endloop
  endfacet
  facet normal 0.41168 -0.635586 -0.653108
    outer loop
      vertex 60.1915 130.179 193.891
      vertex 60.1173 129.015 194.977
      vertex 59.2798 130.018 193.473
    endloop
  endfacet
  facet normal 0.115003 -0.795695 -0.594679
    outer loop
      vertex 58.9306 128.839 194.983
      vertex 59.2798 130.018 193.473
      vertex 60.1173 129.015 194.977
    endloop
  endfacet
  facet normal 0.433221 -0.629454 -0.645064
    outer loop
      vertex 60.1915 130.179 193.891
      vertex 60.871 129.834 194.684
      vertex 60.1173 129.015 194.977
    endloop
  endfacet
  facet normal -0.755304 -0.371934 -0.539612
    outer loop
      vertex 56.2521 129.964 195.044
      vertex 56.8461 131.066 193.453
      vertex 57.1828 129.947 193.753
    endloop
  endfacet
  facet normal -0.878396 -0.17091 -0.446329
    outer loop
      vertex 56.8461 131.066 193.453
      vertex 56.2521 129.964 195.044
      vertex 56.0459 131.076 195.024
    endloop
  endfacet
  facet normal -0.294069 -0.480668 -0.826125
    outer loop
      vertex 57.1828 129.947 193.753
      vertex 57.8984 131.099 192.828
      vertex 58.2371 129.974 193.362
    endloop
  endfacet
  facet normal -0.468582 -0.357568 -0.807822
    outer loop
      vertex 57.8984 131.099 192.828
      vertex 57.1828 129.947 193.753
      vertex 56.8461 131.066 193.453
    endloop
  endfacet
  facet normal 0.113275 -0.451109 -0.885251
    outer loop
      vertex 58.2371 129.974 193.362
      vertex 58.9667 131.107 192.878
      vertex 59.2798 130.018 193.473
    endloop
  endfacet
  facet normal 0.0456072 -0.417126 -0.907704
    outer loop
      vertex 58.9667 131.107 192.878
      vertex 58.2371 129.974 193.362
      vertex 57.8984 131.099 192.828
    endloop
  endfacet
  facet normal 0.440303 -0.270864 -0.856017
    outer loop
      vertex 59.2798 130.018 193.473
      vertex 59.9971 131.105 193.498
      vertex 60.1915 130.179 193.891
    endloop
  endfacet
  facet normal 0.490579 -0.304954 -0.816294
    outer loop
      vertex 59.9971 131.105 193.498
      vertex 59.2798 130.018 193.473
      vertex 58.9667 131.107 192.878
    endloop
  endfacet
  facet normal 0.764586 0.0256081 -0.644012
    outer loop
      vertex 60.871 129.834 194.684
      vertex 60.1915 130.179 193.891
      vertex 61.078 130.997 194.976
    endloop
  endfacet
  facet normal 0.801484 -0.0830808 -0.592217
    outer loop
      vertex 61.078 130.997 194.976
      vertex 60.1915 130.179 193.891
      vertex 59.9971 131.105 193.498
    endloop
  endfacet
  facet normal -0.886618 0.096972 -0.452222
    outer loop
      vertex 56.0459 131.076 195.024
      vertex 56.689 131.98 193.957
      vertex 56.8461 131.066 193.453
    endloop
  endfacet
  facet normal -0.904472 0.340972 -0.256258
    outer loop
      vertex 56.689 131.98 193.957
      vertex 56.0459 131.076 195.024
      vertex 56.2505 132.114 195.683
    endloop
  endfacet
  facet normal -0.491615 0.317235 -0.810973
    outer loop
      vertex 56.8461 131.066 193.453
      vertex 57.6057 132.146 193.415
      vertex 57.8984 131.099 192.828
    endloop
  endfacet
  facet normal -0.52345 0.340681 -0.780984
    outer loop
      vertex 57.6057 132.146 193.415
      vertex 56.8461 131.066 193.453
      vertex 56.689 131.98 193.957
    endloop
  endfacet
  facet normal 0.0386603 0.441149 -0.896601
    outer loop
      vertex 57.8984 131.099 192.828
      vertex 58.689 132.176 193.392
      vertex 58.9667 131.107 192.878
    endloop
  endfacet
  facet normal -0.0319377 0.481977 -0.875602
    outer loop
      vertex 58.689 132.176 193.392
      vertex 57.8984 131.099 192.828
      vertex 57.6057 132.146 193.415
    endloop
  endfacet
  facet normal 0.484578 0.344098 -0.804227
    outer loop
      vertex 58.9667 131.107 192.878
      vertex 59.724 132.137 193.775
      vertex 59.9971 131.105 193.498
    endloop
  endfacet
  facet normal 0.320802 0.476826 -0.818366
    outer loop
      vertex 59.724 132.137 193.775
      vertex 58.9667 131.107 192.878
      vertex 58.689 132.176 193.392
    endloop
  endfacet
  facet normal 0.792289 0.237376 -0.562076
    outer loop
      vertex 59.9971 131.105 193.498
      vertex 60.5681 131.998 194.68
      vertex 61.078 130.997 194.976
    endloop
  endfacet
  facet normal 0.710915 0.351612 -0.609071
    outer loop
      vertex 60.5681 131.998 194.68
      vertex 59.9971 131.105 193.498
      vertex 59.724 132.137 193.775
    endloop
  endfacet
  facet normal -0.656674 0.720522 -0.22277
    outer loop
      vertex 56.2505 132.114 195.683
      vertex 57.2014 132.784 195.047
      vertex 56.689 131.98 193.957
    endloop
  endfacet
  facet normal -0.395137 0.81815 -0.417729
    outer loop
      vertex 57.6057 132.146 193.415
      vertex 56.689 131.98 193.957
      vertex 57.2014 132.784 195.047
    endloop
  endfacet
  facet normal -0.178892 0.900501 -0.396352
    outer loop
      vertex 57.2014 132.784 195.047
      vertex 58.298 132.975 194.986
      vertex 57.6057 132.146 193.415
    endloop
  endfacet
  facet normal -0.0342994 0.890056 -0.454558
    outer loop
      vertex 58.689 132.176 193.392
      vertex 57.6057 132.146 193.415
      vertex 58.298 132.975 194.986
    endloop
  endfacet
  facet normal 0.0781668 0.898792 -0.43135
    outer loop
      vertex 58.298 132.975 194.986
      vertex 59.3686 132.951 195.13
      vertex 58.689 132.176 193.392
    endloop
  endfacet
  facet normal 0.204247 0.861867 -0.464185
    outer loop
      vertex 59.724 132.137 193.775
      vertex 58.689 132.176 193.392
      vertex 59.3686 132.951 195.13
    endloop
  endfacet
  facet normal 0.336549 0.843565 -0.418489
    outer loop
      vertex 59.3686 132.951 195.13
      vertex 60.2595 132.731 195.403
      vertex 59.724 132.137 193.775
    endloop
  endfacet
  facet normal 0.584757 0.680987 -0.440813
    outer loop
      vertex 60.5681 131.998 194.68
      vertex 59.724 132.137 193.775
      vertex 60.2595 132.731 195.403
    endloop
  endfacet
  facet normal -0.456756 -0.80648 -0.375452
    outer loop
      vertex 112.167 132.85 193.874
      vertex 111.916 132.089 195.814
      vertex 110.924 132.966 195.137
    endloop
  endfacet
  facet normal 0.00823401 -0.898898 -0.438081
    outer loop
      vertex 113.123 132.965 193.656
      vertex 112.948 132.208 195.206
      vertex 112.167 132.85 193.874
    endloop
  endfacet
  facet normal -0.115267 -0.919573 -0.375632
    outer loop
      vertex 111.916 132.089 195.814
      vertex 112.167 132.85 193.874
      vertex 112.948 132.208 195.206
    endloop
  endfacet
  facet normal 0.30028 -0.870026 -0.391007
    outer loop
      vertex 113.123 132.965 193.656
      vertex 113.963 132.61 195.091
      vertex 112.948 132.208 195.206
    endloop
  endfacet
  facet normal -0.650449 -0.469553 -0.597023
    outer loop
      vertex 110.924 132.966 195.137
      vertex 111.779 134.055 193.349
      vertex 112.167 132.85 193.874
    endloop
  endfacet
  facet normal -0.565654 -0.555927 -0.609082
    outer loop
      vertex 111.779 134.055 193.349
      vertex 110.924 132.966 195.137
      vertex 110.588 134.077 194.435
    endloop
  endfacet
  facet normal -0.105367 -0.611153 -0.784468
    outer loop
      vertex 112.167 132.85 193.874
      vertex 112.951 133.906 192.946
      vertex 113.123 132.965 193.656
    endloop
  endfacet
  facet normal -0.340138 -0.465508 -0.817073
    outer loop
      vertex 112.951 133.906 192.946
      vertex 112.167 132.85 193.874
      vertex 111.779 134.055 193.349
    endloop
  endfacet
  facet normal 0.529241 -0.697949 -0.482463
    outer loop
      vertex 113.963 132.61 195.091
      vertex 113.123 132.965 193.656
      vertex 114.088 133.779 193.537
    endloop
  endfacet
  facet normal 0.346014 -0.523979 -0.77828
    outer loop
      vertex 114.088 133.779 193.537
      vertex 113.123 132.965 193.656
      vertex 112.951 133.906 192.946
    endloop
  endfacet
  facet normal 0.503549 -0.687293 -0.523514
    outer loop
      vertex 115.152 134.1 194.139
      vertex 114.982 133.149 195.224
      vertex 114.088 133.779 193.537
    endloop
  endfacet
  facet normal 0.452821 -0.729628 -0.512441
    outer loop
      vertex 113.963 132.61 195.091
      vertex 114.088 133.779 193.537
      vertex 114.982 133.149 195.224
    endloop
  endfacet
  facet normal 0.525528 -0.678918 -0.512729
    outer loop
      vertex 115.152 134.1 194.139
      vertex 116.097 133.855 195.432
      vertex 114.982 133.149 195.224
    endloop
  endfacet
  facet normal -0.841729 0.119775 -0.526447
    outer loop
      vertex 109.9 134.868 195.715
      vertex 111.108 135.059 193.827
      vertex 110.588 134.077 194.435
    endloop
  endfacet
  facet normal -0.671465 -0.099124 -0.734377
    outer loop
      vertex 111.779 134.055 193.349
      vertex 110.588 134.077 194.435
      vertex 111.108 135.059 193.827
    endloop
  endfacet
  facet normal -0.63464 -0.0572265 -0.770686
    outer loop
      vertex 111.108 135.059 193.827
      vertex 112.153 135.2 192.956
      vertex 111.779 134.055 193.349
    endloop
  endfacet
  facet normal -0.337652 -0.137255 -0.93121
    outer loop
      vertex 111.779 134.055 193.349
      vertex 112.992 135.006 192.769
      vertex 112.951 133.906 192.946
    endloop
  endfacet
  facet normal -0.26295 -0.235267 -0.935685
    outer loop
      vertex 112.992 135.006 192.769
      vertex 111.779 134.055 193.349
      vertex 112.153 135.2 192.956
    endloop
  endfacet
  facet normal 0.393752 -0.376719 -0.838476
    outer loop
      vertex 112.951 133.906 192.946
      vertex 113.999 134.968 192.961
      vertex 114.088 133.779 193.537
    endloop
  endfacet
  facet normal 0.178862 -0.162799 -0.970312
    outer loop
      vertex 113.999 134.968 192.961
      vertex 112.951 133.906 192.946
      vertex 112.992 135.006 192.769
    endloop
  endfacet
  facet normal 0.538297 -0.329881 -0.775509
    outer loop
      vertex 114.088 133.779 193.537
      vertex 114.994 134.98 193.655
      vertex 115.152 134.1 194.139
    endloop
  endfacet
  facet normal 0.542098 -0.333147 -0.771455
    outer loop
      vertex 114.994 134.98 193.655
      vertex 114.088 133.779 193.537
      vertex 113.999 134.968 192.961
    endloop
  endfacet
  facet normal 0.711436 -0.379024 -0.591777
    outer loop
      vertex 116.097 133.855 195.432
      vertex 115.152 134.1 194.139
      vertex 115.98 134.975 194.574
    endloop
  endfacet
  facet normal 0.655755 -0.27003 -0.705032
    outer loop
      vertex 115.98 134.975 194.574
      vertex 115.152 134.1 194.139
      vertex 114.994 134.98 193.655
    endloop
  endfacet
  facet normal -0.777682 0.435324 -0.453545
    outer loop
      vertex 109.9 134.868 195.715
      vertex 110.857 136.114 195.27
      vertex 111.108 135.059 193.827
    endloop
  endfacet
  facet normal -0.737534 0.477579 -0.477454
    outer loop
      vertex 111.108 135.059 193.827
      vertex 110.857 136.114 195.27
      vertex 111.964 136.139 193.585
    endloop
  endfacet
  facet normal -0.628516 0.341579 -0.698779
    outer loop
      vertex 112.153 135.2 192.956
      vertex 111.108 135.059 193.827
      vertex 111.964 136.139 193.585
    endloop
  endfacet
  facet normal -0.182882 0.146206 -0.972203
    outer loop
      vertex 112.153 135.2 192.956
      vertex 113.02 136.085 192.926
      vertex 112.992 135.006 192.769
    endloop
  endfacet
  facet normal -0.462876 0.427132 -0.776726
    outer loop
      vertex 113.02 136.085 192.926
      vertex 112.153 135.2 192.956
      vertex 111.964 136.139 193.585
    endloop
  endfacet
  facet normal 0.1886 0.0400699 -0.981236
    outer loop
      vertex 112.992 135.006 192.769
      vertex 114.018 136.054 193.009
      vertex 113.999 134.968 192.961
    endloop
  endfacet
  facet normal 0.0864059 0.141254 -0.986195
    outer loop
      vertex 114.018 136.054 193.009
      vertex 112.992 135.006 192.769
      vertex 113.02 136.085 192.926
    endloop
  endfacet
  facet normal 0.571964 -0.0386782 -0.819366
    outer loop
      vertex 113.999 134.968 192.961
      vertex 115.009 136.028 193.616
      vertex 114.994 134.98 193.655
    endloop
  endfacet
  facet normal 0.522651 0.0285165 -0.852069
    outer loop
      vertex 115.009 136.028 193.616
      vertex 113.999 134.968 192.961
      vertex 114.018 136.054 193.009
    endloop
  endfacet
  facet normal 0.680646 -0.0547083 -0.730567
    outer loop
      vertex 114.994 134.98 193.655
      vertex 115.996 136.002 194.512
      vertex 115.98 134.975 194.574
    endloop
  endfacet
  facet normal 0.671149 -0.0371588 -0.740391
    outer loop
      vertex 115.996 136.002 194.512
      vertex 114.994 134.98 193.655
      vertex 115.009 136.028 193.616
    endloop
  endfacet
  facet normal -0.651948 0.632026 -0.418935
    outer loop
      vertex 110.857 136.114 195.27
      vertex 111.934 137.158 195.169
      vertex 111.964 136.139 193.585
    endloop
  endfacet
  facet normal -0.604001 0.665014 -0.439248
    outer loop
      vertex 111.964 136.139 193.585
      vertex 111.934 137.158 195.169
      vertex 112.809 136.993 193.716
    endloop
  endfacet
  facet normal -0.427499 0.534798 -0.728859
    outer loop
      vertex 113.02 136.085 192.926
      vertex 111.964 136.139 193.585
      vertex 112.809 136.993 193.716
    endloop
  endfacet
  facet normal 0.0870092 0.510168 -0.855662
    outer loop
      vertex 113.02 136.085 192.926
      vertex 113.733 137.119 193.615
      vertex 114.018 136.054 193.009
    endloop
  endfacet
  facet normal -0.168516 0.624419 -0.762695
    outer loop
      vertex 113.733 137.119 193.615
      vertex 113.02 136.085 192.926
      vertex 112.809 136.993 193.716
    endloop
  endfacet
  facet normal 0.496634 0.346051 -0.795992
    outer loop
      vertex 114.018 136.054 193.009
      vertex 114.752 137.126 193.933
      vertex 115.009 136.028 193.616
    endloop
  endfacet
  facet normal 0.249588 0.528498 -0.811416
    outer loop
      vertex 114.752 137.126 193.933
      vertex 114.018 136.054 193.009
      vertex 113.733 137.119 193.615
    endloop
  endfacet
  facet normal 0.671112 0.0809543 -0.736923
    outer loop
      vertex 115.009 136.028 193.616
      vertex 115.942 137.187 194.593
      vertex 115.996 136.002 194.512
    endloop
  endfacet
  facet normal 0.442135 0.342785 -0.828864
    outer loop
      vertex 115.942 137.187 194.593
      vertex 115.009 136.028 193.616
      vertex 114.752 137.126 193.933
    endloop
  endfacet
  facet normal -0.468533 0.800801 -0.373089
    outer loop
      vertex 111.934 137.158 195.169
      vertex 112.979 137.775 195.181
      vertex 112.809 136.993 193.716
    endloop
  endfacet
  facet normal -0.168726 0.877538 -0.448841
    outer loop
      vertex 113.733 137.119 193.615
      vertex 112.809 136.993 193.716
      vertex 112.979 137.775 195.181
    endloop
  endfacet
  facet normal -0.193846 0.868097 -0.456981
    outer loop
      vertex 112.979 137.775 195.181
      vertex 114.005 138.002 195.177
      vertex 113.733 137.119 193.615
    endloop
  endfacet
  facet normal 0.15218 0.848805 -0.50633
    outer loop
      vertex 114.752 137.126 193.933
      vertex 113.733 137.119 193.615
      vertex 114.005 138.002 195.177
    endloop
  endfacet
  facet normal -0.0998873 0.784309 -0.612276
    outer loop
      vertex 114.005 138.002 195.177
      vertex 115.115 138.255 195.32
      vertex 114.752 137.126 193.933
    endloop
  endfacet
  facet normal 0.323344 0.690689 -0.646836
    outer loop
      vertex 115.942 137.187 194.593
      vertex 114.752 137.126 193.933
      vertex 115.115 138.255 195.32
    endloop
  endfacet
  facet normal -0.676794 -0.717092 -0.166518
    outer loop
      vertex 56.9983 128.33 197.649
      vertex 56.2123 129.161 197.265
      vertex 56.8745 128.905 195.676
    endloop
  endfacet
  facet normal -0.291882 -0.879717 -0.375371
    outer loop
      vertex 57.8655 128.848 195.039
      vertex 57.6743 128.134 196.861
      vertex 56.8745 128.905 195.676
    endloop
  endfacet
  facet normal -0.494286 -0.842421 -0.214496
    outer loop
      vertex 56.9983 128.33 197.649
      vertex 56.8745 128.905 195.676
      vertex 57.6743 128.134 196.861
    endloop
  endfacet
  facet normal -0.0281015 -0.92194 -0.386311
    outer loop
      vertex 58.9306 128.839 194.983
      vertex 58.781 127.809 197.452
      vertex 57.8655 128.848 195.039
    endloop
  endfacet
  facet normal -0.073991 -0.925847 -0.370583
    outer loop
      vertex 57.6743 128.134 196.861
      vertex 57.8655 128.848 195.039
      vertex 58.781 127.809 197.452
    endloop
  endfacet
  facet normal 0.127778 -0.877326 -0.46257
    outer loop
      vertex 60.1173 129.015 194.977
      vertex 59.9664 127.822 197.198
      vertex 58.9306 128.839 194.983
    endloop
  endfacet
  facet normal -0.0730078 -0.918868 -0.387751
    outer loop
      vertex 58.781 127.809 197.452
      vertex 58.9306 128.839 194.983
      vertex 59.9664 127.822 197.198
    endloop
  endfacet
  facet normal 0.317898 -0.788991 -0.525769
    outer loop
      vertex 61.2329 129.062 195.581
      vertex 61.2541 127.999 197.189
      vertex 60.1173 129.015 194.977
    endloop
  endfacet
  facet normal 0.117466 -0.878161 -0.463719
    outer loop
      vertex 59.9664 127.822 197.198
      vertex 60.1173 129.015 194.977
      vertex 61.2541 127.999 197.189
    endloop
  endfacet
  facet normal 0.574309 -0.679404 -0.456705
    outer loop
      vertex 61.2329 129.062 195.581
      vertex 62.1869 128.928 196.98
      vertex 61.2541 127.999 197.189
    endloop
  endfacet
  facet normal -0.774151 -0.590726 -0.227449
    outer loop
      vertex 56.2521 129.964 195.044
      vertex 56.8745 128.905 195.676
      vertex 56.2123 129.161 197.265
    endloop
  endfacet
  facet normal -0.851217 -0.488485 -0.191865
    outer loop
      vertex 56.2123 129.161 197.265
      vertex 55.773 130.139 196.724
      vertex 56.2521 129.964 195.044
    endloop
  endfacet
  facet normal 0.396845 -0.610436 -0.685479
    outer loop
      vertex 61.2329 129.062 195.581
      vertex 60.1173 129.015 194.977
      vertex 60.871 129.834 194.684
    endloop
  endfacet
  facet normal 0.756607 -0.35387 -0.549837
    outer loop
      vertex 62.1869 128.928 196.98
      vertex 61.2329 129.062 195.581
      vertex 61.8727 129.998 195.859
    endloop
  endfacet
  facet normal 0.740148 -0.332293 -0.584604
    outer loop
      vertex 61.8727 129.998 195.859
      vertex 61.2329 129.062 195.581
      vertex 60.871 129.834 194.684
    endloop
  endfacet
  facet normal 0.894493 -0.170382 -0.413344
    outer loop
      vertex 61.8727 129.998 195.859
      vertex 62.7843 130.075 197.8
      vertex 62.1869 128.928 196.98
    endloop
  endfacet
  facet normal -0.950616 -0.180811 -0.252261
    outer loop
      vertex 56.0459 131.076 195.024
      vertex 56.2521 129.964 195.044
      vertex 55.773 130.139 196.724
    endloop
  endfacet
  facet normal -0.990178 0.0785984 -0.115631
    outer loop
      vertex 55.773 130.139 196.724
      vertex 55.7867 131.056 197.23
      vertex 56.0459 131.076 195.024
    endloop
  endfacet
  facet normal 0.850709 0.288183 -0.439597
    outer loop
      vertex 61.8727 129.998 195.859
      vertex 61.078 130.997 194.976
      vertex 62.1957 131.145 197.236
    endloop
  endfacet
  facet normal 0.758733 0.0283504 -0.650785
    outer loop
      vertex 61.078 130.997 194.976
      vertex 61.8727 129.998 195.859
      vertex 60.871 129.834 194.684
    endloop
  endfacet
  facet normal 0.870529 0.257973 -0.419082
    outer loop
      vertex 62.7843 130.075 197.8
      vertex 61.8727 129.998 195.859
      vertex 62.1957 131.145 197.236
    endloop
  endfacet
  facet normal -0.959492 0.259208 -0.110388
    outer loop
      vertex 56.2505 132.114 195.683
      vertex 56.0459 131.076 195.024
      vertex 55.7867 131.056 197.23
    endloop
  endfacet
  facet normal -0.921641 0.387888 -0.0110354
    outer loop
      vertex 55.7867 131.056 197.23
      vertex 56.1606 131.959 197.743
      vertex 56.2505 132.114 195.683
    endloop
  endfacet
  facet normal 0.886365 0.368699 -0.280034
    outer loop
      vertex 61.078 130.997 194.976
      vertex 60.5681 131.998 194.68
      vertex 61.1526 132.301 196.929
    endloop
  endfacet
  facet normal 0.73119 0.554107 -0.397902
    outer loop
      vertex 62.1957 131.145 197.236
      vertex 61.078 130.997 194.976
      vertex 61.1526 132.301 196.929
    endloop
  endfacet
  facet normal -0.724966 0.68849 0.0201658
    outer loop
      vertex 56.2505 132.114 195.683
      vertex 56.1606 131.959 197.743
      vertex 56.9156 132.768 197.265
    endloop
  endfacet
  facet normal -0.606385 0.791866 -0.0724234
    outer loop
      vertex 57.2014 132.784 195.047
      vertex 56.2505 132.114 195.683
      vertex 56.9156 132.768 197.265
    endloop
  endfacet
  facet normal -0.177121 0.975683 -0.129112
    outer loop
      vertex 58.298 132.975 194.986
      vertex 57.2014 132.784 195.047
      vertex 57.9881 133.21 197.187
    endloop
  endfacet
  facet normal -0.383339 0.922618 -0.0427396
    outer loop
      vertex 57.9881 133.21 197.187
      vertex 57.2014 132.784 195.047
      vertex 56.9156 132.768 197.265
    endloop
  endfacet
  facet normal 0.0414723 0.988775 -0.143539
    outer loop
      vertex 59.3686 132.951 195.13
      vertex 58.298 132.975 194.986
      vertex 59.0748 133.275 197.277
    endloop
  endfacet
  facet normal -0.0499979 0.992337 -0.112991
    outer loop
      vertex 59.0748 133.275 197.277
      vertex 58.298 132.975 194.986
      vertex 57.9881 133.21 197.187
    endloop
  endfacet
  facet normal 0.283624 0.94477 -0.164215
    outer loop
      vertex 60.2595 132.731 195.403
      vertex 59.3686 132.951 195.13
      vertex 60.1365 133.098 197.302
    endloop
  endfacet
  facet normal 0.166017 0.978181 -0.124897
    outer loop
      vertex 60.1365 133.098 197.302
      vertex 59.3686 132.951 195.13
      vertex 59.0748 133.275 197.277
    endloop
  endfacet
  facet normal 0.757327 0.591598 -0.276528
    outer loop
      vertex 61.1526 132.301 196.929
      vertex 60.5681 131.998 194.68
      vertex 60.2595 132.731 195.403
    endloop
  endfacet
  facet normal 0.585982 0.801832 -0.117007
    outer loop
      vertex 61.1526 132.301 196.929
      vertex 60.2595 132.731 195.403
      vertex 60.1365 133.098 197.302
    endloop
  endfacet
  facet normal -0.582615 -0.795846 -0.164893
    outer loop
      vertex 111.126 132.371 197.295
      vertex 110.063 133.161 197.238
      vertex 110.924 132.966 195.137
    endloop
  endfacet
  facet normal -0.588603 -0.791776 -0.163211
    outer loop
      vertex 111.126 132.371 197.295
      vertex 110.924 132.966 195.137
      vertex 111.916 132.089 195.814
    endloop
  endfacet
  facet normal -0.261587 -0.964174 0.0440537
    outer loop
      vertex 111.916 132.089 195.814
      vertex 112.088 132.127 197.667
      vertex 111.126 132.371 197.295
    endloop
  endfacet
  facet normal 0.0873789 -0.995092 -0.0464488
    outer loop
      vertex 112.948 132.208 195.206
      vertex 112.957 132.111 197.301
      vertex 111.916 132.089 195.814
    endloop
  endfacet
  facet normal -0.00940451 -0.999727 0.0213746
    outer loop
      vertex 112.088 132.127 197.667
      vertex 111.916 132.089 195.814
      vertex 112.957 132.111 197.301
    endloop
  endfacet
  facet normal 0.348099 -0.924069 -0.157872
    outer loop
      vertex 112.948 132.208 195.206
      vertex 113.963 132.61 195.091
      vertex 113.989 132.267 197.156
    endloop
  endfacet
  facet normal 0.142929 -0.988645 -0.046389
    outer loop
      vertex 112.957 132.111 197.301
      vertex 112.948 132.208 195.206
      vertex 113.989 132.267 197.156
    endloop
  endfacet
  facet normal 0.47741 -0.835203 -0.272975
    outer loop
      vertex 114.982 133.149 195.224
      vertex 114.824 132.523 196.863
      vertex 113.963 132.61 195.091
    endloop
  endfacet
  facet normal 0.236812 -0.957938 -0.162097
    outer loop
      vertex 113.989 132.267 197.156
      vertex 113.963 132.61 195.091
      vertex 114.824 132.523 196.863
    endloop
  endfacet
  facet normal 0.540893 -0.801792 -0.254094
    outer loop
      vertex 114.824 132.523 196.863
      vertex 114.982 133.149 195.224
      vertex 115.865 133.031 197.476
    endloop
  endfacet
  facet normal -0.798558 -0.584783 -0.1426
    outer loop
      vertex 109.424 134.077 197.06
      vertex 109.902 133.742 195.757
      vertex 110.063 133.161 197.238
    endloop
  endfacet
  facet normal -0.668315 -0.714328 -0.20758
    outer loop
      vertex 110.924 132.966 195.137
      vertex 110.063 133.161 197.238
      vertex 109.902 133.742 195.757
    endloop
  endfacet
  facet normal -0.695719 -0.522119 -0.493323
    outer loop
      vertex 110.588 134.077 194.435
      vertex 110.924 132.966 195.137
      vertex 109.902 133.742 195.757
    endloop
  endfacet
  facet normal 0.550754 -0.793939 -0.257549
    outer loop
      vertex 115.865 133.031 197.476
      vertex 114.982 133.149 195.224
      vertex 116.097 133.855 195.432
    endloop
  endfacet
  facet normal 0.329896 -0.834668 -0.44102
    outer loop
      vertex 117.107 134.083 195.756
      vertex 116.792 133.372 196.866
      vertex 116.097 133.855 195.432
    endloop
  endfacet
  facet normal 0.102716 -0.926555 -0.361864
    outer loop
      vertex 115.865 133.031 197.476
      vertex 116.097 133.855 195.432
      vertex 116.792 133.372 196.866
    endloop
  endfacet
  facet normal 0.161825 -0.851185 -0.499296
    outer loop
      vertex 117.107 134.083 195.756
      vertex 117.698 133.59 196.788
      vertex 116.792 133.372 196.866
    endloop
  endfacet
  facet normal -0.939916 -0.0143927 -0.341104
    outer loop
      vertex 109.424 134.077 197.06
      vertex 109.9 134.868 195.715
      vertex 109.902 133.742 195.757
    endloop
  endfacet
  facet normal -0.955462 0.187602 -0.227811
    outer loop
      vertex 109.9 134.868 195.715
      vertex 109.424 134.077 197.06
      vertex 109.426 134.834 197.675
    endloop
  endfacet
  facet normal -0.885489 -0.0188904 -0.464277
    outer loop
      vertex 110.588 134.077 194.435
      vertex 109.902 133.742 195.757
      vertex 109.9 134.868 195.715
    endloop
  endfacet
  facet normal 0.36514 -0.525193 -0.768665
    outer loop
      vertex 116.097 133.855 195.432
      vertex 116.987 134.967 195.095
      vertex 117.107 134.083 195.756
    endloop
  endfacet
  facet normal 0.384665 -0.535684 -0.751715
    outer loop
      vertex 116.987 134.967 195.095
      vertex 116.097 133.855 195.432
      vertex 115.98 134.975 194.574
    endloop
  endfacet
  facet normal 0.392041 -0.722392 -0.569608
    outer loop
      vertex 117.698 133.59 196.788
      vertex 117.107 134.083 195.756
      vertex 118.103 134.838 195.484
    endloop
  endfacet
  facet normal 0.21205 -0.566596 -0.796243
    outer loop
      vertex 118.103 134.838 195.484
      vertex 117.107 134.083 195.756
      vertex 116.987 134.967 195.095
    endloop
  endfacet
  facet normal 0.43292 -0.530698 -0.728656
    outer loop
      vertex 119.296 135.17 195.951
      vertex 118.99 133.973 196.641
      vertex 118.103 134.838 195.484
    endloop
  endfacet
  facet normal 0.143257 -0.736846 -0.660709
    outer loop
      vertex 117.698 133.59 196.788
      vertex 118.103 134.838 195.484
      vertex 118.99 133.973 196.641
    endloop
  endfacet
  facet normal 0.733754 -0.47025 -0.490378
    outer loop
      vertex 119.296 135.17 195.951
      vertex 120.163 135.041 197.372
      vertex 118.99 133.973 196.641
    endloop
  endfacet
  facet normal -0.844827 0.497976 -0.195672
    outer loop
      vertex 109.426 134.834 197.675
      vertex 110.06 135.798 197.391
      vertex 109.9 134.868 195.715
    endloop
  endfacet
  facet normal -0.809938 0.542236 -0.223562
    outer loop
      vertex 110.857 136.114 195.27
      vertex 109.9 134.868 195.715
      vertex 110.06 135.798 197.391
    endloop
  endfacet
  facet normal 0.457159 -0.0885401 -0.884967
    outer loop
      vertex 115.98 134.975 194.574
      vertex 116.978 136 194.987
      vertex 116.987 134.967 195.095
    endloop
  endfacet
  facet normal 0.434529 -0.0610175 -0.898589
    outer loop
      vertex 116.978 136 194.987
      vertex 115.98 134.975 194.574
      vertex 115.996 136.002 194.512
    endloop
  endfacet
  facet normal 0.284192 -0.293642 -0.912693
    outer loop
      vertex 116.987 134.967 195.095
      vertex 118.004 136.001 195.079
      vertex 118.103 134.838 195.484
    endloop
  endfacet
  facet normal 0.0889365 -0.102805 -0.990718
    outer loop
      vertex 118.004 136.001 195.079
      vertex 116.987 134.967 195.095
      vertex 116.978 136 194.987
    endloop
  endfacet
  facet normal 0.411441 -0.242695 -0.87853
    outer loop
      vertex 118.103 134.838 195.484
      vertex 119.127 136.031 195.634
      vertex 119.296 135.17 195.951
    endloop
  endfacet
  facet normal 0.433065 -0.26333 -0.86204
    outer loop
      vertex 119.127 136.031 195.634
      vertex 118.103 134.838 195.484
      vertex 118.004 136.001 195.079
    endloop
  endfacet
  facet normal 0.844997 -0.102461 -0.524863
    outer loop
      vertex 120.163 135.041 197.372
      vertex 119.296 135.17 195.951
      vertex 120.162 136.088 197.166
    endloop
  endfacet
  facet normal 0.8286 -0.0428745 -0.558197
    outer loop
      vertex 120.162 136.088 197.166
      vertex 119.296 135.17 195.951
      vertex 119.127 136.031 195.634
    endloop
  endfacet
  facet normal -0.714709 0.679096 -0.167388
    outer loop
      vertex 110.06 135.798 197.391
      vertex 111.137 136.895 197.243
      vertex 110.857 136.114 195.27
    endloop
  endfacet
  facet normal -0.693465 0.698169 -0.177952
    outer loop
      vertex 111.934 137.158 195.169
      vertex 110.857 136.114 195.27
      vertex 111.137 136.895 197.243
    endloop
  endfacet
  facet normal 0.435205 -0.0293594 -0.899853
    outer loop
      vertex 115.996 136.002 194.512
      vertex 117.038 137.012 194.983
      vertex 116.978 136 194.987
    endloop
  endfacet
  facet normal 0.345447 0.0796568 -0.935051
    outer loop
      vertex 117.038 137.012 194.983
      vertex 115.996 136.002 194.512
      vertex 115.942 137.187 194.593
    endloop
  endfacet
  facet normal 0.0893055 0.00412356 -0.995996
    outer loop
      vertex 116.978 136 194.987
      vertex 118.057 137.027 195.088
      vertex 118.004 136.001 195.079
    endloop
  endfacet
  facet normal 0.10264 -0.0100169 -0.994668
    outer loop
      vertex 118.057 137.027 195.088
      vertex 116.978 136 194.987
      vertex 117.038 137.012 194.983
    endloop
  endfacet
  facet normal 0.443392 -0.0195181 -0.896115
    outer loop
      vertex 118.004 136.001 195.079
      vertex 119.148 137.059 195.622
      vertex 119.127 136.031 195.634
    endloop
  endfacet
  facet normal 0.439926 -0.0148488 -0.897911
    outer loop
      vertex 119.148 137.059 195.622
      vertex 118.004 136.001 195.079
      vertex 118.057 137.027 195.088
    endloop
  endfacet
  facet normal 0.828494 0.00644303 -0.55996
    outer loop
      vertex 119.127 136.031 195.634
      vertex 120.173 137.107 197.194
      vertex 120.162 136.088 197.166
    endloop
  endfacet
  facet normal 0.837761 -0.0234819 -0.545533
    outer loop
      vertex 120.173 137.107 197.194
      vertex 119.127 136.031 195.634
      vertex 119.148 137.059 195.622
    endloop
  endfacet
  facet normal -0.659272 0.734643 -0.160187
    outer loop
      vertex 111.137 136.895 197.243
      vertex 112.124 137.709 196.914
      vertex 111.934 137.158 195.169
    endloop
  endfacet
  facet normal -0.495043 0.842571 -0.212148
    outer loop
      vertex 112.979 137.775 195.181
      vertex 111.934 137.158 195.169
      vertex 112.124 137.709 196.914
    endloop
  endfacet
  facet normal -0.269935 0.958011 -0.0966913
    outer loop
      vertex 112.124 137.709 196.914
      vertex 113.083 138.032 197.437
      vertex 112.979 137.775 195.181
    endloop
  endfacet
  facet normal -0.215299 0.971339 -0.100728
    outer loop
      vertex 114.005 138.002 195.177
      vertex 112.979 137.775 195.181
      vertex 113.083 138.032 197.437
    endloop
  endfacet
  facet normal -0.262732 0.395607 -0.880038
    outer loop
      vertex 115.115 138.255 195.32
      vertex 116.197 138.304 195.019
      vertex 115.942 137.187 194.593
    endloop
  endfacet
  facet normal 0.336224 0.00695023 -0.941756
    outer loop
      vertex 115.942 137.187 194.593
      vertex 117.038 138.096 194.991
      vertex 117.038 137.012 194.983
    endloop
  endfacet
  facet normal 0.0541316 0.345008 -0.937037
    outer loop
      vertex 117.038 138.096 194.991
      vertex 115.942 137.187 194.593
      vertex 116.197 138.304 195.019
    endloop
  endfacet
  facet normal 0.102378 0.00808677 -0.994713
    outer loop
      vertex 117.038 137.012 194.983
      vertex 118.051 138.087 195.096
      vertex 118.057 137.027 195.088
    endloop
  endfacet
  facet normal 0.103162 0.0073405 -0.994637
    outer loop
      vertex 118.051 138.087 195.096
      vertex 117.038 137.012 194.983
      vertex 117.038 138.096 194.991
    endloop
  endfacet
  facet normal 0.438895 0.0249942 -0.898191
    outer loop
      vertex 118.057 137.027 195.088
      vertex 119.138 138.133 195.647
      vertex 119.148 137.059 195.622
    endloop
  endfacet
  facet normal 0.451798 0.00928997 -0.892072
    outer loop
      vertex 119.138 138.133 195.647
      vertex 118.057 137.027 195.088
      vertex 118.051 138.087 195.096
    endloop
  endfacet
  facet normal 0.83772 -0.00472007 -0.546079
    outer loop
      vertex 119.148 137.059 195.622
      vertex 120.177 138.164 197.191
      vertex 120.173 137.107 197.194
    endloop
  endfacet
  facet normal 0.829274 0.0207208 -0.558457
    outer loop
      vertex 120.177 138.164 197.191
      vertex 119.148 137.059 195.622
      vertex 119.138 138.133 195.647
    endloop
  endfacet
  facet normal -0.505865 0.834753 -0.217456
    outer loop
      vertex 113.083 138.032 197.437
      vertex 114.129 138.52 196.877
      vertex 114.005 138.002 195.177
    endloop
  endfacet
  facet normal -0.179902 0.944553 -0.274689
    outer loop
      vertex 115.115 138.255 195.32
      vertex 114.005 138.002 195.177
      vertex 114.129 138.52 196.877
    endloop
  endfacet
  facet normal -0.368525 0.849328 -0.37793
    outer loop
      vertex 114.129 138.52 196.877
      vertex 114.857 139.122 197.52
      vertex 115.115 138.255 195.32
    endloop
  endfacet
  facet normal -0.569845 0.739539 -0.358273
    outer loop
      vertex 115.115 138.255 195.32
      vertex 114.857 139.122 197.52
      vertex 115.822 139.042 195.82
    endloop
  endfacet
  facet normal -0.228912 0.660153 -0.7154
    outer loop
      vertex 116.197 138.304 195.019
      vertex 115.115 138.255 195.32
      vertex 115.822 139.042 195.82
    endloop
  endfacet
  facet normal 0.103718 0.532449 -0.840084
    outer loop
      vertex 116.197 138.304 195.019
      vertex 116.778 139.158 195.632
      vertex 117.038 138.096 194.991
    endloop
  endfacet
  facet normal -0.221071 0.663477 -0.714791
    outer loop
      vertex 116.778 139.158 195.632
      vertex 116.197 138.304 195.019
      vertex 115.822 139.042 195.82
    endloop
  endfacet
  facet normal 0.0968328 0.430692 -0.897289
    outer loop
      vertex 117.038 138.096 194.991
      vertex 117.812 139.172 195.591
      vertex 118.051 138.087 195.096
    endloop
  endfacet
  facet normal -0.0409846 0.508939 -0.859827
    outer loop
      vertex 117.812 139.172 195.591
      vertex 117.038 138.096 194.991
      vertex 116.778 139.158 195.632
    endloop
  endfacet
  facet normal 0.415789 0.329298 -0.847751
    outer loop
      vertex 118.051 138.087 195.096
      vertex 118.872 139.2 195.931
      vertex 119.138 138.133 195.647
    endloop
  endfacet
  facet normal 0.262352 0.447766 -0.854796
    outer loop
      vertex 118.872 139.2 195.931
      vertex 118.051 138.087 195.096
      vertex 117.812 139.172 195.591
    endloop
  endfacet
  facet normal 0.803072 0.240402 -0.545236
    outer loop
      vertex 119.138 138.133 195.647
      vertex 119.898 139.189 197.232
      vertex 120.177 138.164 197.191
    endloop
  endfacet
  facet normal 0.74008 0.339084 -0.580778
    outer loop
      vertex 119.898 139.189 197.232
      vertex 119.138 138.133 195.647
      vertex 118.872 139.2 195.931
    endloop
  endfacet
  facet normal -0.470119 0.827925 -0.305823
    outer loop
      vertex 114.857 139.122 197.52
      vertex 116.065 139.812 197.531
      vertex 115.822 139.042 195.82
    endloop
  endfacet
  facet normal -0.184897 0.905749 -0.381354
    outer loop
      vertex 116.778 139.158 195.632
      vertex 115.822 139.042 195.82
      vertex 116.065 139.812 197.531
    endloop
  endfacet
  facet normal -0.196056 0.902149 -0.384304
    outer loop
      vertex 116.065 139.812 197.531
      vertex 117.33 139.931 197.165
      vertex 116.778 139.158 195.632
    endloop
  endfacet
  facet normal -0.0296486 0.896766 -0.44151
    outer loop
      vertex 117.812 139.172 195.591
      vertex 116.778 139.158 195.632
      vertex 117.33 139.931 197.165
    endloop
  endfacet
  facet normal -0.0100033 0.899498 -0.436811
    outer loop
      vertex 117.33 139.931 197.165
      vertex 118.399 139.956 197.192
      vertex 117.812 139.172 195.591
    endloop
  endfacet
  facet normal 0.128984 0.8711 -0.473864
    outer loop
      vertex 118.872 139.2 195.931
      vertex 117.812 139.172 195.591
      vertex 118.399 139.956 197.192
    endloop
  endfacet
  facet normal 0.24228 0.869509 -0.430413
    outer loop
      vertex 118.399 139.956 197.192
      vertex 119.327 139.888 197.577
      vertex 118.872 139.2 195.931
    endloop
  endfacet
  facet normal 0.572724 0.687901 -0.445848
    outer loop
      vertex 119.898 139.189 197.232
      vertex 118.872 139.2 195.931
      vertex 119.327 139.888 197.577
    endloop
  endfacet
  facet normal -0.342009 -0.935549 -0.0881884
    outer loop
      vertex 59.1167 127.469 199.757
      vertex 57.9987 127.937 199.128
      vertex 58.781 127.809 197.452
    endloop
  endfacet
  facet normal -0.0304571 -0.980855 -0.192342
    outer loop
      vertex 59.9664 127.822 197.198
      vertex 59.996 127.373 199.483
      vertex 58.781 127.809 197.452
    endloop
  endfacet
  facet normal -0.145674 -0.981585 -0.123573
    outer loop
      vertex 59.1167 127.469 199.757
      vertex 58.781 127.809 197.452
      vertex 59.996 127.373 199.483
    endloop
  endfacet
  facet normal 0.129456 -0.955321 -0.265713
    outer loop
      vertex 61.2541 127.999 197.189
      vertex 61.0724 127.385 199.308
      vertex 59.9664 127.822 197.198
    endloop
  endfacet
  facet normal -0.020362 -0.981082 -0.192518
    outer loop
      vertex 59.996 127.373 199.483
      vertex 59.9664 127.822 197.198
      vertex 61.0724 127.385 199.308
    endloop
  endfacet
  facet normal 0.43639 -0.820865 -0.368435
    outer loop
      vertex 62.3179 128.078 198.273
      vertex 61.9665 127.52 199.1
      vertex 61.2541 127.999 197.189
    endloop
  endfacet
  facet normal 0.0817967 -0.959125 -0.270902
    outer loop
      vertex 61.0724 127.385 199.308
      vertex 61.2541 127.999 197.189
      vertex 61.9665 127.52 199.1
    endloop
  endfacet
  facet normal 0.757107 -0.64353 -0.112506
    outer loop
      vertex 62.3179 128.078 198.273
      vertex 62.5006 128.037 199.737
      vertex 61.9665 127.52 199.1
    endloop
  endfacet
  facet normal -0.749318 -0.649817 0.127517
    outer loop
      vertex 56.9983 128.33 197.649
      vertex 56.8506 128.84 199.38
      vertex 56.2123 129.161 197.265
    endloop
  endfacet
  facet normal -0.582491 -0.791832 0.183593
    outer loop
      vertex 56.8506 128.84 199.38
      vertex 56.9983 128.33 197.649
      vertex 57.9987 127.937 199.128
    endloop
  endfacet
  facet normal -0.317695 -0.947476 -0.0368736
    outer loop
      vertex 57.9987 127.937 199.128
      vertex 56.9983 128.33 197.649
      vertex 57.6743 128.134 196.861
    endloop
  endfacet
  facet normal -0.258326 -0.964919 -0.0468849
    outer loop
      vertex 57.9987 127.937 199.128
      vertex 57.6743 128.134 196.861
      vertex 58.781 127.809 197.452
    endloop
  endfacet
  facet normal 0.55464 -0.668403 -0.495592
    outer loop
      vertex 62.3179 128.078 198.273
      vertex 61.2541 127.999 197.189
      vertex 62.1869 128.928 196.98
    endloop
  endfacet
  facet normal 0.94865 -0.289931 -0.126506
    outer loop
      vertex 62.5006 128.037 199.737
      vertex 62.3179 128.078 198.273
      vertex 62.7445 129.082 199.171
    endloop
  endfacet
  facet normal 0.952697 -0.20055 -0.228361
    outer loop
      vertex 62.7445 129.082 199.171
      vertex 62.3179 128.078 198.273
      vertex 62.1869 128.928 196.98
    endloop
  endfacet
  facet normal -0.826316 -0.537635 0.167781
    outer loop
      vertex 56.2123 129.161 197.265
      vertex 56.8506 128.84 199.38
      vertex 56.0238 129.926 198.788
    endloop
  endfacet
  facet normal -0.924322 -0.374434 0.0736752
    outer loop
      vertex 55.773 130.139 196.724
      vertex 56.2123 129.161 197.265
      vertex 56.0238 129.926 198.788
    endloop
  endfacet
  facet normal 0.920592 -0.328491 -0.211198
    outer loop
      vertex 62.7445 129.082 199.171
      vertex 62.1869 128.928 196.98
      vertex 62.7843 130.075 197.8
    endloop
  endfacet
  facet normal 0.994096 -0.0995213 -0.0432236
    outer loop
      vertex 62.7843 130.075 197.8
      vertex 62.8843 130.273 199.644
      vertex 62.7445 129.082 199.171
    endloop
  endfacet
  facet normal -0.992102 -0.0489131 0.115504
    outer loop
      vertex 55.7867 131.056 197.23
      vertex 55.773 130.139 196.724
      vertex 56.0238 129.926 198.788
    endloop
  endfacet
  facet normal -0.979028 0.0621005 0.194031
    outer loop
      vertex 56.0238 129.926 198.788
      vertex 56.2246 131.042 199.444
      vertex 55.7867 131.056 197.23
    endloop
  endfacet
  facet normal 0.898275 0.365735 -0.243597
    outer loop
      vertex 62.1957 131.145 197.236
      vertex 62.7449 130.999 199.042
      vertex 62.7843 130.075 197.8
    endloop
  endfacet
  facet normal 0.988717 0.133498 -0.0679525
    outer loop
      vertex 62.8843 130.273 199.644
      vertex 62.7843 130.075 197.8
      vertex 62.7449 130.999 199.042
    endloop
  endfacet
  facet normal -0.810903 0.501811 0.301034
    outer loop
      vertex 56.1606 131.959 197.743
      vertex 56.2246 131.042 199.444
      vertex 56.8891 132.117 199.442
    endloop
  endfacet
  facet normal -0.940618 0.282769 0.18783
    outer loop
      vertex 56.2246 131.042 199.444
      vertex 56.1606 131.959 197.743
      vertex 55.7867 131.056 197.23
    endloop
  endfacet
  facet normal 0.753407 0.641645 -0.143771
    outer loop
      vertex 61.1526 132.301 196.929
      vertex 61.9388 131.908 199.295
      vertex 62.1957 131.145 197.236
    endloop
  endfacet
  facet normal 0.715331 0.679608 -0.16259
    outer loop
      vertex 62.7449 130.999 199.042
      vertex 62.1957 131.145 197.236
      vertex 61.9388 131.908 199.295
    endloop
  endfacet
  facet normal -0.649535 0.730593 0.210567
    outer loop
      vertex 56.9156 132.768 197.265
      vertex 56.1606 131.959 197.743
      vertex 56.8891 132.117 199.442
    endloop
  endfacet
  facet normal -0.58445 0.77934 0.225936
    outer loop
      vertex 56.8891 132.117 199.442
      vertex 57.7324 132.859 199.064
      vertex 56.9156 132.768 197.265
    endloop
  endfacet
  facet normal -0.370621 0.920777 0.121697
    outer loop
      vertex 57.9881 133.21 197.187
      vertex 56.9156 132.768 197.265
      vertex 57.7324 132.859 199.064
    endloop
  endfacet
  facet normal -0.0701081 0.988707 0.132451
    outer loop
      vertex 57.9881 133.21 197.187
      vertex 58.7112 132.962 199.421
      vertex 59.0748 133.275 197.277
    endloop
  endfacet
  facet normal -0.160911 0.973881 0.160196
    outer loop
      vertex 58.7112 132.962 199.421
      vertex 57.9881 133.21 197.187
      vertex 57.7324 132.859 199.064
    endloop
  endfacet
  facet normal 0.161715 0.982727 0.0899752
    outer loop
      vertex 59.0748 133.275 197.277
      vertex 59.7744 132.959 199.471
      vertex 60.1365 133.098 197.302
    endloop
  endfacet
  facet normal -0.00397014 0.989599 0.143797
    outer loop
      vertex 59.7744 132.959 199.471
      vertex 59.0748 133.275 197.277
      vertex 58.7112 132.962 199.421
    endloop
  endfacet
  facet normal 0.60526 0.794526 -0.0488817
    outer loop
      vertex 60.1365 133.098 197.302
      vertex 60.8539 132.681 199.407
      vertex 61.1526 132.301 196.929
    endloop
  endfacet
  facet normal 0.253815 0.961645 0.104
    outer loop
      vertex 60.8539 132.681 199.407
      vertex 60.1365 133.098 197.302
      vertex 59.7744 132.959 199.471
    endloop
  endfacet
  facet normal 0.575554 0.815862 -0.0557342
    outer loop
      vertex 61.9388 131.908 199.295
      vertex 61.1526 132.301 196.929
      vertex 60.8539 132.681 199.407
    endloop
  endfacet
  facet normal -0.581804 -0.762423 0.283221
    outer loop
      vertex 111.126 132.371 197.295
      vertex 110.833 133.157 198.809
      vertex 110.063 133.161 197.238
    endloop
  endfacet
  facet normal -0.381337 -0.801683 0.460311
    outer loop
      vertex 111.126 132.371 197.295
      vertex 112.088 132.127 197.667
      vertex 111.927 132.857 198.805
    endloop
  endfacet
  facet normal -0.23977 -0.879834 0.410368
    outer loop
      vertex 110.833 133.157 198.809
      vertex 111.126 132.371 197.295
      vertex 111.927 132.857 198.805
    endloop
  endfacet
  facet normal 0.169231 -0.881731 0.440353
    outer loop
      vertex 112.957 132.111 197.301
      vertex 112.998 132.865 198.795
      vertex 112.088 132.127 197.667
    endloop
  endfacet
  facet normal 0.0113331 -0.840923 0.541036
    outer loop
      vertex 111.927 132.857 198.805
      vertex 112.088 132.127 197.667
      vertex 112.998 132.865 198.795
    endloop
  endfacet
  facet normal 0.187631 -0.919031 0.346665
    outer loop
      vertex 113.989 132.267 197.156
      vertex 114.034 132.885 198.77
      vertex 112.957 132.111 197.301
    endloop
  endfacet
  facet normal 0.0280871 -0.892705 0.449765
    outer loop
      vertex 112.998 132.865 198.795
      vertex 112.957 132.111 197.301
      vertex 114.034 132.885 198.77
    endloop
  endfacet
  facet normal 0.341705 -0.925119 0.165506
    outer loop
      vertex 114.824 132.523 196.863
      vertex 115.006 132.894 198.561
      vertex 113.989 132.267 197.156
    endloop
  endfacet
  facet normal 0.0847905 -0.931305 0.354232
    outer loop
      vertex 114.034 132.885 198.77
      vertex 113.989 132.267 197.156
      vertex 115.006 132.894 198.561
    endloop
  endfacet
  facet normal 0.353291 -0.921134 0.163393
    outer loop
      vertex 115.006 132.894 198.561
      vertex 114.824 132.523 196.863
      vertex 115.865 133.031 197.476
    endloop
  endfacet
  facet normal -0.360764 -0.909943 -0.204578
    outer loop
      vertex 118.287 132.818 197.993
      vertex 118.183 132.484 199.662
      vertex 117.164 133.051 198.937
    endloop
  endfacet
  facet normal 0.135557 -0.916207 -0.377079
    outer loop
      vertex 119.27 133.019 197.858
      vertex 118.909 132.482 199.033
      vertex 118.287 132.818 197.993
    endloop
  endfacet
  facet normal -0.179202 -0.962477 -0.203777
    outer loop
      vertex 118.183 132.484 199.662
      vertex 118.287 132.818 197.993
      vertex 118.909 132.482 199.033
    endloop
  endfacet
  facet normal 0.606581 -0.776916 -0.168705
    outer loop
      vertex 119.27 133.019 197.858
      vertex 119.833 133.15 199.279
      vertex 118.909 132.482 199.033
    endloop
  endfacet
  facet normal -0.816953 -0.522452 0.244198
    outer loop
      vertex 110.063 133.161 197.238
      vertex 109.912 134.08 198.699
      vertex 109.424 134.077 197.06
    endloop
  endfacet
  facet normal -0.686651 -0.64525 0.334908
    outer loop
      vertex 109.912 134.08 198.699
      vertex 110.063 133.161 197.238
      vertex 110.833 133.157 198.809
    endloop
  endfacet
  facet normal -0.525819 -0.437764 0.729299
    outer loop
      vertex 110.833 133.157 198.809
      vertex 110.998 134.09 199.488
      vertex 109.912 134.08 198.699
    endloop
  endfacet
  facet normal -0.12999 -0.485557 0.864486
    outer loop
      vertex 111.927 132.857 198.805
      vertex 111.935 133.932 199.41
      vertex 110.833 133.157 198.809
    endloop
  endfacet
  facet normal -0.0310765 -0.584546 0.810765
    outer loop
      vertex 110.998 134.09 199.488
      vertex 110.833 133.157 198.809
      vertex 111.935 133.932 199.41
    endloop
  endfacet
  facet normal 0.011648 -0.432312 0.901649
    outer loop
      vertex 112.998 132.865 198.795
      vertex 112.993 133.964 199.322
      vertex 111.927 132.857 198.805
    endloop
  endfacet
  facet normal 0.08698 -0.489086 0.867888
    outer loop
      vertex 111.935 133.932 199.41
      vertex 111.927 132.857 198.805
      vertex 112.993 133.964 199.322
    endloop
  endfacet
  facet normal 0.0305579 -0.503793 0.863284
    outer loop
      vertex 114.034 132.885 198.77
      vertex 114.018 133.979 199.409
      vertex 112.998 132.865 198.795
    endloop
  endfacet
  facet normal -0.0700194 -0.431582 0.899352
    outer loop
      vertex 112.993 133.964 199.322
      vertex 112.998 132.865 198.795
      vertex 114.018 133.979 199.409
    endloop
  endfacet
  facet normal 0.15491 -0.707041 0.689997
    outer loop
      vertex 115.006 132.894 198.561
      vertex 114.864 133.749 199.469
      vertex 114.034 132.885 198.77
    endloop
  endfacet
  facet normal -0.19504 -0.496801 0.845664
    outer loop
      vertex 114.018 133.979 199.409
      vertex 114.034 132.885 198.77
      vertex 114.864 133.749 199.469
    endloop
  endfacet
  facet normal 0.483897 -0.82968 0.278342
    outer loop
      vertex 115.865 133.031 197.476
      vertex 115.877 133.767 199.649
      vertex 115.006 132.894 198.561
    endloop
  endfacet
  facet normal -0.106533 -0.732153 0.672757
    outer loop
      vertex 114.864 133.749 199.469
      vertex 115.006 132.894 198.561
      vertex 115.877 133.767 199.649
    endloop
  endfacet
  facet normal -0.328814 -0.893927 0.304591
    outer loop
      vertex 115.877 133.767 199.649
      vertex 115.865 133.031 197.476
      vertex 117.164 133.051 198.937
    endloop
  endfacet
  facet normal 0.227145 -0.955369 -0.18888
    outer loop
      vertex 117.164 133.051 198.937
      vertex 115.865 133.031 197.476
      vertex 116.792 133.372 196.866
    endloop
  endfacet
  facet normal -0.442845 -0.83751 -0.320101
    outer loop
      vertex 117.164 133.051 198.937
      vertex 117.698 133.59 196.788
      vertex 118.287 132.818 197.993
    endloop
  endfacet
  facet normal 0.214552 -0.95862 -0.187122
    outer loop
      vertex 117.698 133.59 196.788
      vertex 117.164 133.051 198.937
      vertex 116.792 133.372 196.866
    endloop
  endfacet
  facet normal 0.0728976 -0.776707 -0.625629
    outer loop
      vertex 118.287 132.818 197.993
      vertex 118.99 133.973 196.641
      vertex 119.27 133.019 197.858
    endloop
  endfacet
  facet normal 0.167489 -0.790905 -0.588572
    outer loop
      vertex 118.99 133.973 196.641
      vertex 118.287 132.818 197.993
      vertex 117.698 133.59 196.788
    endloop
  endfacet
  facet normal 0.738023 -0.63288 -0.23406
    outer loop
      vertex 119.833 133.15 199.279
      vertex 119.27 133.019 197.858
      vertex 120.136 133.966 198.028
    endloop
  endfacet
  facet normal 0.662995 -0.50749 -0.550356
    outer loop
      vertex 120.136 133.966 198.028
      vertex 119.27 133.019 197.858
      vertex 118.99 133.973 196.641
    endloop
  endfacet
  facet normal 0.840062 -0.524476 -0.138636
    outer loop
      vertex 120.136 133.966 198.028
      vertex 120.505 134.123 199.67
      vertex 119.833 133.15 199.279
    endloop
  endfacet
  facet normal -0.91011 -0.0248905 0.413619
    outer loop
      vertex 109.426 134.834 197.675
      vertex 109.912 134.08 198.699
      vertex 109.926 135.18 198.796
    endloop
  endfacet
  facet normal -0.933999 -0.223791 0.278501
    outer loop
      vertex 109.424 134.077 197.06
      vertex 109.912 134.08 198.699
      vertex 109.426 134.834 197.675
    endloop
  endfacet
  facet normal -0.583107 -0.115989 0.804073
    outer loop
      vertex 109.912 134.08 198.699
      vertex 110.998 134.09 199.488
      vertex 110.812 135.032 199.489
    endloop
  endfacet
  facet normal -0.621246 -0.0609843 0.781239
    outer loop
      vertex 109.926 135.18 198.796
      vertex 109.912 134.08 198.699
      vertex 110.812 135.032 199.489
    endloop
  endfacet
  facet normal 0.0636102 -0.112309 0.991635
    outer loop
      vertex 111.935 133.932 199.41
      vertex 111.947 135.016 199.532
      vertex 110.998 134.09 199.488
    endloop
  endfacet
  facet normal -0.0379774 -0.00855949 0.999242
    outer loop
      vertex 110.812 135.032 199.489
      vertex 110.998 134.09 199.488
      vertex 111.947 135.016 199.532
    endloop
  endfacet
  facet normal 0.0842416 -0.0482258 0.995278
    outer loop
      vertex 112.993 133.964 199.322
      vertex 113.003 135.034 199.373
      vertex 111.935 133.932 199.41
    endloop
  endfacet
  facet normal 0.14982 -0.112215 0.982325
    outer loop
      vertex 111.947 135.016 199.532
      vertex 111.935 133.932 199.41
      vertex 113.003 135.034 199.373
    endloop
  endfacet
  facet normal -0.0841604 -0.0264263 0.996102
    outer loop
      vertex 114.018 133.979 199.409
      vertex 113.859 134.9 199.42
      vertex 112.993 133.964 199.322
    endloop
  endfacet
  facet normal -0.0620879 -0.0469387 0.996966
    outer loop
      vertex 113.003 135.034 199.373
      vertex 112.993 133.964 199.322
      vertex 113.859 134.9 199.42
    endloop
  endfacet
  facet normal -0.157139 -0.33571 0.928766
    outer loop
      vertex 114.864 133.749 199.469
      vertex 114.883 134.891 199.885
      vertex 114.018 133.979 199.409
    endloop
  endfacet
  facet normal -0.412671 -0.0820777 0.907175
    outer loop
      vertex 113.859 134.9 199.42
      vertex 114.018 133.979 199.409
      vertex 114.883 134.891 199.885
    endloop
  endfacet
  facet normal -0.159021 -0.335579 0.928493
    outer loop
      vertex 114.883 134.891 199.885
      vertex 114.864 133.749 199.469
      vertex 115.877 133.767 199.649
    endloop
  endfacet
  facet normal 0.712647 -0.378382 -0.59073
    outer loop
      vertex 120.136 133.966 198.028
      vertex 118.99 133.973 196.641
      vertex 120.163 135.041 197.372
    endloop
  endfacet
  facet normal 0.956546 -0.217536 -0.194161
    outer loop
      vertex 120.505 134.123 199.67
      vertex 120.136 133.966 198.028
      vertex 120.639 135.038 199.305
    endloop
  endfacet
  facet normal 0.957128 -0.168026 -0.235953
    outer loop
      vertex 120.639 135.038 199.305
      vertex 120.136 133.966 198.028
      vertex 120.163 135.041 197.372
    endloop
  endfacet
  facet normal -0.797375 0.576748 0.177638
    outer loop
      vertex 110.06 135.798 197.391
      vertex 109.426 134.834 197.675
      vertex 109.926 135.18 198.796
    endloop
  endfacet
  facet normal -0.714947 0.662577 0.223252
    outer loop
      vertex 109.926 135.18 198.796
      vertex 110.82 136.114 198.887
      vertex 110.06 135.798 197.391
    endloop
  endfacet
  facet normal -0.514646 0.419764 0.747621
    outer loop
      vertex 110.82 136.114 198.887
      vertex 109.926 135.18 198.796
      vertex 110.812 135.032 199.489
    endloop
  endfacet
  facet normal -0.0364436 0.0896672 0.995305
    outer loop
      vertex 111.947 135.016 199.532
      vertex 111.885 136.123 199.43
      vertex 110.812 135.032 199.489
    endloop
  endfacet
  facet normal -0.409569 0.445853 0.795908
    outer loop
      vertex 110.82 136.114 198.887
      vertex 110.812 135.032 199.489
      vertex 111.885 136.123 199.43
    endloop
  endfacet
  facet normal 0.149708 -0.0728031 0.986046
    outer loop
      vertex 113.003 135.034 199.373
      vertex 112.976 136.062 199.453
      vertex 111.947 135.016 199.532
    endloop
  endfacet
  facet normal -0.0159117 0.0908569 0.995737
    outer loop
      vertex 111.885 136.123 199.43
      vertex 111.947 135.016 199.532
      vertex 112.976 136.062 199.453
    endloop
  endfacet
  facet normal -0.0894242 -0.231471 0.968723
    outer loop
      vertex 113.859 134.9 199.42
      vertex 113.999 135.775 199.642
      vertex 113.003 135.034 199.373
    endloop
  endfacet
  facet normal -0.203077 -0.0812703 0.975784
    outer loop
      vertex 112.976 136.062 199.453
      vertex 113.003 135.034 199.373
      vertex 113.999 135.775 199.642
    endloop
  endfacet
  facet normal -0.409166 -0.162344 0.897902
    outer loop
      vertex 113.999 135.775 199.642
      vertex 113.859 134.9 199.42
      vertex 114.883 134.891 199.885
    endloop
  endfacet
  facet normal 0.970931 -0.0109965 -0.239108
    outer loop
      vertex 120.163 135.041 197.372
      vertex 120.625 136.085 199.2
      vertex 120.639 135.038 199.305
    endloop
  endfacet
  facet normal 0.974154 -0.0427113 -0.22181
    outer loop
      vertex 120.625 136.085 199.2
      vertex 120.163 135.041 197.372
      vertex 120.162 136.088 197.166
    endloop
  endfacet
  facet normal -0.685461 0.699997 0.200369
    outer loop
      vertex 111.137 136.895 197.243
      vertex 110.06 135.798 197.391
      vertex 110.82 136.114 198.887
    endloop
  endfacet
  facet normal -0.646563 0.729831 0.222042
    outer loop
      vertex 110.82 136.114 198.887
      vertex 111.913 137.183 198.556
      vertex 111.137 136.895 197.243
    endloop
  endfacet
  facet normal -0.368327 0.597214 0.71251
    outer loop
      vertex 111.913 137.183 198.556
      vertex 110.82 136.114 198.887
      vertex 111.885 136.123 199.43
    endloop
  endfacet
  facet normal -0.00654072 0.248255 0.968673
    outer loop
      vertex 112.976 136.062 199.453
      vertex 112.925 137.161 199.171
      vertex 111.885 136.123 199.43
    endloop
  endfacet
  facet normal -0.411364 0.586291 0.697884
    outer loop
      vertex 111.913 137.183 198.556
      vertex 111.885 136.123 199.43
      vertex 112.925 137.161 199.171
    endloop
  endfacet
  facet normal -0.2409 -0.239259 0.940597
    outer loop
      vertex 113.999 135.775 199.642
      vertex 113.953 136.812 199.894
      vertex 112.976 136.062 199.453
    endloop
  endfacet
  facet normal -0.521041 0.189375 0.832258
    outer loop
      vertex 112.925 137.161 199.171
      vertex 112.976 136.062 199.453
      vertex 113.953 136.812 199.894
    endloop
  endfacet
  facet normal 0.974978 0.0131368 -0.221915
    outer loop
      vertex 120.162 136.088 197.166
      vertex 120.63 137.116 199.283
      vertex 120.625 136.085 199.2
    endloop
  endfacet
  facet normal 0.976891 -0.0046737 -0.213689
    outer loop
      vertex 120.63 137.116 199.283
      vertex 120.162 136.088 197.166
      vertex 120.173 137.107 197.194
    endloop
  endfacet
  facet normal -0.590631 0.787436 0.176351
    outer loop
      vertex 112.124 137.709 196.914
      vertex 111.137 136.895 197.243
      vertex 111.913 137.183 198.556
    endloop
  endfacet
  facet normal -0.419966 0.878569 0.227475
    outer loop
      vertex 113.083 138.032 197.437
      vertex 112.124 137.709 196.914
      vertex 111.913 137.183 198.556
    endloop
  endfacet
  facet normal -0.235569 0.876893 0.419005
    outer loop
      vertex 113.083 138.032 197.437
      vertex 111.913 137.183 198.556
      vertex 112.925 137.161 199.171
    endloop
  endfacet
  facet normal -0.63842 0.709557 0.298243
    outer loop
      vertex 112.925 137.161 199.171
      vertex 114.031 138.133 199.226
      vertex 113.083 138.032 197.437
    endloop
  endfacet
  facet normal -0.417361 0.429586 0.800791
    outer loop
      vertex 114.031 138.133 199.226
      vertex 112.925 137.161 199.171
      vertex 113.953 136.812 199.894
    endloop
  endfacet
  facet normal 0.976658 -0.0230745 -0.213559
    outer loop
      vertex 120.173 137.107 197.194
      vertex 120.657 138.157 199.294
      vertex 120.63 137.116 199.283
    endloop
  endfacet
  facet normal 0.974915 -0.00432097 -0.222534
    outer loop
      vertex 120.657 138.157 199.294
      vertex 120.173 137.107 197.194
      vertex 120.177 138.164 197.191
    endloop
  endfacet
  facet normal -0.357482 0.923775 0.137279
    outer loop
      vertex 114.129 138.52 196.877
      vertex 113.083 138.032 197.437
      vertex 114.031 138.133 199.226
    endloop
  endfacet
  facet normal -0.681234 0.726357 0.0912469
    outer loop
      vertex 114.857 139.122 197.52
      vertex 114.129 138.52 196.877
      vertex 114.031 138.133 199.226
    endloop
  endfacet
  facet normal -0.830134 0.551467 -0.0822331
    outer loop
      vertex 114.031 138.133 199.226
      vertex 114.579 139.028 199.696
      vertex 114.857 139.122 197.52
    endloop
  endfacet
  facet normal 0.973473 0.0553477 -0.222006
    outer loop
      vertex 120.177 138.164 197.191
      vertex 120.528 139.022 198.944
      vertex 120.657 138.157 199.294
    endloop
  endfacet
  facet normal 0.913878 0.261186 -0.310821
    outer loop
      vertex 120.528 139.022 198.944
      vertex 120.177 138.164 197.191
      vertex 119.898 139.189 197.232
    endloop
  endfacet
  facet normal -0.801198 0.59346 -0.0767223
    outer loop
      vertex 114.857 139.122 197.52
      vertex 114.579 139.028 199.696
      vertex 115.119 139.677 199.077
    endloop
  endfacet
  facet normal -0.482198 0.84772 -0.221033
    outer loop
      vertex 116.065 139.812 197.531
      vertex 114.857 139.122 197.52
      vertex 115.119 139.677 199.077
    endloop
  endfacet
  facet normal -0.201764 0.978697 -0.0379976
    outer loop
      vertex 115.119 139.677 199.077
      vertex 115.767 139.834 199.68
      vertex 116.065 139.812 197.531
    endloop
  endfacet
  facet normal -0.0978785 0.995089 -0.014756
    outer loop
      vertex 117.33 139.931 197.165
      vertex 116.065 139.812 197.531
      vertex 116.734 139.905 199.365
    endloop
  endfacet
  facet normal -0.0801124 0.996558 -0.0213112
    outer loop
      vertex 116.734 139.905 199.365
      vertex 116.065 139.812 197.531
      vertex 115.767 139.834 199.68
    endloop
  endfacet
  facet normal -0.0232987 0.999723 -0.00321536
    outer loop
      vertex 118.399 139.956 197.192
      vertex 117.33 139.931 197.165
      vertex 117.816 139.949 199.24
    endloop
  endfacet
  facet normal -0.0405365 0.999178 0.000826762
    outer loop
      vertex 117.816 139.949 199.24
      vertex 117.33 139.931 197.165
      vertex 116.734 139.905 199.365
    endloop
  endfacet
  facet normal 0.0790807 0.996762 -0.0145638
    outer loop
      vertex 119.327 139.888 197.577
      vertex 118.399 139.956 197.192
      vertex 118.876 139.949 199.303
    endloop
  endfacet
  facet normal -0.000199763 0.999994 0.00336108
    outer loop
      vertex 118.876 139.949 199.303
      vertex 118.399 139.956 197.192
      vertex 117.816 139.949 199.24
    endloop
  endfacet
  facet normal 0.726248 0.66974 -0.154958
    outer loop
      vertex 119.327 139.888 197.577
      vertex 119.899 139.665 199.294
      vertex 119.898 139.189 197.232
    endloop
  endfacet
  facet normal 0.267619 0.962856 0.0358991
    outer loop
      vertex 119.899 139.665 199.294
      vertex 119.327 139.888 197.577
      vertex 118.876 139.949 199.303
    endloop
  endfacet
  facet normal 0.656617 0.734828 -0.169949
    outer loop
      vertex 120.528 139.022 198.944
      vertex 119.898 139.189 197.232
      vertex 119.899 139.665 199.294
    endloop
  endfacet
  facet normal -0.52774 -0.765236 0.368652
    outer loop
      vertex 59.1167 127.469 199.757
      vertex 58.9593 128.12 200.883
      vertex 57.9987 127.937 199.128
    endloop
  endfacet
  facet normal -0.00300842 -0.94672 0.322043
    outer loop
      vertex 59.996 127.373 199.483
      vertex 60.0066 127.889 201
      vertex 59.1167 127.469 199.757
    endloop
  endfacet
  facet normal -0.239945 -0.854591 0.460543
    outer loop
      vertex 58.9593 128.12 200.883
      vertex 59.1167 127.469 199.757
      vertex 60.0066 127.889 201
    endloop
  endfacet
  facet normal 0.0536135 -0.963106 0.263727
    outer loop
      vertex 61.0724 127.385 199.308
      vertex 61.0994 127.826 200.913
      vertex 59.996 127.373 199.483
    endloop
  endfacet
  facet normal -0.0289119 -0.946274 0.322072
    outer loop
      vertex 60.0066 127.889 201
      vertex 59.996 127.373 199.483
      vertex 61.0994 127.826 200.913
    endloop
  endfacet
  facet normal 0.177172 -0.975787 0.12826
    outer loop
      vertex 61.9665 127.52 199.1
      vertex 61.9388 127.689 200.424
      vertex 61.0724 127.385 199.308
    endloop
  endfacet
  facet normal -0.00300237 -0.964246 0.264993
    outer loop
      vertex 61.0994 127.826 200.913
      vertex 61.0724 127.385 199.308
      vertex 61.9388 127.689 200.424
    endloop
  endfacet
  facet normal 0.6188 -0.777496 0.112188
    outer loop
      vertex 61.9388 127.689 200.424
      vertex 61.9665 127.52 199.1
      vertex 62.5006 128.037 199.737
    endloop
  endfacet
  facet normal -0.501041 -0.755057 0.422903
    outer loop
      vertex 57.9987 127.937 199.128
      vertex 58.0068 128.965 200.973
      vertex 56.8506 128.84 199.38
    endloop
  endfacet
  facet normal -0.588311 -0.705285 0.395555
    outer loop
      vertex 58.0068 128.965 200.973
      vertex 57.9987 127.937 199.128
      vertex 58.9593 128.12 200.883
    endloop
  endfacet
  facet normal -0.322606 -0.452212 0.831523
    outer loop
      vertex 58.9593 128.12 200.883
      vertex 59.0985 129.078 201.458
      vertex 58.0068 128.965 200.973
    endloop
  endfacet
  facet normal -0.196275 -0.448124 0.872159
    outer loop
      vertex 60.0066 127.889 201
      vertex 59.995 128.947 201.541
      vertex 58.9593 128.12 200.883
    endloop
  endfacet
  facet normal -0.151309 -0.492447 0.857089
    outer loop
      vertex 59.0985 129.078 201.458
      vertex 58.9593 128.12 200.883
      vertex 59.995 128.947 201.541
    endloop
  endfacet
  facet normal 0.0401568 -0.498939 0.865706
    outer loop
      vertex 61.0994 127.826 200.913
      vertex 61.1265 128.897 201.529
      vertex 60.0066 127.889 201
    endloop
  endfacet
  facet normal -0.0106796 -0.455341 0.890253
    outer loop
      vertex 59.995 128.947 201.541
      vertex 60.0066 127.889 201
      vertex 61.1265 128.897 201.529
    endloop
  endfacet
  facet normal 0.38099 -0.481965 0.789023
    outer loop
      vertex 61.9388 127.689 200.424
      vertex 62.1424 128.585 200.873
      vertex 61.0994 127.826 200.913
    endloop
  endfacet
  facet normal 0.372538 -0.469754 0.800342
    outer loop
      vertex 61.1265 128.897 201.529
      vertex 61.0994 127.826 200.913
      vertex 62.1424 128.585 200.873
    endloop
  endfacet
  facet normal 0.94594 -0.0469589 0.320924
    outer loop
      vertex 62.7445 129.082 199.171
      vertex 62.1424 128.585 200.873
      vertex 62.5006 128.037 199.737
    endloop
  endfacet
  facet normal 0.797535 -0.405194 0.44694
    outer loop
      vertex 61.9388 127.689 200.424
      vertex 62.5006 128.037 199.737
      vertex 62.1424 128.585 200.873
    endloop
  endfacet
  facet normal -0.820188 -0.403174 0.405885
    outer loop
      vertex 56.8506 128.84 199.38
      vertex 56.9763 130.039 200.825
      vertex 56.0238 129.926 198.788
    endloop
  endfacet
  facet normal -0.652179 -0.554538 0.516865
    outer loop
      vertex 56.9763 130.039 200.825
      vertex 56.8506 128.84 199.38
      vertex 58.0068 128.965 200.973
    endloop
  endfacet
  facet normal -0.517476 -0.391678 0.760794
    outer loop
      vertex 58.0068 128.965 200.973
      vertex 58.0723 130.108 201.606
      vertex 56.9763 130.039 200.825
    endloop
  endfacet
  facet normal -0.385056 -0.171803 0.906761
    outer loop
      vertex 58.0068 128.965 200.973
      vertex 59.0985 129.078 201.458
      vertex 58.968 129.988 201.575
    endloop
  endfacet
  facet normal -0.0343782 -0.482678 0.875123
    outer loop
      vertex 58.0723 130.108 201.606
      vertex 58.0068 128.965 200.973
      vertex 58.968 129.988 201.575
    endloop
  endfacet
  facet normal -0.0997682 -0.0532411 0.993585
    outer loop
      vertex 59.995 128.947 201.541
      vertex 59.9993 130.04 201.6
      vertex 59.0985 129.078 201.458
    endloop
  endfacet
  facet normal -0.0174787 -0.129968 0.991364
    outer loop
      vertex 58.968 129.988 201.575
      vertex 59.0985 129.078 201.458
      vertex 59.9993 130.04 201.6
    endloop
  endfacet
  facet normal 0.0100046 -0.0135623 0.999858
    outer loop
      vertex 61.1265 128.897 201.529
      vertex 61.1081 130.063 201.545
      vertex 59.995 128.947 201.541
    endloop
  endfacet
  facet normal 0.0505879 -0.0540308 0.997257
    outer loop
      vertex 59.9993 130.04 201.6
      vertex 59.995 128.947 201.541
      vertex 61.1081 130.063 201.545
    endloop
  endfacet
  facet normal 0.529549 -0.0554849 0.846463
    outer loop
      vertex 62.1424 128.585 200.873
      vertex 62.219 129.789 200.904
      vertex 61.1265 128.897 201.529
    endloop
  endfacet
  facet normal 0.499031 -0.00401631 0.866575
    outer loop
      vertex 61.1081 130.063 201.545
      vertex 61.1265 128.897 201.529
      vertex 62.219 129.789 200.904
    endloop
  endfacet
  facet normal 0.892253 -0.253209 0.373859
    outer loop
      vertex 62.7445 129.082 199.171
      vertex 62.8843 130.273 199.644
      vertex 62.219 129.789 200.904
    endloop
  endfacet
  facet normal 0.946651 -0.0683358 0.314933
    outer loop
      vertex 62.1424 128.585 200.873
      vertex 62.7445 129.082 199.171
      vertex 62.219 129.789 200.904
    endloop
  endfacet
  facet normal -0.867124 0.0343124 0.49691
    outer loop
      vertex 56.2246 131.042 199.444
      vertex 56.9763 130.039 200.825
      vertex 57.0621 131.237 200.892
    endloop
  endfacet
  facet normal -0.900426 -0.0883614 0.42594
    outer loop
      vertex 56.0238 129.926 198.788
      vertex 56.9763 130.039 200.825
      vertex 56.2246 131.042 199.444
    endloop
  endfacet
  facet normal -0.578586 -0.0337066 0.814925
    outer loop
      vertex 56.9763 130.039 200.825
      vertex 58.0723 130.108 201.606
      vertex 57.9578 131.058 201.564
    endloop
  endfacet
  facet normal -0.600349 -0.00172989 0.799736
    outer loop
      vertex 57.0621 131.237 200.892
      vertex 56.9763 130.039 200.825
      vertex 57.9578 131.058 201.564
    endloop
  endfacet
  facet normal 0.0293888 -0.0386655 0.99882
    outer loop
      vertex 58.968 129.988 201.575
      vertex 59.0152 131.083 201.616
      vertex 58.0723 130.108 201.606
    endloop
  endfacet
  facet normal -0.0499808 0.0380991 0.998023
    outer loop
      vertex 57.9578 131.058 201.564
      vertex 58.0723 130.108 201.606
      vertex 59.0152 131.083 201.616
    endloop
  endfacet
  facet normal -0.027985 0.0758216 0.996729
    outer loop
      vertex 59.9993 130.04 201.6
      vertex 60.049 131.11 201.52
      vertex 58.968 129.988 201.575
    endloop
  endfacet
  facet normal 0.0934534 -0.0412753 0.994768
    outer loop
      vertex 59.0152 131.083 201.616
      vertex 58.968 129.988 201.575
      vertex 60.049 131.11 201.52
    endloop
  endfacet
  facet normal 0.0477764 0.0780359 0.995805
    outer loop
      vertex 61.1081 130.063 201.545
      vertex 60.9459 130.979 201.481
      vertex 59.9993 130.04 201.6
    endloop
  endfacet
  facet normal 0.0538182 0.0719641 0.995954
    outer loop
      vertex 60.049 131.11 201.52
      vertex 59.9993 130.04 201.6
      vertex 60.9459 130.979 201.481
    endloop
  endfacet
  facet normal 0.524845 0.183367 0.831213
    outer loop
      vertex 62.219 129.789 200.904
      vertex 62.0807 131.028 200.718
      vertex 61.1081 130.063 201.545
    endloop
  endfacet
  facet normal 0.54669 0.154306 0.822994
    outer loop
      vertex 60.9459 130.979 201.481
      vertex 61.1081 130.063 201.545
      vertex 62.0807 131.028 200.718
    endloop
  endfacet
  facet normal 0.8411 0.431703 0.325859
    outer loop
      vertex 62.7449 130.999 199.042
      vertex 62.0807 131.028 200.718
      vertex 62.8843 130.273 199.644
    endloop
  endfacet
  facet normal 0.842731 0.170712 0.51055
    outer loop
      vertex 62.219 129.789 200.904
      vertex 62.8843 130.273 199.644
      vertex 62.0807 131.028 200.718
    endloop
  endfacet
  facet normal -0.783675 0.485142 0.387932
    outer loop
      vertex 56.8891 132.117 199.442
      vertex 56.2246 131.042 199.444
      vertex 57.0621 131.237 200.892
    endloop
  endfacet
  facet normal -0.578846 0.66464 0.47243
    outer loop
      vertex 57.0621 131.237 200.892
      vertex 57.9368 132.131 200.706
      vertex 56.8891 132.117 199.442
    endloop
  endfacet
  facet normal -0.422078 0.561109 0.712044
    outer loop
      vertex 57.9368 132.131 200.706
      vertex 57.0621 131.237 200.892
      vertex 57.9578 131.058 201.564
    endloop
  endfacet
  facet normal -0.0543525 0.494262 0.867612
    outer loop
      vertex 59.0152 131.083 201.616
      vertex 59.013 132.143 201.012
      vertex 57.9578 131.058 201.564
    endloop
  endfacet
  facet normal -0.223798 0.606001 0.763333
    outer loop
      vertex 57.9368 132.131 200.706
      vertex 57.9578 131.058 201.564
      vertex 59.013 132.143 201.012
    endloop
  endfacet
  facet normal 0.069422 0.470192 0.879829
    outer loop
      vertex 60.049 131.11 201.52
      vertex 60.0803 132.157 200.958
      vertex 59.0152 131.083 201.616
    endloop
  endfacet
  facet normal 0.0374365 0.494791 0.868205
    outer loop
      vertex 59.013 132.143 201.012
      vertex 59.0152 131.083 201.616
      vertex 60.0803 132.157 200.958
    endloop
  endfacet
  facet normal 0.112603 0.518614 0.847562
    outer loop
      vertex 60.9459 130.979 201.481
      vertex 61.1342 131.886 200.901
      vertex 60.049 131.11 201.52
    endloop
  endfacet
  facet normal 0.166037 0.462523 0.870922
    outer loop
      vertex 60.0803 132.157 200.958
      vertex 60.049 131.11 201.52
      vertex 61.1342 131.886 200.901
    endloop
  endfacet
  facet normal 0.666424 0.662018 0.342945
    outer loop
      vertex 61.9388 131.908 199.295
      vertex 61.1342 131.886 200.901
      vertex 62.0807 131.028 200.718
    endloop
  endfacet
  facet normal 0.502284 0.389425 0.772049
    outer loop
      vertex 62.0807 131.028 200.718
      vertex 61.1342 131.886 200.901
      vertex 60.9459 130.979 201.481
    endloop
  endfacet
  facet normal 0.75478 0.58892 0.28893
    outer loop
      vertex 62.7449 130.999 199.042
      vertex 61.9388 131.908 199.295
      vertex 62.0807 131.028 200.718
    endloop
  endfacet
  facet normal -0.496201 0.769129 0.402771
    outer loop
      vertex 57.7324 132.859 199.064
      vertex 56.8891 132.117 199.442
      vertex 57.9368 132.131 200.706
    endloop
  endfacet
  facet normal -0.244613 0.874758 0.418284
    outer loop
      vertex 58.7112 132.962 199.421
      vertex 57.7324 132.859 199.064
      vertex 57.9368 132.131 200.706
    endloop
  endfacet
  facet normal -0.144577 0.868344 0.474423
    outer loop
      vertex 58.7112 132.962 199.421
      vertex 57.9368 132.131 200.706
      vertex 59.013 132.143 201.012
    endloop
  endfacet
  facet normal -0.019151 0.887466 0.460474
    outer loop
      vertex 59.7744 132.959 199.471
      vertex 58.7112 132.962 199.421
      vertex 59.013 132.143 201.012
    endloop
  endfacet
  facet normal 0.0123578 0.881141 0.472693
    outer loop
      vertex 59.7744 132.959 199.471
      vertex 59.013 132.143 201.012
      vertex 60.0803 132.157 200.958
    endloop
  endfacet
  facet normal 0.249636 0.872809 0.419388
    outer loop
      vertex 60.8539 132.681 199.407
      vertex 59.7744 132.959 199.471
      vertex 60.0803 132.157 200.958
    endloop
  endfacet
  facet normal 0.24734 0.873844 0.418592
    outer loop
      vertex 60.8539 132.681 199.407
      vertex 60.0803 132.157 200.958
      vertex 61.1342 131.886 200.901
    endloop
  endfacet
  facet normal 0.57412 0.762585 0.298078
    outer loop
      vertex 61.9388 131.908 199.295
      vertex 60.8539 132.681 199.407
      vertex 61.1342 131.886 200.901
    endloop
  endfacet
  facet normal -0.619876 -0.722488 0.30621
    outer loop
      vertex 118.183 132.484 199.662
      vertex 118.014 133.152 200.896
      vertex 117.164 133.051 198.937
    endloop
  endfacet
  facet normal 0.198991 -0.951972 0.232705
    outer loop
      vertex 118.909 132.482 199.033
      vertex 119.032 132.869 200.511
      vertex 118.183 132.484 199.662
    endloop
  endfacet
  facet normal -0.0680957 -0.88125 0.46772
    outer loop
      vertex 118.014 133.152 200.896
      vertex 118.183 132.484 199.662
      vertex 119.032 132.869 200.511
    endloop
  endfacet
  facet normal 0.547494 -0.81956 0.169031
    outer loop
      vertex 119.032 132.869 200.511
      vertex 118.909 132.482 199.033
      vertex 119.833 133.15 199.279
    endloop
  endfacet
  facet normal -0.252136 -0.871492 0.42063
    outer loop
      vertex 117.164 133.051 198.937
      vertex 117.082 134.041 200.939
      vertex 115.877 133.767 199.649
    endloop
  endfacet
  facet normal -0.647045 -0.693652 0.316512
    outer loop
      vertex 117.082 134.041 200.939
      vertex 117.164 133.051 198.937
      vertex 118.014 133.152 200.896
    endloop
  endfacet
  facet normal -0.424546 -0.482148 0.766351
    outer loop
      vertex 118.014 133.152 200.896
      vertex 118.141 134.121 201.576
      vertex 117.082 134.041 200.939
    endloop
  endfacet
  facet normal 0.0876154 -0.677867 0.729945
    outer loop
      vertex 119.032 132.869 200.511
      vertex 119.094 133.886 201.448
      vertex 118.014 133.152 200.896
    endloop
  endfacet
  facet normal -0.0307688 -0.571449 0.820061
    outer loop
      vertex 118.141 134.121 201.576
      vertex 118.014 133.152 200.896
      vertex 119.094 133.886 201.448
    endloop
  endfacet
  facet normal 0.628784 -0.739574 0.240127
    outer loop
      vertex 119.833 133.15 199.279
      vertex 119.956 133.714 200.694
      vertex 119.032 132.869 200.511
    endloop
  endfacet
  facet normal 0.441224 -0.622467 0.646418
    outer loop
      vertex 119.094 133.886 201.448
      vertex 119.032 132.869 200.511
      vertex 119.956 133.714 200.694
    endloop
  endfacet
  facet normal 0.776171 -0.606015 0.17408
    outer loop
      vertex 119.956 133.714 200.694
      vertex 119.833 133.15 199.279
      vertex 120.505 134.123 199.67
    endloop
  endfacet
  facet normal -0.47251 -0.560639 0.680013
    outer loop
      vertex 115.877 133.767 199.649
      vertex 116.09 135.1 200.896
      vertex 114.883 134.891 199.885
    endloop
  endfacet
  facet normal -0.572028 -0.509745 0.642608
    outer loop
      vertex 116.09 135.1 200.896
      vertex 115.877 133.767 199.649
      vertex 117.082 134.041 200.939
    endloop
  endfacet
  facet normal -0.386493 -0.327024 0.862368
    outer loop
      vertex 117.082 134.041 200.939
      vertex 117.096 135.132 201.359
      vertex 116.09 135.1 200.896
    endloop
  endfacet
  facet normal -0.511747 -0.0533989 0.857475
    outer loop
      vertex 117.082 134.041 200.939
      vertex 118.141 134.121 201.576
      vertex 117.972 135.018 201.531
    endloop
  endfacet
  facet normal -0.22401 -0.347631 0.910479
    outer loop
      vertex 117.096 135.132 201.359
      vertex 117.082 134.041 200.939
      vertex 117.972 135.018 201.531
    endloop
  endfacet
  facet normal 0.109615 -0.0944271 0.989479
    outer loop
      vertex 119.094 133.886 201.448
      vertex 119.108 135.013 201.554
      vertex 118.141 134.121 201.576
    endloop
  endfacet
  facet normal -0.0200167 0.046332 0.998726
    outer loop
      vertex 117.972 135.018 201.531
      vertex 118.141 134.121 201.576
      vertex 119.108 135.013 201.554
    endloop
  endfacet
  facet normal 0.607814 -0.253194 0.752632
    outer loop
      vertex 119.956 133.714 200.694
      vertex 120.153 134.719 200.873
      vertex 119.094 133.886 201.448
    endloop
  endfacet
  facet normal 0.526837 -0.0860772 0.845597
    outer loop
      vertex 119.108 135.013 201.554
      vertex 119.094 133.886 201.448
      vertex 120.153 134.719 200.873
    endloop
  endfacet
  facet normal 0.956257 -0.0237359 0.291562
    outer loop
      vertex 120.639 135.038 199.305
      vertex 120.153 134.719 200.873
      vertex 120.505 134.123 199.67
    endloop
  endfacet
  facet normal 0.892017 -0.242762 0.381277
    outer loop
      vertex 119.956 133.714 200.694
      vertex 120.505 134.123 199.67
      vertex 120.153 134.719 200.873
    endloop
  endfacet
  facet normal -0.571029 -0.36952 0.733062
    outer loop
      vertex 114.883 134.891 199.885
      vertex 115.096 136.137 200.679
      vertex 113.999 135.775 199.642
    endloop
  endfacet
  facet normal -0.555398 -0.377294 0.741068
    outer loop
      vertex 115.096 136.137 200.679
      vertex 114.883 134.891 199.885
      vertex 116.09 135.1 200.896
    endloop
  endfacet
  facet normal -0.49851 -0.308296 0.810211
    outer loop
      vertex 116.09 135.1 200.896
      vertex 116.132 136.149 201.321
      vertex 115.096 136.137 200.679
    endloop
  endfacet
  facet normal -0.412773 -0.108412 0.904359
    outer loop
      vertex 116.09 135.1 200.896
      vertex 117.096 135.132 201.359
      vertex 116.949 135.992 201.395
    endloop
  endfacet
  facet normal -0.153434 -0.36577 0.917971
    outer loop
      vertex 116.132 136.149 201.321
      vertex 116.09 135.1 200.896
      vertex 116.949 135.992 201.395
    endloop
  endfacet
  facet normal -0.188313 0.0338637 0.981525
    outer loop
      vertex 117.972 135.018 201.531
      vertex 117.957 136.036 201.493
      vertex 117.096 135.132 201.359
    endloop
  endfacet
  facet normal -0.0941098 -0.0576909 0.993889
    outer loop
      vertex 116.949 135.992 201.395
      vertex 117.096 135.132 201.359
      vertex 117.957 136.036 201.493
    endloop
  endfacet
  facet normal -0.0198425 0.0771562 0.996822
    outer loop
      vertex 119.108 135.013 201.554
      vertex 119.087 136.067 201.472
      vertex 117.972 135.018 201.531
    endloop
  endfacet
  facet normal 0.0175378 0.0375544 0.999141
    outer loop
      vertex 117.957 136.036 201.493
      vertex 117.972 135.018 201.531
      vertex 119.087 136.067 201.472
    endloop
  endfacet
  facet normal 0.554171 0.0443826 0.831219
    outer loop
      vertex 120.153 134.719 200.873
      vertex 120.17 135.799 200.804
      vertex 119.108 135.013 201.554
    endloop
  endfacet
  facet normal 0.537021 0.076061 0.840133
    outer loop
      vertex 119.087 136.067 201.472
      vertex 119.108 135.013 201.554
      vertex 120.17 135.799 200.804
    endloop
  endfacet
  facet normal 0.959304 0.0408479 0.279405
    outer loop
      vertex 120.639 135.038 199.305
      vertex 120.625 136.085 199.2
      vertex 120.17 135.799 200.804
    endloop
  endfacet
  facet normal 0.954937 0.00392961 0.296781
    outer loop
      vertex 120.153 134.719 200.873
      vertex 120.639 135.038 199.305
      vertex 120.17 135.799 200.804
    endloop
  endfacet
  facet normal -0.640878 -0.235545 0.730612
    outer loop
      vertex 113.953 136.812 199.894
      vertex 115.096 136.137 200.679
      vertex 114.919 137.332 200.909
    endloop
  endfacet
  facet normal -0.634486 -0.208979 0.744148
    outer loop
      vertex 113.999 135.775 199.642
      vertex 115.096 136.137 200.679
      vertex 113.953 136.812 199.894
    endloop
  endfacet
  facet normal -0.510027 -0.235025 0.827427
    outer loop
      vertex 115.096 136.137 200.679
      vertex 116.132 136.149 201.321
      vertex 115.97 137.004 201.464
    endloop
  endfacet
  facet normal -0.510196 -0.234814 0.827383
    outer loop
      vertex 114.919 137.332 200.909
      vertex 115.096 136.137 200.679
      vertex 115.97 137.004 201.464
    endloop
  endfacet
  facet normal -0.114031 -0.129106 0.985053
    outer loop
      vertex 116.949 135.992 201.395
      vertex 116.965 136.985 201.527
      vertex 116.132 136.149 201.321
    endloop
  endfacet
  facet normal -0.0655559 -0.176676 0.982084
    outer loop
      vertex 115.97 137.004 201.464
      vertex 116.132 136.149 201.321
      vertex 116.965 136.985 201.527
    endloop
  endfacet
  facet normal -0.095308 -0.0325303 0.994916
    outer loop
      vertex 117.957 136.036 201.493
      vertex 117.985 137.055 201.529
      vertex 116.949 135.992 201.395
    endloop
  endfacet
  facet normal 0.00710702 -0.131881 0.99124
    outer loop
      vertex 116.965 136.985 201.527
      vertex 116.949 135.992 201.395
      vertex 117.985 137.055 201.529
    endloop
  endfacet
  facet normal 0.0191986 -0.0227015 0.999558
    outer loop
      vertex 119.087 136.067 201.472
      vertex 119.111 137.1 201.495
      vertex 117.957 136.036 201.493
    endloop
  endfacet
  facet normal 0.0316055 -0.0361564 0.998846
    outer loop
      vertex 117.985 137.055 201.529
      vertex 117.957 136.036 201.493
      vertex 119.111 137.1 201.495
    endloop
  endfacet
  facet normal 0.519078 -0.0313833 0.85415
    outer loop
      vertex 120.17 135.799 200.804
      vertex 120.162 136.837 200.847
      vertex 119.087 136.067 201.472
    endloop
  endfacet
  facet normal 0.518921 -0.0310765 0.854257
    outer loop
      vertex 119.111 137.1 201.495
      vertex 119.087 136.067 201.472
      vertex 120.162 136.837 200.847
    endloop
  endfacet
  facet normal 0.959 -0.0273598 0.282083
    outer loop
      vertex 120.625 136.085 199.2
      vertex 120.63 137.116 199.283
      vertex 120.162 136.837 200.847
    endloop
  endfacet
  facet normal 0.962216 -0.00386263 0.272259
    outer loop
      vertex 120.17 135.799 200.804
      vertex 120.625 136.085 199.2
      vertex 120.162 136.837 200.847
    endloop
  endfacet
  facet normal -0.880016 0.0213111 0.474465
    outer loop
      vertex 114.031 138.133 199.226
      vertex 114.919 137.332 200.909
      vertex 114.95 138.434 200.917
    endloop
  endfacet
  facet normal -0.762539 0.327233 0.55808
    outer loop
      vertex 113.953 136.812 199.894
      vertex 114.919 137.332 200.909
      vertex 114.031 138.133 199.226
    endloop
  endfacet
  facet normal -0.479319 -0.0536054 0.876002
    outer loop
      vertex 115.97 137.004 201.464
      vertex 115.956 138.077 201.522
      vertex 114.919 137.332 200.909
    endloop
  endfacet
  facet normal -0.513215 0.00820679 0.858221
    outer loop
      vertex 114.95 138.434 200.917
      vertex 114.919 137.332 200.909
      vertex 115.956 138.077 201.522
    endloop
  endfacet
  facet normal -0.0635187 -0.0178069 0.997822
    outer loop
      vertex 116.965 136.985 201.527
      vertex 117.014 138.043 201.549
      vertex 115.97 137.004 201.464
    endloop
  endfacet
  facet normal -0.027218 -0.0543094 0.998153
    outer loop
      vertex 115.956 138.077 201.522
      vertex 115.97 137.004 201.464
      vertex 117.014 138.043 201.549
    endloop
  endfacet
  facet normal -0.0031859 0.0178564 0.999835
    outer loop
      vertex 117.985 137.055 201.529
      vertex 118.053 138.131 201.51
      vertex 116.965 136.985 201.527
    endloop
  endfacet
  facet normal 0.0394113 -0.0225978 0.998968
    outer loop
      vertex 117.014 138.043 201.549
      vertex 116.965 136.985 201.527
      vertex 118.053 138.131 201.51
    endloop
  endfacet
  facet normal 0.0298615 0.00799272 0.999522
    outer loop
      vertex 119.111 137.1 201.495
      vertex 119.162 138.16 201.485
      vertex 117.985 137.055 201.529
    endloop
  endfacet
  facet normal 0.0221093 0.0162541 0.999623
    outer loop
      vertex 118.053 138.131 201.51
      vertex 117.985 137.055 201.529
      vertex 119.162 138.16 201.485
    endloop
  endfacet
  facet normal 0.510223 -0.0725387 0.856978
    outer loop
      vertex 120.162 136.837 200.847
      vertex 120.192 137.875 200.917
      vertex 119.111 137.1 201.495
    endloop
  endfacet
  facet normal 0.479701 -0.0148034 0.877307
    outer loop
      vertex 119.162 138.16 201.485
      vertex 119.111 137.1 201.495
      vertex 120.192 137.875 200.917
    endloop
  endfacet
  facet normal 0.96222 -0.0278187 0.270849
    outer loop
      vertex 120.63 137.116 199.283
      vertex 120.657 138.157 199.294
      vertex 120.192 137.875 200.917
    endloop
  endfacet
  facet normal 0.95924 -0.046521 0.278737
    outer loop
      vertex 120.162 136.837 200.847
      vertex 120.63 137.116 199.283
      vertex 120.192 137.875 200.917
    endloop
  endfacet
  facet normal -0.828113 0.362203 0.427829
    outer loop
      vertex 114.579 139.028 199.696
      vertex 114.95 138.434 200.917
      vertex 115.111 139.323 200.476
    endloop
  endfacet
  facet normal -0.857574 0.309244 0.411016
    outer loop
      vertex 114.031 138.133 199.226
      vertex 114.95 138.434 200.917
      vertex 114.579 139.028 199.696
    endloop
  endfacet
  facet normal -0.343195 0.439576 0.830054
    outer loop
      vertex 115.956 138.077 201.522
      vertex 115.923 139.171 200.929
      vertex 114.95 138.434 200.917
    endloop
  endfacet
  facet normal -0.362931 0.46601 0.806918
    outer loop
      vertex 115.111 139.323 200.476
      vertex 114.95 138.434 200.917
      vertex 115.923 139.171 200.929
    endloop
  endfacet
  facet normal -0.00640477 0.492024 0.870558
    outer loop
      vertex 117.014 138.043 201.549
      vertex 116.997 139.138 200.93
      vertex 115.956 138.077 201.522
    endloop
  endfacet
  facet normal 0.0138325 0.476819 0.878893
    outer loop
      vertex 115.923 139.171 200.929
      vertex 115.956 138.077 201.522
      vertex 116.997 139.138 200.93
    endloop
  endfacet
  facet normal -0.0108152 0.509111 0.860633
    outer loop
      vertex 118.053 138.131 201.51
      vertex 118.05 139.201 200.877
      vertex 117.014 138.043 201.549
    endloop
  endfacet
  facet normal 0.0143572 0.492228 0.870348
    outer loop
      vertex 116.997 139.138 200.93
      vertex 117.014 138.043 201.549
      vertex 118.05 139.201 200.877
    endloop
  endfacet
  facet normal 0.00665805 0.494605 0.869092
    outer loop
      vertex 119.162 138.16 201.485
      vertex 119.143 139.204 200.891
      vertex 118.053 138.131 201.51
    endloop
  endfacet
  facet normal -0.0124208 0.509098 0.860619
    outer loop
      vertex 118.05 139.201 200.877
      vertex 118.053 138.131 201.51
      vertex 119.143 139.204 200.891
    endloop
  endfacet
  facet normal 0.519785 0.251177 0.816537
    outer loop
      vertex 120.192 137.875 200.917
      vertex 120.185 138.907 200.604
      vertex 119.162 138.16 201.485
    endloop
  endfacet
  facet normal 0.356046 0.467004 0.809406
    outer loop
      vertex 119.143 139.204 200.891
      vertex 119.162 138.16 201.485
      vertex 120.185 138.907 200.604
    endloop
  endfacet
  facet normal 0.950374 0.227568 0.212138
    outer loop
      vertex 120.657 138.157 199.294
      vertex 120.528 139.022 198.944
      vertex 120.185 138.907 200.604
    endloop
  endfacet
  facet normal 0.952594 0.0942022 0.289292
    outer loop
      vertex 120.192 137.875 200.917
      vertex 120.657 138.157 199.294
      vertex 120.185 138.907 200.604
    endloop
  endfacet
  facet normal -0.66519 0.724756 0.179587
    outer loop
      vertex 115.119 139.677 199.077
      vertex 114.579 139.028 199.696
      vertex 115.111 139.323 200.476
    endloop
  endfacet
  facet normal -0.418653 0.880965 0.220523
    outer loop
      vertex 115.767 139.834 199.68
      vertex 115.119 139.677 199.077
      vertex 115.111 139.323 200.476
    endloop
  endfacet
  facet normal -0.102267 0.873294 0.476339
    outer loop
      vertex 115.767 139.834 199.68
      vertex 115.111 139.323 200.476
      vertex 115.923 139.171 200.929
    endloop
  endfacet
  facet normal 0.0845557 0.884443 0.458923
    outer loop
      vertex 116.734 139.905 199.365
      vertex 115.767 139.834 199.68
      vertex 115.923 139.171 200.929
    endloop
  endfacet
  facet normal 0.0272298 0.899424 0.436228
    outer loop
      vertex 116.734 139.905 199.365
      vertex 115.923 139.171 200.929
      vertex 116.997 139.138 200.93
    endloop
  endfacet
  facet normal 0.0140662 0.8988 0.438134
    outer loop
      vertex 117.816 139.949 199.24
      vertex 116.734 139.905 199.365
      vertex 116.997 139.138 200.93
    endloop
  endfacet
  facet normal -0.0331756 0.907245 0.419293
    outer loop
      vertex 117.816 139.949 199.24
      vertex 116.997 139.138 200.93
      vertex 118.05 139.201 200.877
    endloop
  endfacet
  facet normal -0.0248679 0.907917 0.418412
    outer loop
      vertex 118.876 139.949 199.303
      vertex 117.816 139.949 199.24
      vertex 118.05 139.201 200.877
    endloop
  endfacet
  facet normal -0.00793744 0.90478 0.425806
    outer loop
      vertex 118.876 139.949 199.303
      vertex 118.05 139.201 200.877
      vertex 119.143 139.204 200.891
    endloop
  endfacet
  facet normal 0.250915 0.891899 0.376241
    outer loop
      vertex 119.899 139.665 199.294
      vertex 118.876 139.949 199.303
      vertex 119.143 139.204 200.891
    endloop
  endfacet
  facet normal 0.35265 0.841258 0.409783
    outer loop
      vertex 119.899 139.665 199.294
      vertex 119.143 139.204 200.891
      vertex 120.185 138.907 200.604
    endloop
  endfacet
  facet normal 0.752504 0.62781 0.19898
    outer loop
      vertex 120.528 139.022 198.944
      vertex 119.899 139.665 199.294
      vertex 120.185 138.907 200.604
    endloop
  endfacet
endsolid
