solid ascii
  facet normal -0.555301 -0.434672 -0.709014
    outer loop
      vertex 86.1626 128.158 143.845
      vertex 85.6765 126.988 144.943
      vertex 84.7349 128.049 145.03
    endloop
  endfacet
  facet normal -0.0831576 -0.638947 -0.764743
    outer loop
      vertex 87.3852 128.03 143.819
      vertex 86.7438 126.992 144.756
      vertex 86.1626 128.158 143.845
    endloop
  endfacet
  facet normal -0.128842 -0.649622 -0.74926
    outer loop
      vertex 85.6765 126.988 144.943
      vertex 86.1626 128.158 143.845
      vertex 86.7438 126.992 144.756
    endloop
  endfacet
  facet normal 0.44029 -0.516649 -0.734315
    outer loop
      vertex 88.2914 128.184 144.254
      vertex 87.9349 127.107 144.798
      vertex 87.3852 128.03 143.819
    endloop
  endfacet
  facet normal 0.0924352 -0.698068 -0.71004
    outer loop
      vertex 86.7438 126.992 144.756
      vertex 87.3852 128.03 143.819
      vertex 87.9349 127.107 144.798
    endloop
  endfacet
  facet normal 0.502087 -0.516543 -0.693608
    outer loop
      vertex 88.2914 128.184 144.254
      vertex 88.9051 127.854 144.944
      vertex 87.9349 127.107 144.798
    endloop
  endfacet
  facet normal -0.803437 -0.250206 -0.540265
    outer loop
      vertex 84.4276 129.31 144.903
      vertex 85.2437 129.151 143.763
      vertex 84.7349 128.049 145.03
    endloop
  endfacet
  facet normal -0.515986 -0.532866 -0.67068
    outer loop
      vertex 86.1626 128.158 143.845
      vertex 84.7349 128.049 145.03
      vertex 85.2437 129.151 143.763
    endloop
  endfacet
  facet normal -0.424042 -0.456967 -0.781901
    outer loop
      vertex 85.2437 129.151 143.763
      vertex 86.1982 129.321 143.146
      vertex 86.1626 128.158 143.845
    endloop
  endfacet
  facet normal -0.0716804 -0.510619 -0.856814
    outer loop
      vertex 86.1626 128.158 143.845
      vertex 87.1221 129.114 143.195
      vertex 87.3852 128.03 143.819
    endloop
  endfacet
  facet normal -0.0693931 -0.512343 -0.855973
    outer loop
      vertex 87.1221 129.114 143.195
      vertex 86.1626 128.158 143.845
      vertex 86.1982 129.321 143.146
    endloop
  endfacet
  facet normal 0.453259 -0.341962 -0.823175
    outer loop
      vertex 87.3852 128.03 143.819
      vertex 88.1073 129.081 143.78
      vertex 88.2914 128.184 144.254
    endloop
  endfacet
  facet normal 0.46907 -0.35233 -0.809837
    outer loop
      vertex 88.1073 129.081 143.78
      vertex 87.3852 128.03 143.819
      vertex 87.1221 129.114 143.195
    endloop
  endfacet
  facet normal 0.775418 0.171187 -0.607801
    outer loop
      vertex 88.9051 127.854 144.944
      vertex 88.2914 128.184 144.254
      vertex 88.9958 129.119 145.416
    endloop
  endfacet
  facet normal 0.877248 -0.0708419 -0.474782
    outer loop
      vertex 88.9958 129.119 145.416
      vertex 88.2914 128.184 144.254
      vertex 88.1073 129.081 143.78
    endloop
  endfacet
  facet normal -0.815584 -0.100604 -0.569826
    outer loop
      vertex 84.4276 129.31 144.903
      vertex 84.7979 129.967 144.257
      vertex 85.2437 129.151 143.763
    endloop
  endfacet
  facet normal -0.926407 0.226116 -0.301068
    outer loop
      vertex 84.7979 129.967 144.257
      vertex 84.4276 129.31 144.903
      vertex 84.389 130.004 145.543
    endloop
  endfacet
  facet normal -0.556855 0.233125 -0.797224
    outer loop
      vertex 86.1982 129.321 143.146
      vertex 85.2437 129.151 143.763
      vertex 85.6691 130.109 143.746
    endloop
  endfacet
  facet normal -0.519952 0.21622 -0.826377
    outer loop
      vertex 85.6691 130.109 143.746
      vertex 85.2437 129.151 143.763
      vertex 84.7979 129.967 144.257
    endloop
  endfacet
  facet normal 0.148715 0.456054 -0.877439
    outer loop
      vertex 86.1982 129.321 143.146
      vertex 86.7627 130.122 143.658
      vertex 87.1221 129.114 143.195
    endloop
  endfacet
  facet normal -0.072504 0.572933 -0.816389
    outer loop
      vertex 86.7627 130.122 143.658
      vertex 86.1982 129.321 143.146
      vertex 85.6691 130.109 143.746
    endloop
  endfacet
  facet normal 0.492083 0.316836 -0.810845
    outer loop
      vertex 87.1221 129.114 143.195
      vertex 87.7863 130.053 143.965
      vertex 88.1073 129.081 143.78
    endloop
  endfacet
  facet normal 0.281398 0.481573 -0.830002
    outer loop
      vertex 87.7863 130.053 143.965
      vertex 87.1221 129.114 143.195
      vertex 86.7627 130.122 143.658
    endloop
  endfacet
  facet normal 0.844422 0.266318 -0.464786
    outer loop
      vertex 88.1073 129.081 143.78
      vertex 88.4243 129.952 144.855
      vertex 88.9958 129.119 145.416
    endloop
  endfacet
  facet normal 0.778281 0.355533 -0.517567
    outer loop
      vertex 88.4243 129.952 144.855
      vertex 88.1073 129.081 143.78
      vertex 87.7863 130.053 143.965
    endloop
  endfacet
  facet normal -0.689984 0.683212 -0.239046
    outer loop
      vertex 84.389 130.004 145.543
      vertex 85.0384 130.466 144.989
      vertex 84.7979 129.967 144.257
    endloop
  endfacet
  facet normal -0.385298 0.816483 -0.430001
    outer loop
      vertex 85.6691 130.109 143.746
      vertex 84.7979 129.967 144.257
      vertex 85.0384 130.466 144.989
    endloop
  endfacet
  facet normal -0.0772073 0.947197 -0.311218
    outer loop
      vertex 85.0384 130.466 144.989
      vertex 85.9389 130.613 145.213
      vertex 85.6691 130.109 143.746
    endloop
  endfacet
  facet normal -0.036898 0.947164 -0.31862
    outer loop
      vertex 86.7627 130.122 143.658
      vertex 85.6691 130.109 143.746
      vertex 85.9389 130.613 145.213
    endloop
  endfacet
  facet normal 0.014346 0.955651 -0.294152
    outer loop
      vertex 85.9389 130.613 145.213
      vertex 87.0569 130.635 145.339
      vertex 86.7627 130.122 143.658
    endloop
  endfacet
  facet normal 0.157102 0.936565 -0.313312
    outer loop
      vertex 87.7863 130.053 143.965
      vertex 86.7627 130.122 143.658
      vertex 87.0569 130.635 145.339
    endloop
  endfacet
  facet normal 0.189062 0.936226 -0.296202
    outer loop
      vertex 87.0569 130.635 145.339
      vertex 87.9095 130.528 145.545
      vertex 87.7863 130.053 143.965
    endloop
  endfacet
  facet normal 0.521739 0.804915 -0.282666
    outer loop
      vertex 88.4243 129.952 144.855
      vertex 87.7863 130.053 143.965
      vertex 87.9095 130.528 145.545
    endloop
  endfacet
  facet normal -0.466164 -0.717157 -0.518051
    outer loop
      vertex 85.0514 124.108 145.989
      vertex 84.9299 122.925 147.736
      vertex 83.9174 123.979 147.188
    endloop
  endfacet
  facet normal -0.191404 -0.791362 -0.580612
    outer loop
      vertex 86.1936 123.955 145.821
      vertex 85.953 122.92 147.311
      vertex 85.0514 124.108 145.989
    endloop
  endfacet
  facet normal -0.234926 -0.797181 -0.556158
    outer loop
      vertex 84.9299 122.925 147.736
      vertex 85.0514 124.108 145.989
      vertex 85.953 122.92 147.311
    endloop
  endfacet
  facet normal 0.00521672 -0.813288 -0.581838
    outer loop
      vertex 87.1974 123.955 145.83
      vertex 86.9618 122.919 147.276
      vertex 86.1936 123.955 145.821
    endloop
  endfacet
  facet normal -0.0206795 -0.819555 -0.572627
    outer loop
      vertex 85.953 122.92 147.311
      vertex 86.1936 123.955 145.821
      vertex 86.9618 122.919 147.276
    endloop
  endfacet
  facet normal 0.180864 -0.772464 -0.608759
    outer loop
      vertex 88.0691 124.126 145.872
      vertex 88.0814 123.024 147.274
      vertex 87.1974 123.955 145.83
    endloop
  endfacet
  facet normal 0.0755383 -0.816361 -0.572581
    outer loop
      vertex 86.9618 122.919 147.276
      vertex 87.1974 123.955 145.83
      vertex 88.0814 123.024 147.274
    endloop
  endfacet
  facet normal 0.294502 -0.750077 -0.592159
    outer loop
      vertex 88.0691 124.126 145.872
      vertex 88.9707 123.925 146.575
      vertex 88.0814 123.024 147.274
    endloop
  endfacet
  facet normal -0.732328 -0.440996 -0.518862
    outer loop
      vertex 83.2771 125.007 147.218
      vertex 84.2569 125.013 145.83
      vertex 83.9174 123.979 147.188
    endloop
  endfacet
  facet normal -0.554131 -0.589696 -0.587535
    outer loop
      vertex 85.0514 124.108 145.989
      vertex 83.9174 123.979 147.188
      vertex 84.2569 125.013 145.83
    endloop
  endfacet
  facet normal -0.370135 -0.466122 -0.803573
    outer loop
      vertex 84.2569 125.013 145.83
      vertex 85.1417 125.181 145.325
      vertex 85.0514 124.108 145.989
    endloop
  endfacet
  facet normal -0.188525 -0.447539 -0.874166
    outer loop
      vertex 85.0514 124.108 145.989
      vertex 85.9569 125.004 145.335
      vertex 86.1936 123.955 145.821
    endloop
  endfacet
  facet normal -0.101887 -0.517265 -0.849738
    outer loop
      vertex 85.9569 125.004 145.335
      vertex 85.0514 124.108 145.989
      vertex 85.1417 125.181 145.325
    endloop
  endfacet
  facet normal 0.00797081 -0.457815 -0.889012
    outer loop
      vertex 86.1936 123.955 145.821
      vertex 86.9471 124.974 145.303
      vertex 87.1974 123.955 145.83
    endloop
  endfacet
  facet normal -0.0421397 -0.427813 -0.902884
    outer loop
      vertex 86.9471 124.974 145.303
      vertex 86.1936 123.955 145.821
      vertex 85.9569 125.004 145.335
    endloop
  endfacet
  facet normal 0.143789 -0.527305 -0.837421
    outer loop
      vertex 87.1974 123.955 145.83
      vertex 87.9341 124.996 145.301
      vertex 88.0691 124.126 145.872
    endloop
  endfacet
  facet normal 0.00840118 -0.45773 -0.889051
    outer loop
      vertex 87.9341 124.996 145.301
      vertex 87.1974 123.955 145.83
      vertex 86.9471 124.974 145.303
    endloop
  endfacet
  facet normal 0.420395 -0.573482 -0.703126
    outer loop
      vertex 88.9707 123.925 146.575
      vertex 88.0691 124.126 145.872
      vertex 88.9468 124.995 145.688
    endloop
  endfacet
  facet normal 0.311319 -0.487196 -0.815917
    outer loop
      vertex 88.9468 124.995 145.688
      vertex 88.0691 124.126 145.872
      vertex 87.9341 124.996 145.301
    endloop
  endfacet
  facet normal 0.530633 -0.533884 -0.658329
    outer loop
      vertex 88.9468 124.995 145.688
      vertex 90.0725 124.972 146.614
      vertex 88.9707 123.925 146.575
    endloop
  endfacet
  facet normal -0.79957 -0.202791 -0.565299
    outer loop
      vertex 83.2771 125.007 147.218
      vertex 84.0018 125.977 145.845
      vertex 84.2569 125.013 145.83
    endloop
  endfacet
  facet normal -0.815015 -0.173595 -0.552825
    outer loop
      vertex 84.0018 125.977 145.845
      vertex 83.2771 125.007 147.218
      vertex 83.0382 126.049 147.243
    endloop
  endfacet
  facet normal -0.472844 -0.129576 -0.871567
    outer loop
      vertex 85.1417 125.181 145.325
      vertex 84.2569 125.013 145.83
      vertex 84.9826 125.997 145.29
    endloop
  endfacet
  facet normal -0.487402 -0.115512 -0.865503
    outer loop
      vertex 84.9826 125.997 145.29
      vertex 84.2569 125.013 145.83
      vertex 84.0018 125.977 145.845
    endloop
  endfacet
  facet normal -0.00738271 -0.0902672 -0.99589
    outer loop
      vertex 85.1417 125.181 145.325
      vertex 85.9562 125.997 145.245
      vertex 85.9569 125.004 145.335
    endloop
  endfacet
  facet normal -0.046109 -0.0517791 -0.997594
    outer loop
      vertex 85.9562 125.997 145.245
      vertex 85.1417 125.181 145.325
      vertex 84.9826 125.997 145.29
    endloop
  endfacet
  facet normal -0.0339695 -0.0568976 -0.997802
    outer loop
      vertex 85.9569 125.004 145.335
      vertex 86.949 125.99 145.245
      vertex 86.9471 124.974 145.303
    endloop
  endfacet
  facet normal -0.000636437 -0.0902649 -0.995918
    outer loop
      vertex 86.949 125.99 145.245
      vertex 85.9569 125.004 145.335
      vertex 85.9562 125.997 145.245
    endloop
  endfacet
  facet normal 0.000230452 -0.100785 -0.994908
    outer loop
      vertex 86.9471 124.974 145.303
      vertex 87.9774 126.003 145.199
      vertex 87.9341 124.996 145.301
    endloop
  endfacet
  facet normal -0.0438954 -0.0568571 -0.997417
    outer loop
      vertex 87.9774 126.003 145.199
      vertex 86.9471 124.974 145.303
      vertex 86.949 125.99 145.245
    endloop
  endfacet
  facet normal 0.334836 -0.344386 -0.877088
    outer loop
      vertex 87.9341 124.996 145.301
      vertex 89.018 126.004 145.319
      vertex 88.9468 124.995 145.688
    endloop
  endfacet
  facet normal 0.114026 -0.10497 -0.987917
    outer loop
      vertex 89.018 126.004 145.319
      vertex 87.9341 124.996 145.301
      vertex 87.9774 126.003 145.199
    endloop
  endfacet
  facet normal 0.577843 -0.398308 -0.712353
    outer loop
      vertex 90.0725 124.972 146.614
      vertex 88.9468 124.995 145.688
      vertex 90.1145 126.013 146.066
    endloop
  endfacet
  facet normal 0.5346 -0.32328 -0.780829
    outer loop
      vertex 90.1145 126.013 146.066
      vertex 88.9468 124.995 145.688
      vertex 89.018 126.004 145.319
    endloop
  endfacet
  facet normal 0.778853 -0.316481 -0.541505
    outer loop
      vertex 90.1145 126.013 146.066
      vertex 91.1651 126.02 147.573
      vertex 90.0725 124.972 146.614
    endloop
  endfacet
  facet normal -0.823085 -0.0680986 -0.563821
    outer loop
      vertex 83.0382 126.049 147.243
      vertex 83.8876 126.993 145.889
      vertex 84.0018 125.977 145.845
    endloop
  endfacet
  facet normal -0.862221 0.0533207 -0.503719
    outer loop
      vertex 83.8876 126.993 145.889
      vertex 83.0382 126.049 147.243
      vertex 82.8803 127.18 147.633
    endloop
  endfacet
  facet normal -0.481479 -0.181678 -0.857421
    outer loop
      vertex 84.0018 125.977 145.845
      vertex 84.7652 126.828 145.236
      vertex 84.9826 125.997 145.29
    endloop
  endfacet
  facet normal -0.600605 -0.0329123 -0.798868
    outer loop
      vertex 84.7652 126.828 145.236
      vertex 84.0018 125.977 145.845
      vertex 83.8876 126.993 145.889
    endloop
  endfacet
  facet normal -0.0440068 -0.302569 -0.952111
    outer loop
      vertex 84.9826 125.997 145.29
      vertex 85.6765 126.988 144.943
      vertex 85.9562 125.997 145.245
    endloop
  endfacet
  facet normal -0.281642 -0.135409 -0.949917
    outer loop
      vertex 85.6765 126.988 144.943
      vertex 84.9826 125.997 145.29
      vertex 84.7652 126.828 145.236
    endloop
  endfacet
  facet normal -0.00309594 -0.439093 -0.898437
    outer loop
      vertex 85.9562 125.997 145.245
      vertex 86.7438 126.992 144.756
      vertex 86.949 125.99 145.245
    endloop
  endfacet
  facet normal -0.161765 -0.329163 -0.930314
    outer loop
      vertex 86.7438 126.992 144.756
      vertex 85.9562 125.997 145.245
      vertex 85.6765 126.988 144.943
    endloop
  endfacet
  facet normal -0.0376628 -0.34244 -0.938785
    outer loop
      vertex 86.949 125.99 145.245
      vertex 87.9349 127.107 144.798
      vertex 87.9774 126.003 145.199
    endloop
  endfacet
  facet normal 0.0728743 -0.425324 -0.902103
    outer loop
      vertex 87.9349 127.107 144.798
      vertex 86.949 125.99 145.245
      vertex 86.7438 126.992 144.756
    endloop
  endfacet
  facet normal 0.114021 -0.105364 -0.987875
    outer loop
      vertex 87.9774 126.003 145.199
      vertex 89.0386 126.992 145.216
      vertex 89.018 126.004 145.319
    endloop
  endfacet
  facet normal 0.307393 -0.314395 -0.898146
    outer loop
      vertex 89.0386 126.992 145.216
      vertex 87.9774 126.003 145.199
      vertex 87.9349 127.107 144.798
    endloop
  endfacet
  facet normal 0.556032 -0.167208 -0.814168
    outer loop
      vertex 89.018 126.004 145.319
      vertex 90.1419 127.039 145.874
      vertex 90.1145 126.013 146.066
    endloop
  endfacet
  facet normal 0.512795 -0.0995883 -0.852715
    outer loop
      vertex 90.1419 127.039 145.874
      vertex 89.018 126.004 145.319
      vertex 89.0386 126.992 145.216
    endloop
  endfacet
  facet normal 0.808998 -0.168282 -0.563208
    outer loop
      vertex 91.1651 126.02 147.573
      vertex 90.1145 126.013 146.066
      vertex 91.22 127.047 147.345
    endloop
  endfacet
  facet normal 0.799965 -0.130947 -0.585584
    outer loop
      vertex 91.22 127.047 147.345
      vertex 90.1145 126.013 146.066
      vertex 90.1419 127.039 145.874
    endloop
  endfacet
  facet normal -0.86201 0.055554 -0.503837
    outer loop
      vertex 82.8803 127.18 147.633
      vertex 83.6914 127.921 146.327
      vertex 83.8876 126.993 145.889
    endloop
  endfacet
  facet normal -0.879834 0.238631 -0.411032
    outer loop
      vertex 83.6914 127.921 146.327
      vertex 82.8803 127.18 147.633
      vertex 83.144 128.247 147.688
    endloop
  endfacet
  facet normal -0.6081 -0.146719 -0.780184
    outer loop
      vertex 83.8876 126.993 145.889
      vertex 84.7349 128.049 145.03
      vertex 84.7652 126.828 145.236
    endloop
  endfacet
  facet normal -0.779001 0.125279 -0.61438
    outer loop
      vertex 84.7349 128.049 145.03
      vertex 83.8876 126.993 145.889
      vertex 83.6914 127.921 146.327
    endloop
  endfacet
  facet normal -0.275184 -0.166576 -0.946851
    outer loop
      vertex 85.6765 126.988 144.943
      vertex 84.7652 126.828 145.236
      vertex 84.7349 128.049 145.03
    endloop
  endfacet
  facet normal 0.322003 -0.239179 -0.916028
    outer loop
      vertex 89.0386 126.992 145.216
      vertex 87.9349 127.107 144.798
      vertex 88.9051 127.854 144.944
    endloop
  endfacet
  facet normal 0.511034 0.0301682 -0.859031
    outer loop
      vertex 89.0386 126.992 145.216
      vertex 89.8557 128.043 145.739
      vertex 90.1419 127.039 145.874
    endloop
  endfacet
  facet normal 0.65131 -0.134763 -0.746749
    outer loop
      vertex 89.8557 128.043 145.739
      vertex 89.0386 126.992 145.216
      vertex 88.9051 127.854 144.944
    endloop
  endfacet
  facet normal 0.803493 0.0841283 -0.58934
    outer loop
      vertex 90.1419 127.039 145.874
      vertex 91.0844 128.223 147.328
      vertex 91.22 127.047 147.345
    endloop
  endfacet
  facet normal 0.775825 0.138384 -0.615585
    outer loop
      vertex 91.0844 128.223 147.328
      vertex 90.1419 127.039 145.874
      vertex 89.8557 128.043 145.739
    endloop
  endfacet
  facet normal -0.836424 0.351425 -0.42059
    outer loop
      vertex 83.144 128.247 147.688
      vertex 83.9135 129.133 146.898
      vertex 83.6914 127.921 146.327
    endloop
  endfacet
  facet normal -0.931106 -0.253335 -0.262417
    outer loop
      vertex 84.7349 128.049 145.03
      vertex 83.9135 129.133 146.898
      vertex 84.4276 129.31 144.903
    endloop
  endfacet
  facet normal -0.734523 0.394666 -0.55201
    outer loop
      vertex 84.7349 128.049 145.03
      vertex 83.6914 127.921 146.327
      vertex 83.9135 129.133 146.898
    endloop
  endfacet
  facet normal 0.727479 0.418054 -0.544064
    outer loop
      vertex 89.8557 128.043 145.739
      vertex 88.9958 129.119 145.416
      vertex 90.16 129.191 147.028
    endloop
  endfacet
  facet normal 0.593208 0.24375 -0.767261
    outer loop
      vertex 88.9958 129.119 145.416
      vertex 89.8557 128.043 145.739
      vertex 88.9051 127.854 144.944
    endloop
  endfacet
  facet normal 0.673792 0.465626 -0.573757
    outer loop
      vertex 91.0844 128.223 147.328
      vertex 89.8557 128.043 145.739
      vertex 90.16 129.191 147.028
    endloop
  endfacet
  facet normal -0.797121 0.595013 0.10275
    outer loop
      vertex 84.389 130.004 145.543
      vertex 83.9135 129.133 146.898
      vertex 84.809 130.299 147.093
    endloop
  endfacet
  facet normal -0.959039 0.161365 -0.232822
    outer loop
      vertex 83.9135 129.133 146.898
      vertex 84.389 130.004 145.543
      vertex 84.4276 129.31 144.903
    endloop
  endfacet
  facet normal 0.495733 0.79256 -0.355102
    outer loop
      vertex 88.1608 130.381 147.067
      vertex 89.0926 130.136 147.821
      vertex 88.9958 129.119 145.416
    endloop
  endfacet
  facet normal 0.82774 0.56102 -0.0102026
    outer loop
      vertex 88.1608 130.381 147.067
      vertex 88.9958 129.119 145.416
      vertex 88.4243 129.952 144.855
    endloop
  endfacet
  facet normal 0.45195 0.814934 -0.362801
    outer loop
      vertex 90.16 129.191 147.028
      vertex 88.9958 129.119 145.416
      vertex 89.0926 130.136 147.821
    endloop
  endfacet
  facet normal -0.578773 0.815487 0.00162341
    outer loop
      vertex 85.0384 130.466 144.989
      vertex 84.389 130.004 145.543
      vertex 84.809 130.299 147.093
    endloop
  endfacet
  facet normal -0.175088 0.982788 0.0589165
    outer loop
      vertex 85.9389 130.613 145.213
      vertex 85.0384 130.466 144.989
      vertex 84.809 130.299 147.093
    endloop
  endfacet
  facet normal -0.272579 0.962128 -0.00312705
    outer loop
      vertex 84.809 130.299 147.093
      vertex 85.9846 130.633 147.383
      vertex 85.9389 130.613 145.213
    endloop
  endfacet
  facet normal -0.0186796 0.999787 -0.00882123
    outer loop
      vertex 87.0569 130.635 145.339
      vertex 85.9389 130.613 145.213
      vertex 85.9846 130.633 147.383
    endloop
  endfacet
  facet normal -0.0493295 0.998472 -0.0249017
    outer loop
      vertex 85.9846 130.633 147.383
      vertex 87.0609 130.686 147.376
      vertex 87.0569 130.635 145.339
    endloop
  endfacet
  facet normal 0.130444 0.991139 -0.0250711
    outer loop
      vertex 87.9095 130.528 145.545
      vertex 87.0569 130.635 145.339
      vertex 87.0609 130.686 147.376
    endloop
  endfacet
  facet normal 0.279051 0.959147 0.0465632
    outer loop
      vertex 87.0609 130.686 147.376
      vertex 88.1608 130.381 147.067
      vertex 87.9095 130.528 145.545
    endloop
  endfacet
  facet normal 0.713894 0.698436 -0.050415
    outer loop
      vertex 88.4243 129.952 144.855
      vertex 87.9095 130.528 145.545
      vertex 88.1608 130.381 147.067
    endloop
  endfacet
  facet normal -0.398822 -0.803845 -0.441332
    outer loop
      vertex 84.9905 121.899 149.55
      vertex 83.8969 122.911 148.695
      vertex 84.9299 122.925 147.736
    endloop
  endfacet
  facet normal -0.183821 -0.882881 -0.432124
    outer loop
      vertex 85.953 122.92 147.311
      vertex 86.0007 121.916 149.342
      vertex 84.9299 122.925 147.736
    endloop
  endfacet
  facet normal -0.0859293 -0.868428 -0.488313
    outer loop
      vertex 84.9905 121.899 149.55
      vertex 84.9299 122.925 147.736
      vertex 86.0007 121.916 149.342
    endloop
  endfacet
  facet normal -0.01491 -0.914809 -0.403611
    outer loop
      vertex 86.9618 122.919 147.276
      vertex 86.9701 122.01 149.336
      vertex 85.953 122.92 147.311
    endloop
  endfacet
  facet normal 0.0838014 -0.892512 -0.44317
    outer loop
      vertex 86.0007 121.916 149.342
      vertex 85.953 122.92 147.311
      vertex 86.9701 122.01 149.336
    endloop
  endfacet
  facet normal 0.0858785 -0.922862 -0.375435
    outer loop
      vertex 88.0814 123.024 147.274
      vertex 87.9817 122.136 149.434
      vertex 86.9618 122.919 147.276
    endloop
  endfacet
  facet normal 0.151322 -0.904128 -0.399567
    outer loop
      vertex 86.9701 122.01 149.336
      vertex 86.9618 122.919 147.276
      vertex 87.9817 122.136 149.434
    endloop
  endfacet
  facet normal 0.0557467 -0.919751 -0.388522
    outer loop
      vertex 89.3183 122.881 147.79
      vertex 89.0639 122.199 149.368
      vertex 88.0814 123.024 147.274
    endloop
  endfacet
  facet normal 0.0307416 -0.924952 -0.378839
    outer loop
      vertex 87.9817 122.136 149.434
      vertex 88.0814 123.024 147.274
      vertex 89.0639 122.199 149.368
    endloop
  endfacet
  facet normal 0.395631 -0.764313 -0.509217
    outer loop
      vertex 90.2812 123.001 148.358
      vertex 89.9451 122.344 149.083
      vertex 89.3183 122.881 147.79
    endloop
  endfacet
  facet normal 0.0240154 -0.919077 -0.393346
    outer loop
      vertex 89.0639 122.199 149.368
      vertex 89.3183 122.881 147.79
      vertex 89.9451 122.344 149.083
    endloop
  endfacet
  facet normal 0.673596 -0.675524 -0.299895
    outer loop
      vertex 90.2812 123.001 148.358
      vertex 90.6401 122.756 149.716
      vertex 89.9451 122.344 149.083
    endloop
  endfacet
  facet normal -0.715248 -0.565572 -0.410546
    outer loop
      vertex 83.9174 123.979 147.188
      vertex 83.8969 122.911 148.695
      vertex 82.7229 123.995 149.247
    endloop
  endfacet
  facet normal -0.468451 -0.717808 -0.515078
    outer loop
      vertex 84.9299 122.925 147.736
      vertex 83.8969 122.911 148.695
      vertex 83.9174 123.979 147.188
    endloop
  endfacet
  facet normal 0.197163 -0.714985 -0.670764
    outer loop
      vertex 89.3183 122.881 147.79
      vertex 88.0814 123.024 147.274
      vertex 88.9707 123.925 146.575
    endloop
  endfacet
  facet normal 0.466188 -0.580402 -0.667684
    outer loop
      vertex 89.3183 122.881 147.79
      vertex 90.1358 123.9 147.475
      vertex 90.2812 123.001 148.358
    endloop
  endfacet
  facet normal 0.485915 -0.589344 -0.645415
    outer loop
      vertex 90.1358 123.9 147.475
      vertex 89.3183 122.881 147.79
      vertex 88.9707 123.925 146.575
    endloop
  endfacet
  facet normal 0.895351 -0.332253 -0.296571
    outer loop
      vertex 90.6401 122.756 149.716
      vertex 90.2812 123.001 148.358
      vertex 91.019 123.977 149.492
    endloop
  endfacet
  facet normal 0.894396 -0.231337 -0.382805
    outer loop
      vertex 91.019 123.977 149.492
      vertex 90.2812 123.001 148.358
      vertex 90.1358 123.9 147.475
    endloop
  endfacet
  facet normal -0.767319 -0.465047 -0.441535
    outer loop
      vertex 83.2771 125.007 147.218
      vertex 83.9174 123.979 147.188
      vertex 82.7229 123.995 149.247
    endloop
  endfacet
  facet normal -0.875932 -0.291316 -0.38455
    outer loop
      vertex 82.7229 123.995 149.247
      vertex 82.4075 125.276 148.995
      vertex 83.2771 125.007 147.218
    endloop
  endfacet
  facet normal 0.516056 -0.517646 -0.682443
    outer loop
      vertex 90.1358 123.9 147.475
      vertex 88.9707 123.925 146.575
      vertex 90.0725 124.972 146.614
    endloop
  endfacet
  facet normal 0.78145 -0.534602 -0.321771
    outer loop
      vertex 90.1358 123.9 147.475
      vertex 91.124 124.996 148.054
      vertex 91.019 123.977 149.492
    endloop
  endfacet
  facet normal 0.747123 -0.388853 -0.539074
    outer loop
      vertex 91.124 124.996 148.054
      vertex 90.1358 123.9 147.475
      vertex 90.0725 124.972 146.614
    endloop
  endfacet
  facet normal 0.933276 -0.321657 -0.159787
    outer loop
      vertex 91.019 123.977 149.492
      vertex 91.124 124.996 148.054
      vertex 91.4859 125.208 149.741
    endloop
  endfacet
  facet normal -0.917837 -0.113362 -0.380427
    outer loop
      vertex 83.0382 126.049 147.243
      vertex 82.4075 125.276 148.995
      vertex 82.3147 126.222 148.937
    endloop
  endfacet
  facet normal -0.892328 -0.194815 -0.407182
    outer loop
      vertex 83.0382 126.049 147.243
      vertex 83.2771 125.007 147.218
      vertex 82.4075 125.276 148.995
    endloop
  endfacet
  facet normal 0.774168 -0.294307 -0.560399
    outer loop
      vertex 91.124 124.996 148.054
      vertex 90.0725 124.972 146.614
      vertex 91.1651 126.02 147.573
    endloop
  endfacet
  facet normal 0.957217 -0.229286 -0.176531
    outer loop
      vertex 91.124 124.996 148.054
      vertex 91.6448 126.06 149.496
      vertex 91.4859 125.208 149.741
    endloop
  endfacet
  facet normal 0.960079 -0.14957 -0.236384
    outer loop
      vertex 91.6448 126.06 149.496
      vertex 91.124 124.996 148.054
      vertex 91.1651 126.02 147.573
    endloop
  endfacet
  facet normal -0.919342 0.00730243 -0.393393
    outer loop
      vertex 82.8803 127.18 147.633
      vertex 83.0382 126.049 147.243
      vertex 82.3147 126.222 148.937
    endloop
  endfacet
  facet normal -0.943311 0.225797 -0.243269
    outer loop
      vertex 82.3147 126.222 148.937
      vertex 82.2565 127.039 149.921
      vertex 82.8803 127.18 147.633
    endloop
  endfacet
  facet normal 0.953151 -0.191969 -0.233774
    outer loop
      vertex 91.1651 126.02 147.573
      vertex 91.8211 127.062 149.392
      vertex 91.6448 126.06 149.496
    endloop
  endfacet
  facet normal 0.95357 -0.112956 -0.279187
    outer loop
      vertex 91.8211 127.062 149.392
      vertex 91.1651 126.02 147.573
      vertex 91.22 127.047 147.345
    endloop
  endfacet
  facet normal -0.946174 0.211579 -0.244926
    outer loop
      vertex 82.8803 127.18 147.633
      vertex 82.2565 127.039 149.921
      vertex 82.6717 127.928 149.085
    endloop
  endfacet
  facet normal -0.934185 0.24428 -0.26005
    outer loop
      vertex 83.144 128.247 147.688
      vertex 82.8803 127.18 147.633
      vertex 82.6717 127.928 149.085
    endloop
  endfacet
  facet normal 0.94437 -0.178849 -0.276003
    outer loop
      vertex 91.22 127.047 147.345
      vertex 91.866 127.921 148.989
      vertex 91.8211 127.062 149.392
    endloop
  endfacet
  facet normal 0.907204 0.0986945 -0.40895
    outer loop
      vertex 91.866 127.921 148.989
      vertex 91.22 127.047 147.345
      vertex 91.0844 128.223 147.328
    endloop
  endfacet
  facet normal -0.808158 0.570124 -0.147782
    outer loop
      vertex 83.9135 129.133 146.898
      vertex 83.144 128.247 147.688
      vertex 83.2417 128.822 149.372
    endloop
  endfacet
  facet normal -0.812335 0.564701 -0.145688
    outer loop
      vertex 83.2417 128.822 149.372
      vertex 83.144 128.247 147.688
      vertex 82.6717 127.928 149.085
    endloop
  endfacet
  facet normal 0.692467 0.500134 -0.519957
    outer loop
      vertex 90.16 129.191 147.028
      vertex 91.0274 129.327 148.314
      vertex 91.0844 128.223 147.328
    endloop
  endfacet
  facet normal 0.866557 0.363838 -0.341615
    outer loop
      vertex 91.0844 128.223 147.328
      vertex 91.6665 128.875 149.499
      vertex 91.866 127.921 148.989
    endloop
  endfacet
  facet normal 0.874215 0.347759 -0.338839
    outer loop
      vertex 91.6665 128.875 149.499
      vertex 91.0844 128.223 147.328
      vertex 91.0274 129.327 148.314
    endloop
  endfacet
  facet normal -0.702226 0.704593 -0.102113
    outer loop
      vertex 83.2417 128.822 149.372
      vertex 84.1469 129.743 149.502
      vertex 83.9135 129.133 146.898
    endloop
  endfacet
  facet normal -0.784935 0.615173 -0.0737525
    outer loop
      vertex 84.809 130.299 147.093
      vertex 83.9135 129.133 146.898
      vertex 84.1469 129.743 149.502
    endloop
  endfacet
  facet normal -0.495909 0.866043 0.0635861
    outer loop
      vertex 84.1469 129.743 149.502
      vertex 85.1913 130.337 149.557
      vertex 84.809 130.299 147.093
    endloop
  endfacet
  facet normal -0.279704 0.95966 0.0285973
    outer loop
      vertex 85.9846 130.633 147.383
      vertex 84.809 130.299 147.093
      vertex 85.1913 130.337 149.557
    endloop
  endfacet
  facet normal 0.512116 0.812407 -0.278804
    outer loop
      vertex 89.0926 130.136 147.821
      vertex 90.0102 130.037 149.218
      vertex 90.16 129.191 147.028
    endloop
  endfacet
  facet normal 0.334765 0.886467 -0.319545
    outer loop
      vertex 91.0274 129.327 148.314
      vertex 90.16 129.191 147.028
      vertex 90.0102 130.037 149.218
    endloop
  endfacet
  facet normal 0.44404 0.875986 -0.188355
    outer loop
      vertex 90.0102 130.037 149.218
      vertex 91.0263 129.666 149.888
      vertex 91.0274 129.327 148.314
    endloop
  endfacet
  facet normal 0.733934 0.664101 -0.142518
    outer loop
      vertex 91.6665 128.875 149.499
      vertex 91.0274 129.327 148.314
      vertex 91.0263 129.666 149.888
    endloop
  endfacet
  facet normal -0.246264 0.968293 0.041975
    outer loop
      vertex 85.1913 130.337 149.557
      vertex 86.1389 130.593 149.211
      vertex 85.9846 130.633 147.383
    endloop
  endfacet
  facet normal -0.048998 0.998461 0.025984
    outer loop
      vertex 87.0609 130.686 147.376
      vertex 85.9846 130.633 147.383
      vertex 86.1389 130.593 149.211
    endloop
  endfacet
  facet normal -0.0598833 0.997995 0.0204911
    outer loop
      vertex 86.1389 130.593 149.211
      vertex 87.0309 130.641 149.48
      vertex 87.0609 130.686 147.376
    endloop
  endfacet
  facet normal 0.273511 0.961558 0.0244655
    outer loop
      vertex 88.1608 130.381 147.067
      vertex 87.0609 130.686 147.376
      vertex 87.0309 130.641 149.48
    endloop
  endfacet
  facet normal 0.0105346 0.994703 -0.102246
    outer loop
      vertex 87.0309 130.641 149.48
      vertex 88.0457 130.632 149.497
      vertex 88.1608 130.381 147.067
    endloop
  endfacet
  facet normal 0.315476 0.945323 -0.0827015
    outer loop
      vertex 89.0926 130.136 147.821
      vertex 88.1608 130.381 147.067
      vertex 88.0457 130.632 149.497
    endloop
  endfacet
  facet normal 0.178059 0.968274 -0.17533
    outer loop
      vertex 88.0457 130.632 149.497
      vertex 88.8667 130.531 149.773
      vertex 89.0926 130.136 147.821
    endloop
  endfacet
  facet normal 0.329625 0.932046 -0.150459
    outer loop
      vertex 90.0102 130.037 149.218
      vertex 89.0926 130.136 147.821
      vertex 88.8667 130.531 149.773
    endloop
  endfacet
  facet normal -0.543984 -0.777814 -0.314779
    outer loop
      vertex 83.936 121.952 150.084
      vertex 83.9009 121.24 151.904
      vertex 82.8864 122.198 151.29
    endloop
  endfacet
  facet normal -0.23335 -0.898582 -0.371615
    outer loop
      vertex 84.9905 121.899 149.55
      vertex 85.0117 121.128 151.401
      vertex 83.936 121.952 150.084
    endloop
  endfacet
  facet normal -0.252244 -0.899499 -0.356756
    outer loop
      vertex 83.9009 121.24 151.904
      vertex 83.936 121.952 150.084
      vertex 85.0117 121.128 151.401
    endloop
  endfacet
  facet normal -0.0552927 -0.936929 -0.345118
    outer loop
      vertex 86.0007 121.916 149.342
      vertex 86.0513 121.166 151.37
      vertex 84.9905 121.899 149.55
    endloop
  endfacet
  facet normal 0.0222614 -0.922802 -0.384631
    outer loop
      vertex 85.0117 121.128 151.401
      vertex 84.9905 121.899 149.55
      vertex 86.0513 121.166 151.37
    endloop
  endfacet
  facet normal 0.0886762 -0.936205 -0.340084
    outer loop
      vertex 86.9701 122.01 149.336
      vertex 86.869 121.36 151.099
      vertex 86.0007 121.916 149.342
    endloop
  endfacet
  facet normal 0.105984 -0.93177 -0.347234
    outer loop
      vertex 86.0513 121.166 151.37
      vertex 86.0007 121.916 149.342
      vertex 86.869 121.36 151.099
    endloop
  endfacet
  facet normal 0.37568 -0.876319 -0.301546
    outer loop
      vertex 86.869 121.36 151.099
      vertex 86.9701 122.01 149.336
      vertex 87.7654 121.586 151.559
    endloop
  endfacet
  facet normal -0.755776 -0.566549 -0.328368
    outer loop
      vertex 82.3287 123.157 150.919
      vertex 83.0654 122.806 149.829
      vertex 82.8864 122.198 151.29
    endloop
  endfacet
  facet normal -0.592983 -0.715056 -0.370225
    outer loop
      vertex 83.936 121.952 150.084
      vertex 82.8864 122.198 151.29
      vertex 83.0654 122.806 149.829
    endloop
  endfacet
  facet normal -0.546642 -0.696199 -0.465285
    outer loop
      vertex 83.0654 122.806 149.829
      vertex 83.8969 122.911 148.695
      vertex 83.936 121.952 150.084
    endloop
  endfacet
  facet normal -0.310063 -0.786419 -0.534235
    outer loop
      vertex 84.9905 121.899 149.55
      vertex 83.936 121.952 150.084
      vertex 83.8969 122.911 148.695
    endloop
  endfacet
  facet normal 0.142485 -0.961643 -0.234393
    outer loop
      vertex 87.7654 121.586 151.559
      vertex 86.9701 122.01 149.336
      vertex 87.9817 122.136 149.434
    endloop
  endfacet
  facet normal 0.0550324 -0.997254 -0.0495599
    outer loop
      vertex 89.0639 122.199 149.368
      vertex 88.9763 122.074 151.786
      vertex 87.9817 122.136 149.434
    endloop
  endfacet
  facet normal 0.397571 -0.897307 -0.191776
    outer loop
      vertex 87.7654 121.586 151.559
      vertex 87.9817 122.136 149.434
      vertex 88.9763 122.074 151.786
    endloop
  endfacet
  facet normal 0.153971 -0.987721 -0.0264586
    outer loop
      vertex 89.9451 122.344 149.083
      vertex 90.0768 122.318 150.82
      vertex 89.0639 122.199 149.368
    endloop
  endfacet
  facet normal 0.179008 -0.982849 -0.0443238
    outer loop
      vertex 88.9763 122.074 151.786
      vertex 89.0639 122.199 149.368
      vertex 90.0768 122.318 150.82
    endloop
  endfacet
  facet normal 0.545035 -0.836682 -0.0538485
    outer loop
      vertex 90.0768 122.318 150.82
      vertex 89.9451 122.344 149.083
      vertex 90.6401 122.756 149.716
    endloop
  endfacet
  facet normal 0.759469 -0.636375 0.135033
    outer loop
      vertex 90.6401 122.756 149.716
      vertex 90.7192 123.202 151.373
      vertex 90.0768 122.318 150.82
    endloop
  endfacet
  facet normal -0.805942 -0.430872 -0.405965
    outer loop
      vertex 82.3287 123.157 150.919
      vertex 82.7229 123.995 149.247
      vertex 83.0654 122.806 149.829
    endloop
  endfacet
  facet normal -0.922053 -0.212174 -0.323729
    outer loop
      vertex 82.7229 123.995 149.247
      vertex 82.3287 123.157 150.919
      vertex 81.8439 124.15 151.649
    endloop
  endfacet
  facet normal -0.691241 -0.468444 -0.550224
    outer loop
      vertex 83.8969 122.911 148.695
      vertex 83.0654 122.806 149.829
      vertex 82.7229 123.995 149.247
    endloop
  endfacet
  facet normal 0.956241 -0.290757 0.0326126
    outer loop
      vertex 90.7192 123.202 151.373
      vertex 90.6401 122.756 149.716
      vertex 91.019 123.977 149.492
    endloop
  endfacet
  facet normal 0.986361 -0.126775 0.104976
    outer loop
      vertex 91.019 123.977 149.492
      vertex 90.8091 124.183 151.713
      vertex 90.7192 123.202 151.373
    endloop
  endfacet
  facet normal -0.946817 -0.249285 -0.203456
    outer loop
      vertex 81.6712 125.001 151.41
      vertex 81.9293 124.854 150.389
      vertex 81.8439 124.15 151.649
    endloop
  endfacet
  facet normal -0.863501 -0.413099 -0.289337
    outer loop
      vertex 82.7229 123.995 149.247
      vertex 81.8439 124.15 151.649
      vertex 81.9293 124.854 150.389
    endloop
  endfacet
  facet normal -0.874232 -0.291611 -0.388176
    outer loop
      vertex 82.4075 125.276 148.995
      vertex 82.7229 123.995 149.247
      vertex 81.9293 124.854 150.389
    endloop
  endfacet
  facet normal 0.98461 -0.138994 0.105944
    outer loop
      vertex 90.8091 124.183 151.713
      vertex 91.019 123.977 149.492
      vertex 90.9701 125.043 151.345
    endloop
  endfacet
  facet normal 0.88873 -0.386841 0.245996
    outer loop
      vertex 90.9701 125.043 151.345
      vertex 91.019 123.977 149.492
      vertex 91.4859 125.208 149.741
    endloop
  endfacet
  facet normal -0.936871 0.223411 -0.268999
    outer loop
      vertex 81.6712 125.001 151.41
      vertex 81.988 125.825 150.991
      vertex 81.9293 124.854 150.389
    endloop
  endfacet
  facet normal -0.978529 -0.106799 -0.176283
    outer loop
      vertex 82.4075 125.276 148.995
      vertex 81.988 125.825 150.991
      vertex 82.3147 126.222 148.937
    endloop
  endfacet
  facet normal -0.941702 0.216563 -0.257484
    outer loop
      vertex 82.4075 125.276 148.995
      vertex 81.9293 124.854 150.389
      vertex 81.988 125.825 150.991
    endloop
  endfacet
  facet normal 0.962076 -0.107313 0.250787
    outer loop
      vertex 91.4859 125.208 149.741
      vertex 91.6448 126.06 149.496
      vertex 91.1493 126.051 151.393
    endloop
  endfacet
  facet normal 0.941551 -0.180919 0.284165
    outer loop
      vertex 90.9701 125.043 151.345
      vertex 91.4859 125.208 149.741
      vertex 91.1493 126.051 151.393
    endloop
  endfacet
  facet normal -0.985721 0.0962152 -0.138188
    outer loop
      vertex 82.2565 127.039 149.921
      vertex 82.3147 126.222 148.937
      vertex 81.988 125.825 150.991
    endloop
  endfacet
  facet normal -0.951898 0.292104 0.0925517
    outer loop
      vertex 81.988 125.825 150.991
      vertex 82.3878 126.888 151.748
      vertex 82.2565 127.039 149.921
    endloop
  endfacet
  facet normal 0.972894 -0.153199 0.173226
    outer loop
      vertex 91.6448 126.06 149.496
      vertex 91.8211 127.062 149.392
      vertex 91.4604 127.095 151.447
    endloop
  endfacet
  facet normal 0.926705 -0.288597 0.240688
    outer loop
      vertex 91.1493 126.051 151.393
      vertex 91.6448 126.06 149.496
      vertex 91.4604 127.095 151.447
    endloop
  endfacet
  facet normal -0.87863 0.466546 0.101704
    outer loop
      vertex 82.2565 127.039 149.921
      vertex 82.3878 126.888 151.748
      vertex 82.893 127.953 151.227
    endloop
  endfacet
  facet normal -0.87012 0.485589 0.0842287
    outer loop
      vertex 82.6717 127.928 149.085
      vertex 82.2565 127.039 149.921
      vertex 82.893 127.953 151.227
    endloop
  endfacet
  facet normal 0.958166 -0.228872 0.171856
    outer loop
      vertex 91.8211 127.062 149.392
      vertex 91.7988 128.128 150.936
      vertex 91.4604 127.095 151.447
    endloop
  endfacet
  facet normal 0.998684 -0.0343183 0.0381178
    outer loop
      vertex 91.7988 128.128 150.936
      vertex 91.8211 127.062 149.392
      vertex 91.866 127.921 148.989
    endloop
  endfacet
  facet normal -0.753701 0.638125 0.157259
    outer loop
      vertex 83.2417 128.822 149.372
      vertex 82.893 127.953 151.227
      vertex 83.9127 129.063 151.61
    endloop
  endfacet
  facet normal -0.85208 0.516948 0.0819989
    outer loop
      vertex 82.893 127.953 151.227
      vertex 83.2417 128.822 149.372
      vertex 82.6717 127.928 149.085
    endloop
  endfacet
  facet normal 0.867795 0.469095 0.163956
    outer loop
      vertex 91.7988 128.128 150.936
      vertex 91.6665 128.875 149.499
      vertex 91.1619 129.107 151.506
    endloop
  endfacet
  facet normal 0.980092 0.198134 0.0127625
    outer loop
      vertex 91.6665 128.875 149.499
      vertex 91.7988 128.128 150.936
      vertex 91.866 127.921 148.989
    endloop
  endfacet
  facet normal -0.715949 0.683761 0.141026
    outer loop
      vertex 84.1469 129.743 149.502
      vertex 83.2417 128.822 149.372
      vertex 83.9127 129.063 151.61
    endloop
  endfacet
  facet normal -0.625484 0.76019 0.175731
    outer loop
      vertex 83.9127 129.063 151.61
      vertex 84.9199 129.873 151.691
      vertex 84.1469 129.743 149.502
    endloop
  endfacet
  facet normal -0.495493 0.859727 0.123916
    outer loop
      vertex 85.1913 130.337 149.557
      vertex 84.1469 129.743 149.502
      vertex 84.9199 129.873 151.691
    endloop
  endfacet
  facet normal -0.341313 0.926565 0.158057
    outer loop
      vertex 84.9199 129.873 151.691
      vertex 86.0619 130.337 151.437
      vertex 85.1913 130.337 149.557
    endloop
  endfacet
  facet normal 0.35774 0.929827 0.0862724
    outer loop
      vertex 89.0327 130.202 151.493
      vertex 90.1512 129.77 151.511
      vertex 90.0102 130.037 149.218
    endloop
  endfacet
  facet normal 0.533847 0.812036 0.235809
    outer loop
      vertex 91.1619 129.107 151.506
      vertex 91.0263 129.666 149.888
      vertex 90.1512 129.77 151.511
    endloop
  endfacet
  facet normal 0.286553 0.9535 0.0934063
    outer loop
      vertex 90.1512 129.77 151.511
      vertex 91.0263 129.666 149.888
      vertex 90.0102 130.037 149.218
    endloop
  endfacet
  facet normal 0.801513 0.582734 0.134155
    outer loop
      vertex 91.6665 128.875 149.499
      vertex 91.0263 129.666 149.888
      vertex 91.1619 129.107 151.506
    endloop
  endfacet
  facet normal -0.223936 0.969071 0.103701
    outer loop
      vertex 86.1389 130.593 149.211
      vertex 85.1913 130.337 149.557
      vertex 86.0619 130.337 151.437
    endloop
  endfacet
  facet normal -0.0867082 0.990046 0.11086
    outer loop
      vertex 87.0309 130.641 149.48
      vertex 86.1389 130.593 149.211
      vertex 86.0619 130.337 151.437
    endloop
  endfacet
  facet normal -0.104556 0.989284 0.101905
    outer loop
      vertex 86.0619 130.337 151.437
      vertex 87.251 130.443 151.628
      vertex 87.0309 130.641 149.48
    endloop
  endfacet
  facet normal 0.00730648 0.99582 0.0910448
    outer loop
      vertex 88.0457 130.632 149.497
      vertex 87.0309 130.641 149.48
      vertex 87.251 130.443 151.628
    endloop
  endfacet
  facet normal -0.0372687 0.996526 0.0744842
    outer loop
      vertex 87.251 130.443 151.628
      vertex 88.1701 130.506 151.245
      vertex 88.0457 130.632 149.497
    endloop
  endfacet
  facet normal 0.100486 0.992851 0.0644158
    outer loop
      vertex 88.8667 130.531 149.773
      vertex 88.0457 130.632 149.497
      vertex 88.1701 130.506 151.245
    endloop
  endfacet
  facet normal 0.289098 0.945017 0.152861
    outer loop
      vertex 88.1701 130.506 151.245
      vertex 89.0327 130.202 151.493
      vertex 88.8667 130.531 149.773
    endloop
  endfacet
  facet normal 0.444574 0.886735 0.126707
    outer loop
      vertex 90.0102 130.037 149.218
      vertex 88.8667 130.531 149.773
      vertex 89.0327 130.202 151.493
    endloop
  endfacet
  facet normal -0.547881 -0.811092 -0.204829
    outer loop
      vertex 83.9169 120.687 154.051
      vertex 82.8591 121.573 153.372
      vertex 83.9009 121.24 151.904
    endloop
  endfacet
  facet normal -0.585728 -0.774138 -0.24007
    outer loop
      vertex 82.8864 122.198 151.29
      vertex 83.9009 121.24 151.904
      vertex 82.8591 121.573 153.372
    endloop
  endfacet
  facet normal -0.192356 -0.958281 -0.211414
    outer loop
      vertex 85.0117 121.128 151.401
      vertex 84.973 120.676 153.485
      vertex 83.9009 121.24 151.904
    endloop
  endfacet
  facet normal -0.141783 -0.958865 -0.245917
    outer loop
      vertex 83.9169 120.687 154.051
      vertex 83.9009 121.24 151.904
      vertex 84.973 120.676 153.485
    endloop
  endfacet
  facet normal 0.0315762 -0.987873 -0.152018
    outer loop
      vertex 86.0513 121.166 151.37
      vertex 86.0586 120.842 153.477
      vertex 85.0117 121.128 151.401
    endloop
  endfacet
  facet normal 0.146386 -0.96731 -0.207082
    outer loop
      vertex 84.973 120.676 153.485
      vertex 85.0117 121.128 151.401
      vertex 86.0586 120.842 153.477
    endloop
  endfacet
  facet normal 0.184141 -0.972769 -0.140757
    outer loop
      vertex 86.869 121.36 151.099
      vertex 87.0624 121.124 152.983
      vertex 86.0513 121.166 151.37
    endloop
  endfacet
  facet normal 0.198476 -0.968616 -0.149635
    outer loop
      vertex 86.0586 120.842 153.477
      vertex 86.0513 121.166 151.37
      vertex 87.0624 121.124 152.983
    endloop
  endfacet
  facet normal 0.313227 -0.937817 -0.14963
    outer loop
      vertex 87.0624 121.124 152.983
      vertex 86.869 121.36 151.099
      vertex 87.7654 121.586 151.559
    endloop
  endfacet
  facet normal 0.520407 -0.853683 -0.0200527
    outer loop
      vertex 87.7654 121.586 151.559
      vertex 88.0945 121.736 153.714
      vertex 87.0624 121.124 152.983
    endloop
  endfacet
  facet normal -0.815796 -0.550887 -0.176069
    outer loop
      vertex 82.8591 121.573 153.372
      vertex 82.0324 122.865 153.16
      vertex 82.8864 122.198 151.29
    endloop
  endfacet
  facet normal -0.818709 -0.545489 -0.179325
    outer loop
      vertex 82.3287 123.157 150.919
      vertex 82.8864 122.198 151.29
      vertex 82.0324 122.865 153.16
    endloop
  endfacet
  facet normal 0.690941 -0.696415 0.193923
    outer loop
      vertex 88.0945 121.736 153.714
      vertex 88.9763 122.074 151.786
      vertex 89.1258 122.816 153.918
    endloop
  endfacet
  facet normal 0.37254 -0.927984 0.00770062
    outer loop
      vertex 88.9763 122.074 151.786
      vertex 88.0945 121.736 153.714
      vertex 87.7654 121.586 151.559
    endloop
  endfacet
  facet normal 0.417154 -0.872361 0.254888
    outer loop
      vertex 90.0768 122.318 150.82
      vertex 89.9877 122.761 152.482
      vertex 88.9763 122.074 151.786
    endloop
  endfacet
  facet normal 0.403219 -0.872667 0.27544
    outer loop
      vertex 89.1258 122.816 153.918
      vertex 88.9763 122.074 151.786
      vertex 89.9877 122.761 152.482
    endloop
  endfacet
  facet normal 0.721595 -0.658356 0.214167
    outer loop
      vertex 89.9877 122.761 152.482
      vertex 90.0768 122.318 150.82
      vertex 90.7192 123.202 151.373
    endloop
  endfacet
  facet normal -0.928768 -0.331419 -0.165983
    outer loop
      vertex 81.8439 124.15 151.649
      vertex 82.3287 123.157 150.919
      vertex 82.0324 122.865 153.16
    endloop
  endfacet
  facet normal -0.984771 -0.172243 -0.0236289
    outer loop
      vertex 82.0324 122.865 153.16
      vertex 81.7862 124.118 154.287
      vertex 81.8439 124.15 151.649
    endloop
  endfacet
  facet normal 0.78612 -0.381302 0.48644
    outer loop
      vertex 89.9877 122.761 152.482
      vertex 90.145 123.69 152.956
      vertex 89.1258 122.816 153.918
    endloop
  endfacet
  facet normal 0.774645 -0.27829 0.567873
    outer loop
      vertex 89.1258 122.816 153.918
      vertex 90.145 123.69 152.956
      vertex 89.3761 124.029 154.171
    endloop
  endfacet
  facet normal 0.894124 -0.217593 0.391403
    outer loop
      vertex 90.7192 123.202 151.373
      vertex 90.8091 124.183 151.713
      vertex 90.145 123.69 152.956
    endloop
  endfacet
  facet normal 0.839392 -0.353 0.413293
    outer loop
      vertex 89.9877 122.761 152.482
      vertex 90.7192 123.202 151.373
      vertex 90.145 123.69 152.956
    endloop
  endfacet
  facet normal -0.970061 -0.141411 0.197443
    outer loop
      vertex 81.8439 124.15 151.649
      vertex 81.9639 125.04 152.876
      vertex 81.6712 125.001 151.41
    endloop
  endfacet
  facet normal -0.986898 0.160146 -0.0196434
    outer loop
      vertex 81.9639 125.04 152.876
      vertex 81.8439 124.15 151.649
      vertex 81.7862 124.118 154.287
    endloop
  endfacet
  facet normal 0.847267 0.0192276 0.530819
    outer loop
      vertex 90.145 123.69 152.956
      vertex 90.1463 124.737 152.916
      vertex 89.3761 124.029 154.171
    endloop
  endfacet
  facet normal 0.838385 0.0500796 0.542773
    outer loop
      vertex 89.3761 124.029 154.171
      vertex 90.1463 124.737 152.916
      vertex 89.3606 125.058 154.1
    endloop
  endfacet
  facet normal 0.882174 0.035778 0.469563
    outer loop
      vertex 90.9701 125.043 151.345
      vertex 90.1463 124.737 152.916
      vertex 90.8091 124.183 151.713
    endloop
  endfacet
  facet normal 0.879043 0.0171104 0.476435
    outer loop
      vertex 90.145 123.69 152.956
      vertex 90.8091 124.183 151.713
      vertex 90.1463 124.737 152.916
    endloop
  endfacet
  facet normal -0.889158 0.426356 0.166186
    outer loop
      vertex 81.988 125.825 150.991
      vertex 81.6712 125.001 151.41
      vertex 81.9639 125.04 152.876
    endloop
  endfacet
  facet normal -0.828426 0.520735 0.206266
    outer loop
      vertex 81.9639 125.04 152.876
      vertex 82.7689 126.123 153.375
      vertex 81.988 125.825 150.991
    endloop
  endfacet
  facet normal 0.83605 0.0247356 0.548095
    outer loop
      vertex 90.1463 124.737 152.916
      vertex 90.1542 125.733 152.859
      vertex 89.3606 125.058 154.1
    endloop
  endfacet
  facet normal 0.829654 0.0472884 0.556272
    outer loop
      vertex 89.3606 125.058 154.1
      vertex 90.1542 125.733 152.859
      vertex 89.3155 126.061 154.082
    endloop
  endfacet
  facet normal 0.83195 -0.173006 0.527188
    outer loop
      vertex 91.1493 126.051 151.393
      vertex 90.1542 125.733 152.859
      vertex 90.9701 125.043 151.345
    endloop
  endfacet
  facet normal 0.883866 0.0197339 0.467325
    outer loop
      vertex 90.1463 124.737 152.916
      vertex 90.9701 125.043 151.345
      vertex 90.1542 125.733 152.859
    endloop
  endfacet
  facet normal -0.793584 0.457592 0.40104
    outer loop
      vertex 82.3878 126.888 151.748
      vertex 82.7689 126.123 153.375
      vertex 83.1254 127.197 152.855
    endloop
  endfacet
  facet normal -0.945154 0.148197 0.291069
    outer loop
      vertex 81.988 125.825 150.991
      vertex 82.7689 126.123 153.375
      vertex 82.3878 126.888 151.748
    endloop
  endfacet
  facet normal -0.730637 0.478389 0.487149
    outer loop
      vertex 82.7689 126.123 153.375
      vertex 83.7672 126.942 154.068
      vertex 83.1254 127.197 152.855
    endloop
  endfacet
  facet normal 0.790412 -0.171571 0.588057
    outer loop
      vertex 90.1542 125.733 152.859
      vertex 90.2581 126.928 153.068
      vertex 89.3155 126.061 154.082
    endloop
  endfacet
  facet normal 0.718016 0.0325237 0.695266
    outer loop
      vertex 89.3155 126.061 154.082
      vertex 90.2581 126.928 153.068
      vertex 89.0221 127.194 154.332
    endloop
  endfacet
  facet normal 0.787593 -0.263505 0.557013
    outer loop
      vertex 91.4604 127.095 151.447
      vertex 90.2581 126.928 153.068
      vertex 91.1493 126.051 151.393
    endloop
  endfacet
  facet normal 0.83232 -0.16492 0.529193
    outer loop
      vertex 90.1542 125.733 152.859
      vertex 91.1493 126.051 151.393
      vertex 90.2581 126.928 153.068
    endloop
  endfacet
  facet normal -0.763266 0.537468 0.358543
    outer loop
      vertex 82.893 127.953 151.227
      vertex 82.3878 126.888 151.748
      vertex 83.1254 127.197 152.855
    endloop
  endfacet
  facet normal -0.732953 0.570998 0.369786
    outer loop
      vertex 83.1254 127.197 152.855
      vertex 84.0888 128.014 153.503
      vertex 82.893 127.953 151.227
    endloop
  endfacet
  facet normal -0.731803 0.476399 0.487348
    outer loop
      vertex 84.0888 128.014 153.503
      vertex 83.1254 127.197 152.855
      vertex 83.7672 126.942 154.068
    endloop
  endfacet
  facet normal 0.696665 -0.122107 0.706929
    outer loop
      vertex 90.2581 126.928 153.068
      vertex 89.8667 127.937 153.628
      vertex 89.0221 127.194 154.332
    endloop
  endfacet
  facet normal 0.557215 0.141813 0.818169
    outer loop
      vertex 89.0221 127.194 154.332
      vertex 89.8667 127.937 153.628
      vertex 89.0168 128.386 154.129
    endloop
  endfacet
  facet normal 0.79021 -0.247598 0.560592
    outer loop
      vertex 90.2581 126.928 153.068
      vertex 91.4604 127.095 151.447
      vertex 90.9019 128.111 152.683
    endloop
  endfacet
  facet normal 0.680306 -0.135835 0.720231
    outer loop
      vertex 89.8667 127.937 153.628
      vertex 90.2581 126.928 153.068
      vertex 90.9019 128.111 152.683
    endloop
  endfacet
  facet normal 0.887948 -0.0656921 0.455228
    outer loop
      vertex 90.9019 128.111 152.683
      vertex 91.4604 127.095 151.447
      vertex 91.7988 128.128 150.936
    endloop
  endfacet
  facet normal -0.743421 0.553288 0.375761
    outer loop
      vertex 83.9127 129.063 151.61
      vertex 82.893 127.953 151.227
      vertex 84.0888 128.014 153.503
    endloop
  endfacet
  facet normal -0.720731 0.575742 0.386093
    outer loop
      vertex 84.0888 128.014 153.503
      vertex 84.9949 129.1 153.575
      vertex 83.9127 129.063 151.61
    endloop
  endfacet
  facet normal 0.595574 0.29258 0.748124
    outer loop
      vertex 89.8667 127.937 153.628
      vertex 90.0875 128.899 153.076
      vertex 89.0168 128.386 154.129
    endloop
  endfacet
  facet normal 0.431857 0.556156 0.710064
    outer loop
      vertex 89.0168 128.386 154.129
      vertex 90.0875 128.899 153.076
      vertex 89.0378 129.423 153.304
    endloop
  endfacet
  facet normal 0.704463 0.45741 0.542686
    outer loop
      vertex 91.1619 129.107 151.506
      vertex 90.0875 128.899 153.076
      vertex 90.9019 128.111 152.683
    endloop
  endfacet
  facet normal 0.621869 0.277474 0.732316
    outer loop
      vertex 90.9019 128.111 152.683
      vertex 90.0875 128.899 153.076
      vertex 89.8667 127.937 153.628
    endloop
  endfacet
  facet normal 0.848388 0.296655 0.438444
    outer loop
      vertex 91.7988 128.128 150.936
      vertex 91.1619 129.107 151.506
      vertex 90.9019 128.111 152.683
    endloop
  endfacet
  facet normal -0.608952 0.725033 0.321721
    outer loop
      vertex 84.9199 129.873 151.691
      vertex 83.9127 129.063 151.61
      vertex 84.9949 129.1 153.575
    endloop
  endfacet
  facet normal -0.570756 0.751435 0.331033
    outer loop
      vertex 84.9949 129.1 153.575
      vertex 85.7683 129.787 153.349
      vertex 84.9199 129.873 151.691
    endloop
  endfacet
  facet normal -0.326277 0.920568 0.214706
    outer loop
      vertex 86.0619 130.337 151.437
      vertex 84.9199 129.873 151.691
      vertex 85.7683 129.787 153.349
    endloop
  endfacet
  facet normal -0.123822 0.96384 0.235966
    outer loop
      vertex 87.251 130.443 151.628
      vertex 86.0619 130.337 151.437
      vertex 86.699 129.88 153.638
    endloop
  endfacet
  facet normal -0.172214 0.953382 0.247802
    outer loop
      vertex 86.699 129.88 153.638
      vertex 86.0619 130.337 151.437
      vertex 85.7683 129.787 153.349
    endloop
  endfacet
  facet normal 0.0591205 0.952558 0.298561
    outer loop
      vertex 88.1701 130.506 151.245
      vertex 87.251 130.443 151.628
      vertex 87.884 129.869 153.334
    endloop
  endfacet
  facet normal 0.083224 0.953428 0.28991
    outer loop
      vertex 87.884 129.869 153.334
      vertex 87.251 130.443 151.628
      vertex 86.699 129.88 153.638
    endloop
  endfacet
  facet normal 0.343278 0.863149 0.370316
    outer loop
      vertex 89.0378 129.423 153.304
      vertex 89.0327 130.202 151.493
      vertex 87.884 129.869 153.334
    endloop
  endfacet
  facet normal 0.234457 0.920434 0.312779
    outer loop
      vertex 87.884 129.869 153.334
      vertex 89.0327 130.202 151.493
      vertex 88.1701 130.506 151.245
    endloop
  endfacet
  facet normal 0.329165 0.867763 0.372341
    outer loop
      vertex 90.1512 129.77 151.511
      vertex 89.0327 130.202 151.493
      vertex 89.0378 129.423 153.304
    endloop
  endfacet
  facet normal 0.475623 0.760259 0.442481
    outer loop
      vertex 90.1512 129.77 151.511
      vertex 89.0378 129.423 153.304
      vertex 90.0875 128.899 153.076
    endloop
  endfacet
  facet normal 0.494617 0.750709 0.437939
    outer loop
      vertex 91.1619 129.107 151.506
      vertex 90.1512 129.77 151.511
      vertex 90.0875 128.899 153.076
    endloop
  endfacet
  facet normal -0.521946 -0.852161 -0.0373409
    outer loop
      vertex 84.0918 120.501 155.851
      vertex 83.1657 121.083 155.514
      vertex 83.9169 120.687 154.051
    endloop
  endfacet
  facet normal -0.0858061 -0.986293 -0.140937
    outer loop
      vertex 84.973 120.676 153.485
      vertex 84.7998 120.441 155.235
      vertex 83.9169 120.687 154.051
    endloop
  endfacet
  facet normal -0.158397 -0.983601 -0.0862479
    outer loop
      vertex 84.0918 120.501 155.851
      vertex 83.9169 120.687 154.051
      vertex 84.7998 120.441 155.235
    endloop
  endfacet
  facet normal 0.44423 -0.892691 -0.0759096
    outer loop
      vertex 84.7998 120.441 155.235
      vertex 84.973 120.676 153.485
      vertex 85.9018 120.945 155.757
    endloop
  endfacet
  facet normal -0.728004 -0.683585 -0.0521712
    outer loop
      vertex 82.8591 121.573 153.372
      vertex 83.1657 121.083 155.514
      vertex 82.3206 122.014 155.108
    endloop
  endfacet
  facet normal -0.602666 -0.79232 -0.0949857
    outer loop
      vertex 83.9169 120.687 154.051
      vertex 83.1657 121.083 155.514
      vertex 82.8591 121.573 153.372
    endloop
  endfacet
  facet normal 0.151321 -0.986954 0.0549927
    outer loop
      vertex 85.9018 120.945 155.757
      vertex 84.973 120.676 153.485
      vertex 86.0586 120.842 153.477
    endloop
  endfacet
  facet normal 0.303275 -0.950031 0.0739249
    outer loop
      vertex 87.0624 121.124 152.983
      vertex 87.0929 121.298 155.094
      vertex 86.0586 120.842 153.477
    endloop
  endfacet
  facet normal 0.316399 -0.94643 0.0645148
    outer loop
      vertex 85.9018 120.945 155.757
      vertex 86.0586 120.842 153.477
      vertex 87.0929 121.298 155.094
    endloop
  endfacet
  facet normal 0.474205 -0.877973 0.0655159
    outer loop
      vertex 87.0929 121.298 155.094
      vertex 87.0624 121.124 152.983
      vertex 88.0945 121.736 153.714
    endloop
  endfacet
  facet normal 0.612712 -0.763997 0.202219
    outer loop
      vertex 88.0945 121.736 153.714
      vertex 88.0724 122.236 155.67
      vertex 87.0929 121.298 155.094
    endloop
  endfacet
  facet normal -0.827658 -0.548835 -0.117314
    outer loop
      vertex 82.0324 122.865 153.16
      vertex 82.8591 121.573 153.372
      vertex 82.3206 122.014 155.108
    endloop
  endfacet
  facet normal -0.955832 -0.293618 0.0131425
    outer loop
      vertex 82.3206 122.014 155.108
      vertex 81.9857 123.133 155.751
      vertex 82.0324 122.865 153.16
    endloop
  endfacet
  facet normal 0.692836 -0.696714 0.185925
    outer loop
      vertex 88.0724 122.236 155.67
      vertex 88.0945 121.736 153.714
      vertex 89.1258 122.816 153.918
    endloop
  endfacet
  facet normal 0.82126 -0.456093 0.342798
    outer loop
      vertex 89.1258 122.816 153.918
      vertex 88.653 123.304 155.7
      vertex 88.0724 122.236 155.67
    endloop
  endfacet
  facet normal -0.92443 -0.362633 -0.118012
    outer loop
      vertex 81.7862 124.118 154.287
      vertex 81.9857 123.133 155.751
      vertex 81.6598 124.01 155.609
    endloop
  endfacet
  facet normal -0.980809 -0.194955 0.00248709
    outer loop
      vertex 81.7862 124.118 154.287
      vertex 82.0324 122.865 153.16
      vertex 81.9857 123.133 155.751
    endloop
  endfacet
  facet normal 0.915342 -0.254043 0.312428
    outer loop
      vertex 88.653 123.304 155.7
      vertex 89.1258 122.816 153.918
      vertex 89.3761 124.029 154.171
    endloop
  endfacet
  facet normal 0.915308 -0.0807669 0.394574
    outer loop
      vertex 89.3761 124.029 154.171
      vertex 88.7815 124.345 155.615
      vertex 88.653 123.304 155.7
    endloop
  endfacet
  facet normal -0.860577 0.507683 -0.0408072
    outer loop
      vertex 81.6598 124.01 155.609
      vertex 81.8753 124.372 155.568
      vertex 81.7862 124.118 154.287
    endloop
  endfacet
  facet normal -0.813635 0.52828 0.24273
    outer loop
      vertex 81.7862 124.118 154.287
      vertex 82.6486 124.814 155.663
      vertex 81.9639 125.04 152.876
    endloop
  endfacet
  facet normal -0.478552 0.867046 -0.138634
    outer loop
      vertex 82.6486 124.814 155.663
      vertex 81.7862 124.118 154.287
      vertex 81.8753 124.372 155.568
    endloop
  endfacet
  facet normal 0.926975 0.0397009 0.373015
    outer loop
      vertex 88.7815 124.345 155.615
      vertex 89.3761 124.029 154.171
      vertex 89.3606 125.058 154.1
    endloop
  endfacet
  facet normal 0.916577 0.0855216 0.390605
    outer loop
      vertex 89.3606 125.058 154.1
      vertex 88.7506 125.343 155.469
      vertex 88.7815 124.345 155.615
    endloop
  endfacet
  facet normal -0.82876 0.5034 0.244428
    outer loop
      vertex 82.7689 126.123 153.375
      vertex 81.9639 125.04 152.876
      vertex 82.6486 124.814 155.663
    endloop
  endfacet
  facet normal -0.783245 0.556497 0.277199
    outer loop
      vertex 82.6486 124.814 155.663
      vertex 83.5123 126.193 155.335
      vertex 82.7689 126.123 153.375
    endloop
  endfacet
  facet normal 0.916061 0.0483354 0.398116
    outer loop
      vertex 88.7506 125.343 155.469
      vertex 89.3606 125.058 154.1
      vertex 89.3155 126.061 154.082
    endloop
  endfacet
  facet normal 0.863657 0.207732 0.459287
    outer loop
      vertex 89.3155 126.061 154.082
      vertex 88.6651 126.249 155.22
      vertex 88.7506 125.343 155.469
    endloop
  endfacet
  facet normal -0.711155 0.658511 0.246213
    outer loop
      vertex 83.7672 126.942 154.068
      vertex 82.7689 126.123 153.375
      vertex 83.5123 126.193 155.335
    endloop
  endfacet
  facet normal -0.771288 0.603681 0.201702
    outer loop
      vertex 83.5123 126.193 155.335
      vertex 84.5743 127.47 155.574
      vertex 83.7672 126.942 154.068
    endloop
  endfacet
  facet normal 0.775858 0.250868 0.578887
    outer loop
      vertex 88.6651 126.249 155.22
      vertex 89.0221 127.194 154.332
      vertex 88.0263 127.027 155.739
    endloop
  endfacet
  facet normal 0.870343 0.119998 0.477602
    outer loop
      vertex 89.0221 127.194 154.332
      vertex 88.6651 126.249 155.22
      vertex 89.3155 126.061 154.082
    endloop
  endfacet
  facet normal -0.623682 0.70763 0.332085
    outer loop
      vertex 84.0888 128.014 153.503
      vertex 84.5743 127.47 155.574
      vertex 85.2141 128.338 154.926
    endloop
  endfacet
  facet normal -0.853155 0.419425 0.310176
    outer loop
      vertex 83.7672 126.942 154.068
      vertex 84.5743 127.47 155.574
      vertex 84.0888 128.014 153.503
    endloop
  endfacet
  facet normal -0.540657 0.721482 0.432614
    outer loop
      vertex 84.5743 127.47 155.574
      vertex 85.9349 128.164 156.117
      vertex 85.2141 128.338 154.926
    endloop
  endfacet
  facet normal 0.652015 0.39923 0.644586
    outer loop
      vertex 88.2004 127.91 155.016
      vertex 87.172 127.954 156.029
      vertex 88.0263 127.027 155.739
    endloop
  endfacet
  facet normal 0.696237 0.123517 0.707105
    outer loop
      vertex 89.0168 128.386 154.129
      vertex 88.2004 127.91 155.016
      vertex 89.0221 127.194 154.332
    endloop
  endfacet
  facet normal 0.755082 0.319771 0.572361
    outer loop
      vertex 88.0263 127.027 155.739
      vertex 89.0221 127.194 154.332
      vertex 88.2004 127.91 155.016
    endloop
  endfacet
  facet normal -0.706679 0.561034 0.431097
    outer loop
      vertex 84.9949 129.1 153.575
      vertex 84.0888 128.014 153.503
      vertex 85.2141 128.338 154.926
    endloop
  endfacet
  facet normal -0.577755 0.667247 0.470086
    outer loop
      vertex 85.2141 128.338 154.926
      vertex 86.014 129.106 154.819
      vertex 84.9949 129.1 153.575
    endloop
  endfacet
  facet normal -0.58536 0.672723 0.452545
    outer loop
      vertex 86.014 129.106 154.819
      vertex 85.2141 128.338 154.926
      vertex 85.9349 128.164 156.117
    endloop
  endfacet
  facet normal 0.162362 0.642734 0.748687
    outer loop
      vertex 85.9349 128.164 156.117
      vertex 87.172 127.954 156.029
      vertex 86.9946 129.053 155.124
    endloop
  endfacet
  facet normal -0.135757 0.805751 0.576486
    outer loop
      vertex 86.014 129.106 154.819
      vertex 85.9349 128.164 156.117
      vertex 86.9946 129.053 155.124
    endloop
  endfacet
  facet normal 0.670585 0.325424 0.666645
    outer loop
      vertex 88.2004 127.91 155.016
      vertex 88.0224 128.834 154.744
      vertex 87.172 127.954 156.029
    endloop
  endfacet
  facet normal 0.384584 0.622995 0.681156
    outer loop
      vertex 86.9946 129.053 155.124
      vertex 87.172 127.954 156.029
      vertex 88.0224 128.834 154.744
    endloop
  endfacet
  facet normal 0.607501 0.486954 0.62755
    outer loop
      vertex 89.0378 129.423 153.304
      vertex 88.0224 128.834 154.744
      vertex 89.0168 128.386 154.129
    endloop
  endfacet
  facet normal 0.599607 0.330117 0.729036
    outer loop
      vertex 88.2004 127.91 155.016
      vertex 89.0168 128.386 154.129
      vertex 88.0224 128.834 154.744
    endloop
  endfacet
  facet normal -0.526993 0.734126 0.428178
    outer loop
      vertex 85.7683 129.787 153.349
      vertex 84.9949 129.1 153.575
      vertex 86.014 129.106 154.819
    endloop
  endfacet
  facet normal -0.223594 0.869601 0.440228
    outer loop
      vertex 86.699 129.88 153.638
      vertex 85.7683 129.787 153.349
      vertex 86.014 129.106 154.819
    endloop
  endfacet
  facet normal -0.109036 0.859212 0.499865
    outer loop
      vertex 86.699 129.88 153.638
      vertex 86.014 129.106 154.819
      vertex 86.9946 129.053 155.124
    endloop
  endfacet
  facet normal 0.126912 0.877244 0.462965
    outer loop
      vertex 87.884 129.869 153.334
      vertex 86.699 129.88 153.638
      vertex 86.9946 129.053 155.124
    endloop
  endfacet
  facet normal 0.359392 0.76875 0.529019
    outer loop
      vertex 87.884 129.869 153.334
      vertex 86.9946 129.053 155.124
      vertex 88.0224 128.834 154.744
    endloop
  endfacet
  facet normal 0.315384 0.779493 0.541224
    outer loop
      vertex 89.0378 129.423 153.304
      vertex 87.884 129.869 153.334
      vertex 88.0224 128.834 154.744
    endloop
  endfacet
  facet normal -0.584883 -0.745129 0.320461
    outer loop
      vertex 84.0918 120.501 155.851
      vertex 83.9326 121.127 157.016
      vertex 83.1657 121.083 155.514
    endloop
  endfacet
  facet normal 0.139744 -0.957098 0.253839
    outer loop
      vertex 84.7998 120.441 155.235
      vertex 84.9517 120.874 156.784
      vertex 84.0918 120.501 155.851
    endloop
  endfacet
  facet normal -0.114577 -0.881526 0.458021
    outer loop
      vertex 83.9326 121.127 157.016
      vertex 84.0918 120.501 155.851
      vertex 84.9517 120.874 156.784
    endloop
  endfacet
  facet normal 0.314142 -0.921866 0.226888
    outer loop
      vertex 84.9517 120.874 156.784
      vertex 84.7998 120.441 155.235
      vertex 85.9018 120.945 155.757
    endloop
  endfacet
  facet normal -0.767826 -0.56652 0.299161
    outer loop
      vertex 83.1657 121.083 155.514
      vertex 82.9999 122.028 156.878
      vertex 82.3206 122.014 155.108
    endloop
  endfacet
  facet normal -0.674564 -0.642661 0.363249
    outer loop
      vertex 82.9999 122.028 156.878
      vertex 83.1657 121.083 155.514
      vertex 83.9326 121.127 157.016
    endloop
  endfacet
  facet normal -0.498385 -0.397949 0.770227
    outer loop
      vertex 83.9326 121.127 157.016
      vertex 84.0881 122.02 157.578
      vertex 82.9999 122.028 156.878
    endloop
  endfacet
  facet normal 0.0199119 -0.630971 0.775551
    outer loop
      vertex 84.9517 120.874 156.784
      vertex 84.9689 121.864 157.589
      vertex 83.9326 121.127 157.016
    endloop
  endfacet
  facet normal -0.102188 -0.517042 0.849838
    outer loop
      vertex 84.0881 122.02 157.578
      vertex 83.9326 121.127 157.016
      vertex 84.9689 121.864 157.589
    endloop
  endfacet
  facet normal 0.49094 -0.773574 0.4007
    outer loop
      vertex 85.9018 120.945 155.757
      vertex 86.0188 121.876 157.411
      vertex 84.9517 120.874 156.784
    endloop
  endfacet
  facet normal 0.137258 -0.626351 0.767362
    outer loop
      vertex 84.9689 121.864 157.589
      vertex 84.9517 120.874 156.784
      vertex 86.0188 121.876 157.411
    endloop
  endfacet
  facet normal 0.427154 -0.847002 0.316428
    outer loop
      vertex 87.0929 121.298 155.094
      vertex 87.0689 121.952 156.877
      vertex 85.9018 120.945 155.757
    endloop
  endfacet
  facet normal 0.29155 -0.842244 0.453457
    outer loop
      vertex 86.0188 121.876 157.411
      vertex 85.9018 120.945 155.757
      vertex 87.0689 121.952 156.877
    endloop
  endfacet
  facet normal 0.567285 -0.770654 0.29031
    outer loop
      vertex 87.0689 121.952 156.877
      vertex 87.0929 121.298 155.094
      vertex 88.0724 122.236 155.67
    endloop
  endfacet
  facet normal -0.830473 -0.259487 0.492931
    outer loop
      vertex 81.9857 123.133 155.751
      vertex 82.9999 122.028 156.878
      vertex 82.8734 123.244 157.305
    endloop
  endfacet
  facet normal -0.838249 -0.437725 0.32517
    outer loop
      vertex 82.3206 122.014 155.108
      vertex 82.9999 122.028 156.878
      vertex 81.9857 123.133 155.751
    endloop
  endfacet
  facet normal -0.534229 -0.167484 0.828583
    outer loop
      vertex 82.9999 122.028 156.878
      vertex 84.0881 122.02 157.578
      vertex 83.939 122.926 157.665
    endloop
  endfacet
  facet normal -0.39062 -0.340906 0.855102
    outer loop
      vertex 82.8734 123.244 157.305
      vertex 82.9999 122.028 156.878
      vertex 83.939 122.926 157.665
    endloop
  endfacet
  facet normal -0.0230651 -0.0598614 0.99794
    outer loop
      vertex 84.9689 121.864 157.589
      vertex 85.0094 122.932 157.654
      vertex 84.0881 122.02 157.578
    endloop
  endfacet
  facet normal 0.0107565 -0.0938271 0.99553
    outer loop
      vertex 83.939 122.926 157.665
      vertex 84.0881 122.02 157.578
      vertex 85.0094 122.932 157.654
    endloop
  endfacet
  facet normal 0.164743 -0.24623 0.955108
    outer loop
      vertex 86.0188 121.876 157.411
      vertex 86.0345 122.992 157.696
      vertex 84.9689 121.864 157.589
    endloop
  endfacet
  facet normal -0.0374003 -0.0592934 0.99754
    outer loop
      vertex 85.0094 122.932 157.654
      vertex 84.9689 121.864 157.589
      vertex 86.0345 122.992 157.696
    endloop
  endfacet
  facet normal 0.409206 -0.55264 0.726043
    outer loop
      vertex 87.0689 121.952 156.877
      vertex 87.0773 122.958 157.638
      vertex 86.0188 121.876 157.411
    endloop
  endfacet
  facet normal 0.0457462 -0.24778 0.967736
    outer loop
      vertex 86.0345 122.992 157.696
      vertex 86.0188 121.876 157.411
      vertex 87.0773 122.958 157.638
    endloop
  endfacet
  facet normal 0.648715 -0.656545 0.38486
    outer loop
      vertex 88.0724 122.236 155.67
      vertex 87.8936 122.829 156.983
      vertex 87.0689 121.952 156.877
    endloop
  endfacet
  facet normal 0.476771 -0.532839 0.699122
    outer loop
      vertex 87.0773 122.958 157.638
      vertex 87.0689 121.952 156.877
      vertex 87.8936 122.829 156.983
    endloop
  endfacet
  facet normal 0.828478 -0.459385 0.320295
    outer loop
      vertex 87.8936 122.829 156.983
      vertex 88.0724 122.236 155.67
      vertex 88.653 123.304 155.7
    endloop
  endfacet
  facet normal -0.839538 -0.23247 0.491053
    outer loop
      vertex 81.9857 123.133 155.751
      vertex 82.1642 123.967 156.451
      vertex 81.6598 124.01 155.609
    endloop
  endfacet
  facet normal -0.836394 -0.236158 0.494646
    outer loop
      vertex 82.1642 123.967 156.451
      vertex 81.9857 123.133 155.751
      vertex 82.8734 123.244 157.305
    endloop
  endfacet
  facet normal -0.696383 0.146712 0.702515
    outer loop
      vertex 82.8734 123.244 157.305
      vertex 82.8792 123.985 157.156
      vertex 82.1642 123.967 156.451
    endloop
  endfacet
  facet normal -0.364154 -0.1875 0.91227
    outer loop
      vertex 83.939 122.926 157.665
      vertex 83.7178 124.173 157.833
      vertex 82.8734 123.244 157.305
    endloop
  endfacet
  facet normal -0.641401 0.156064 0.751165
    outer loop
      vertex 82.8792 123.985 157.156
      vertex 82.8734 123.244 157.305
      vertex 83.7178 124.173 157.833
    endloop
  endfacet
  facet normal 0.0112734 -0.224946 0.974306
    outer loop
      vertex 85.0094 122.932 157.654
      vertex 84.9991 123.958 157.891
      vertex 83.939 122.926 157.665
    endloop
  endfacet
  facet normal -0.0690448 -0.145218 0.986988
    outer loop
      vertex 83.7178 124.173 157.833
      vertex 83.939 122.926 157.665
      vertex 84.9991 123.958 157.891
    endloop
  endfacet
  facet normal -0.0430107 0.035938 0.998428
    outer loop
      vertex 86.0345 122.992 157.696
      vertex 86.0638 124.055 157.659
      vertex 85.0094 122.932 157.654
    endloop
  endfacet
  facet normal 0.226668 -0.217049 0.94948
    outer loop
      vertex 84.9991 123.958 157.891
      vertex 85.0094 122.932 157.654
      vertex 86.0638 124.055 157.659
    endloop
  endfacet
  facet normal 0.0566696 0.0360594 0.997742
    outer loop
      vertex 87.0773 122.958 157.638
      vertex 87.1077 124.017 157.598
      vertex 86.0345 122.992 157.696
    endloop
  endfacet
  facet normal 0.0595035 0.0330863 0.99768
    outer loop
      vertex 86.0638 124.055 157.659
      vertex 86.0345 122.992 157.696
      vertex 87.1077 124.017 157.598
    endloop
  endfacet
  facet normal 0.604337 -0.14943 0.78259
    outer loop
      vertex 87.8936 122.829 156.983
      vertex 88.0419 123.743 157.043
      vertex 87.0773 122.958 157.638
    endloop
  endfacet
  facet normal 0.51449 0.017613 0.857316
    outer loop
      vertex 87.1077 124.017 157.598
      vertex 87.0773 122.958 157.638
      vertex 88.0419 123.743 157.043
    endloop
  endfacet
  facet normal 0.898075 -0.075476 0.433319
    outer loop
      vertex 88.653 123.304 155.7
      vertex 88.7815 124.345 155.615
      vertex 88.0419 123.743 157.043
    endloop
  endfacet
  facet normal 0.874331 -0.171664 0.453957
    outer loop
      vertex 87.8936 122.829 156.983
      vertex 88.653 123.304 155.7
      vertex 88.0419 123.743 157.043
    endloop
  endfacet
  facet normal -0.736064 0.490962 0.466012
    outer loop
      vertex 81.8753 124.372 155.568
      vertex 81.6598 124.01 155.609
      vertex 82.1642 123.967 156.451
    endloop
  endfacet
  facet normal -0.477069 0.72922 0.490554
    outer loop
      vertex 82.6486 124.814 155.663
      vertex 81.8753 124.372 155.568
      vertex 82.1642 123.967 156.451
    endloop
  endfacet
  facet normal -0.491203 0.727117 0.479605
    outer loop
      vertex 82.6486 124.814 155.663
      vertex 82.1642 123.967 156.451
      vertex 82.8792 123.985 157.156
    endloop
  endfacet
  facet normal -0.537299 0.699396 0.471333
    outer loop
      vertex 82.6486 124.814 155.663
      vertex 82.8792 123.985 157.156
      vertex 83.7178 124.173 157.833
    endloop
  endfacet
  facet normal -0.891506 -0.279103 0.356817
    outer loop
      vertex 83.7178 124.173 157.833
      vertex 83.142 125.396 157.351
      vertex 82.6486 124.814 155.663
    endloop
  endfacet
  facet normal 0.229807 -0.356169 0.905722
    outer loop
      vertex 86.0638 124.055 157.659
      vertex 85.9323 125.145 158.121
      vertex 84.9991 123.958 157.891
    endloop
  endfacet
  facet normal 0.0606305 0.0668746 0.995918
    outer loop
      vertex 87.1077 124.017 157.598
      vertex 87.0843 125.036 157.531
      vertex 86.0638 124.055 157.659
    endloop
  endfacet
  facet normal 0.40913 -0.313807 0.856818
    outer loop
      vertex 85.9323 125.145 158.121
      vertex 86.0638 124.055 157.659
      vertex 87.0843 125.036 157.531
    endloop
  endfacet
  facet normal 0.530595 0.105503 0.841034
    outer loop
      vertex 88.0419 123.743 157.043
      vertex 88.0602 124.767 156.903
      vertex 87.1077 124.017 157.598
    endloop
  endfacet
  facet normal 0.552971 0.0673028 0.830478
    outer loop
      vertex 87.0843 125.036 157.531
      vertex 87.1077 124.017 157.598
      vertex 88.0602 124.767 156.903
    endloop
  endfacet
  facet normal 0.881498 0.0949591 0.46254
    outer loop
      vertex 88.7815 124.345 155.615
      vertex 88.7506 125.343 155.469
      vertex 88.0602 124.767 156.903
    endloop
  endfacet
  facet normal 0.878242 0.0493371 0.475664
    outer loop
      vertex 88.0419 123.743 157.043
      vertex 88.7815 124.345 155.615
      vertex 88.0602 124.767 156.903
    endloop
  endfacet
  facet normal -0.866018 -0.375997 -0.329605
    outer loop
      vertex 82.7722 126.047 157.58
      vertex 83.0972 126.211 156.539
      vertex 83.142 125.396 157.351
    endloop
  endfacet
  facet normal -0.887705 -0.348531 -0.300841
    outer loop
      vertex 83.0972 126.211 156.539
      vertex 83.5123 126.193 155.335
      vertex 83.142 125.396 157.351
    endloop
  endfacet
  facet normal -0.839605 0.539956 0.0592457
    outer loop
      vertex 83.5123 126.193 155.335
      vertex 82.6486 124.814 155.663
      vertex 83.142 125.396 157.351
    endloop
  endfacet
  facet normal 0.457854 0.0294496 0.888539
    outer loop
      vertex 87.0843 125.036 157.531
      vertex 86.9 125.91 157.597
      vertex 85.9323 125.145 158.121
    endloop
  endfacet
  facet normal 0.531886 -0.0965597 0.841293
    outer loop
      vertex 85.9323 125.145 158.121
      vertex 86.9 125.91 157.597
      vertex 86.0309 126.359 158.198
    endloop
  endfacet
  facet normal 0.571124 0.237722 0.785688
    outer loop
      vertex 88.0602 124.767 156.903
      vertex 87.9061 125.904 156.671
      vertex 87.0843 125.036 157.531
    endloop
  endfacet
  facet normal 0.674924 0.086988 0.732742
    outer loop
      vertex 86.9 125.91 157.597
      vertex 87.0843 125.036 157.531
      vertex 87.9061 125.904 156.671
    endloop
  endfacet
  facet normal 0.843475 0.214903 0.492308
    outer loop
      vertex 88.7506 125.343 155.469
      vertex 88.6651 126.249 155.22
      vertex 87.9061 125.904 156.671
    endloop
  endfacet
  facet normal 0.843473 0.214782 0.492363
    outer loop
      vertex 88.0602 124.767 156.903
      vertex 88.7506 125.343 155.469
      vertex 87.9061 125.904 156.671
    endloop
  endfacet
  facet normal -0.839207 0.512727 -0.181225
    outer loop
      vertex 82.7722 126.047 157.58
      vertex 83.2038 126.746 157.559
      vertex 83.0972 126.211 156.539
    endloop
  endfacet
  facet normal -0.777034 0.587188 -0.226778
    outer loop
      vertex 83.0972 126.211 156.539
      vertex 83.2038 126.746 157.559
      vertex 83.7231 126.901 156.181
    endloop
  endfacet
  facet normal -0.778828 0.562794 -0.276928
    outer loop
      vertex 83.5123 126.193 155.335
      vertex 83.0972 126.211 156.539
      vertex 83.7231 126.901 156.181
    endloop
  endfacet
  facet normal -0.682464 0.63523 -0.36156
    outer loop
      vertex 84.5743 127.47 155.574
      vertex 83.5123 126.193 155.335
      vertex 83.7231 126.901 156.181
    endloop
  endfacet
  facet normal 0.643302 0.305557 0.701995
    outer loop
      vertex 86.9 125.91 157.597
      vertex 87.0586 126.819 157.056
      vertex 86.0309 126.359 158.198
    endloop
  endfacet
  facet normal 0.546701 0.48069 0.685606
    outer loop
      vertex 86.0309 126.359 158.198
      vertex 87.0586 126.819 157.056
      vertex 86.0439 127.374 157.476
    endloop
  endfacet
  facet normal 0.704063 0.407379 0.581668
    outer loop
      vertex 88.0263 127.027 155.739
      vertex 87.0586 126.819 157.056
      vertex 87.9061 125.904 156.671
    endloop
  endfacet
  facet normal 0.646157 0.30392 0.700081
    outer loop
      vertex 87.9061 125.904 156.671
      vertex 87.0586 126.819 157.056
      vertex 86.9 125.91 157.597
    endloop
  endfacet
  facet normal 0.803109 0.327264 0.497909
    outer loop
      vertex 88.6651 126.249 155.22
      vertex 88.0263 127.027 155.739
      vertex 87.9061 125.904 156.671
    endloop
  endfacet
  facet normal -0.627294 0.764113 -0.150447
    outer loop
      vertex 83.2038 126.746 157.559
      vertex 84.0749 127.393 157.213
      vertex 83.7231 126.901 156.181
    endloop
  endfacet
  facet normal -0.622521 0.767376 -0.15363
    outer loop
      vertex 84.5743 127.47 155.574
      vertex 83.7231 126.901 156.181
      vertex 84.0749 127.393 157.213
    endloop
  endfacet
  facet normal -0.184308 0.982818 -0.00998555
    outer loop
      vertex 84.0749 127.393 157.213
      vertex 84.9666 127.564 157.585
      vertex 84.5743 127.47 155.574
    endloop
  endfacet
  facet normal 0.199245 0.854064 0.480495
    outer loop
      vertex 86.0439 127.374 157.476
      vertex 85.9349 128.164 156.117
      vertex 84.9666 127.564 157.585
    endloop
  endfacet
  facet normal -0.469694 0.881388 0.0504279
    outer loop
      vertex 84.5743 127.47 155.574
      vertex 84.9666 127.564 157.585
      vertex 85.9349 128.164 156.117
    endloop
  endfacet
  facet normal 0.179814 0.856646 0.483554
    outer loop
      vertex 87.172 127.954 156.029
      vertex 85.9349 128.164 156.117
      vertex 86.0439 127.374 157.476
    endloop
  endfacet
  facet normal 0.554756 0.527081 0.643764
    outer loop
      vertex 87.172 127.954 156.029
      vertex 86.0439 127.374 157.476
      vertex 87.0586 126.819 157.056
    endloop
  endfacet
  facet normal 0.683876 0.450772 0.573688
    outer loop
      vertex 88.0263 127.027 155.739
      vertex 87.172 127.954 156.029
      vertex 87.0586 126.819 157.056
    endloop
  endfacet
  facet normal -0.883443 -0.263153 0.387658
    outer loop
      vertex 83.142 125.396 157.351
      vertex 83.7178 124.173 157.833
      vertex 83.9283 125.293 159.073
    endloop
  endfacet
  facet normal -0.147236 -0.684964 0.713545
    outer loop
      vertex 84.9991 123.958 157.891
      vertex 84.814 124.802 158.663
      vertex 83.7178 124.173 157.833
    endloop
  endfacet
  facet normal -0.0923532 -0.731082 0.67601
    outer loop
      vertex 83.9283 125.293 159.073
      vertex 83.7178 124.173 157.833
      vertex 84.814 124.802 158.663
    endloop
  endfacet
  facet normal 0.496211 -0.524214 0.69208
    outer loop
      vertex 84.814 124.802 158.663
      vertex 84.9991 123.958 157.891
      vertex 85.9323 125.145 158.121
    endloop
  endfacet
  facet normal -0.779246 -0.54899 0.302302
    outer loop
      vertex 83.142 125.396 157.351
      vertex 83.2018 126.098 158.78
      vertex 82.7722 126.047 157.58
    endloop
  endfacet
  facet normal -0.758986 -0.571268 0.312399
    outer loop
      vertex 83.2018 126.098 158.78
      vertex 83.142 125.396 157.351
      vertex 83.9283 125.293 159.073
    endloop
  endfacet
  facet normal -0.635816 -0.317802 0.703378
    outer loop
      vertex 83.9283 125.293 159.073
      vertex 84.0669 126.233 159.623
      vertex 83.2018 126.098 158.78
    endloop
  endfacet
  facet normal 0.13411 -0.481379 0.866192
    outer loop
      vertex 84.814 124.802 158.663
      vertex 84.9831 125.774 159.177
      vertex 83.9283 125.293 159.073
    endloop
  endfacet
  facet normal 0.152055 -0.515747 0.84314
    outer loop
      vertex 84.0669 126.233 159.623
      vertex 83.9283 125.293 159.073
      vertex 84.9831 125.774 159.177
    endloop
  endfacet
  facet normal 0.708926 -0.101843 0.697891
    outer loop
      vertex 86.0309 126.359 158.198
      vertex 84.9831 125.774 159.177
      vertex 85.9323 125.145 158.121
    endloop
  endfacet
  facet normal 0.497513 -0.471568 0.728083
    outer loop
      vertex 84.814 124.802 158.663
      vertex 85.9323 125.145 158.121
      vertex 84.9831 125.774 159.177
    endloop
  endfacet
  facet normal -0.815566 0.511693 0.270226
    outer loop
      vertex 83.2038 126.746 157.559
      vertex 82.7722 126.047 157.58
      vertex 83.2018 126.098 158.78
    endloop
  endfacet
  facet normal -0.743956 0.590759 0.312304
    outer loop
      vertex 83.2018 126.098 158.78
      vertex 83.9261 127.017 158.767
      vertex 83.2038 126.746 157.559
    endloop
  endfacet
  facet normal -0.639178 0.51188 0.573961
    outer loop
      vertex 83.9261 127.017 158.767
      vertex 83.2018 126.098 158.78
      vertex 84.0669 126.233 159.623
    endloop
  endfacet
  facet normal 0.510556 0.208572 0.834164
    outer loop
      vertex 84.9831 125.774 159.177
      vertex 84.9765 126.842 158.914
      vertex 84.0669 126.233 159.623
    endloop
  endfacet
  facet normal 0.0290871 0.739507 0.672521
    outer loop
      vertex 83.9261 127.017 158.767
      vertex 84.0669 126.233 159.623
      vertex 84.9765 126.842 158.914
    endloop
  endfacet
  facet normal 0.633623 0.443031 0.634229
    outer loop
      vertex 86.0439 127.374 157.476
      vertex 84.9765 126.842 158.914
      vertex 86.0309 126.359 158.198
    endloop
  endfacet
  facet normal 0.610188 0.192991 0.768391
    outer loop
      vertex 84.9831 125.774 159.177
      vertex 86.0309 126.359 158.198
      vertex 84.9765 126.842 158.914
    endloop
  endfacet
  facet normal -0.551913 0.821055 0.145812
    outer loop
      vertex 84.0749 127.393 157.213
      vertex 83.2038 126.746 157.559
      vertex 83.9261 127.017 158.767
    endloop
  endfacet
  facet normal -0.265314 0.942621 0.202668
    outer loop
      vertex 84.9666 127.564 157.585
      vertex 84.0749 127.393 157.213
      vertex 83.9261 127.017 158.767
    endloop
  endfacet
  facet normal 0.0794422 0.876174 0.475403
    outer loop
      vertex 84.9666 127.564 157.585
      vertex 83.9261 127.017 158.767
      vertex 84.9765 126.842 158.914
    endloop
  endfacet
  facet normal 0.199194 0.861715 0.466657
    outer loop
      vertex 86.0439 127.374 157.476
      vertex 84.9666 127.564 157.585
      vertex 84.9765 126.842 158.914
    endloop
  endfacet
endsolid
