solid ascii
  facet normal -0.191823 -0.881852 -0.430744
    outer loop
      vertex 81.149 133.016 157.825
      vertex 80.8251 132.175 159.691
      vertex 79.9537 132.832 158.734
    endloop
  endfacet
  facet normal -0.0151398 -0.940998 -0.338073
    outer loop
      vertex 82.4602 132.987 157.847
      vertex 82.0029 132.343 159.66
      vertex 81.149 133.016 157.825
    endloop
  endfacet
  facet normal 0.119912 -0.912737 -0.390553
    outer loop
      vertex 80.8251 132.175 159.691
      vertex 81.149 133.016 157.825
      vertex 82.0029 132.343 159.66
    endloop
  endfacet
  facet normal 0.418419 -0.768904 -0.483438
    outer loop
      vertex 83.3601 133.19 158.303
      vertex 83.055 132.587 158.998
      vertex 82.4602 132.987 157.847
    endloop
  endfacet
  facet normal 0.00942832 -0.943023 -0.332595
    outer loop
      vertex 82.0029 132.343 159.66
      vertex 82.4602 132.987 157.847
      vertex 83.055 132.587 158.998
    endloop
  endfacet
  facet normal 0.797273 -0.583128 -0.15594
    outer loop
      vertex 83.3601 133.19 158.303
      vertex 83.5567 133.128 159.54
      vertex 83.055 132.587 158.998
    endloop
  endfacet
  facet normal -0.552324 -0.704629 -0.445463
    outer loop
      vertex 79.1802 133.895 157.903
      vertex 78.9021 132.829 159.934
      vertex 77.9837 133.987 159.241
    endloop
  endfacet
  facet normal -0.319802 -0.716953 -0.61944
    outer loop
      vertex 79.9537 132.832 158.734
      vertex 79.1802 133.895 157.903
      vertex 80.2721 133.973 157.249
    endloop
  endfacet
  facet normal -0.514494 -0.728265 -0.452689
    outer loop
      vertex 78.9021 132.829 159.934
      vertex 79.1802 133.895 157.903
      vertex 79.9537 132.832 158.734
    endloop
  endfacet
  facet normal -0.360349 -0.700763 -0.615694
    outer loop
      vertex 81.149 133.016 157.825
      vertex 79.9537 132.832 158.734
      vertex 80.2721 133.973 157.249
    endloop
  endfacet
  facet normal -0.185826 -0.626075 -0.757297
    outer loop
      vertex 80.2721 133.973 157.249
      vertex 81.0289 134.029 157.017
      vertex 81.149 133.016 157.825
    endloop
  endfacet
  facet normal 0.00599895 -0.417938 -0.908456
    outer loop
      vertex 81.149 133.016 157.825
      vertex 81.8204 134.019 157.368
      vertex 82.4602 132.987 157.847
    endloop
  endfacet
  facet normal 0.328554 -0.564835 -0.756977
    outer loop
      vertex 81.8204 134.019 157.368
      vertex 81.149 133.016 157.825
      vertex 81.0289 134.029 157.017
    endloop
  endfacet
  facet normal 0.452116 -0.000622589 -0.891959
    outer loop
      vertex 82.4602 132.987 157.847
      vertex 82.9252 133.989 158.082
      vertex 83.3601 133.19 158.303
    endloop
  endfacet
  facet normal 0.540949 -0.0541953 -0.839308
    outer loop
      vertex 82.9252 133.989 158.082
      vertex 82.4602 132.987 157.847
      vertex 81.8204 134.019 157.368
    endloop
  endfacet
  facet normal 0.980938 -0.108318 -0.161332
    outer loop
      vertex 83.5567 133.128 159.54
      vertex 83.3601 133.19 158.303
      vertex 83.5591 133.817 159.092
    endloop
  endfacet
  facet normal 0.825774 0.321253 -0.463567
    outer loop
      vertex 83.5591 133.817 159.092
      vertex 83.3601 133.19 158.303
      vertex 82.9252 133.989 158.082
    endloop
  endfacet
  facet normal -0.717404 -0.318392 -0.619643
    outer loop
      vertex 77.9837 133.987 159.241
      vertex 78.9051 135.052 157.627
      vertex 79.1802 133.895 157.903
    endloop
  endfacet
  facet normal -0.659386 -0.397036 -0.638415
    outer loop
      vertex 78.9051 135.052 157.627
      vertex 77.9837 133.987 159.241
      vertex 78.0598 135.192 158.413
    endloop
  endfacet
  facet normal -0.464422 -0.34337 -0.816339
    outer loop
      vertex 79.1802 133.895 157.903
      vertex 79.8184 134.929 157.105
      vertex 80.2721 133.973 157.249
    endloop
  endfacet
  facet normal -0.502784 -0.311863 -0.806195
    outer loop
      vertex 79.8184 134.929 157.105
      vertex 79.1802 133.895 157.903
      vertex 78.9051 135.052 157.627
    endloop
  endfacet
  facet normal -0.298098 0.350783 -0.887744
    outer loop
      vertex 81.0289 134.029 157.017
      vertex 80.2721 133.973 157.249
      vertex 80.9046 135.004 157.444
    endloop
  endfacet
  facet normal 0.29807 -0.00232175 -0.954541
    outer loop
      vertex 80.9046 135.004 157.444
      vertex 80.2721 133.973 157.249
      vertex 79.8184 134.929 157.105
    endloop
  endfacet
  facet normal 0.651283 0.63731 -0.411906
    outer loop
      vertex 81.8204 134.019 157.368
      vertex 80.9046 135.004 157.444
      vertex 82.0258 134.924 159.093
    endloop
  endfacet
  facet normal 0.373787 0.411657 -0.831157
    outer loop
      vertex 80.9046 135.004 157.444
      vertex 81.8204 134.019 157.368
      vertex 81.0289 134.029 157.017
    endloop
  endfacet
  facet normal 0.325631 0.820762 -0.469376
    outer loop
      vertex 82.9252 133.989 158.082
      vertex 81.8204 134.019 157.368
      vertex 82.0258 134.924 159.093
    endloop
  endfacet
  facet normal 0.536612 0.801508 -0.263879
    outer loop
      vertex 82.0258 134.924 159.093
      vertex 83.0507 134.411 159.619
      vertex 82.9252 133.989 158.082
    endloop
  endfacet
  facet normal 0.610677 0.74948 -0.255641
    outer loop
      vertex 83.5591 133.817 159.092
      vertex 82.9252 133.989 158.082
      vertex 83.0507 134.411 159.619
    endloop
  endfacet
  facet normal -0.622624 0.299489 -0.722942
    outer loop
      vertex 78.0598 135.192 158.413
      vertex 78.8582 135.978 158.051
      vertex 78.9051 135.052 157.627
    endloop
  endfacet
  facet normal -0.685669 0.423976 -0.591695
    outer loop
      vertex 78.8582 135.978 158.051
      vertex 78.0598 135.192 158.413
      vertex 78.1212 136.271 159.115
    endloop
  endfacet
  facet normal -0.346899 0.573557 -0.742088
    outer loop
      vertex 78.9051 135.052 157.627
      vertex 79.9277 136.025 157.901
      vertex 79.8184 134.929 157.105
    endloop
  endfacet
  facet normal -0.144407 0.405897 -0.902438
    outer loop
      vertex 79.9277 136.025 157.901
      vertex 78.9051 135.052 157.627
      vertex 78.8582 135.978 158.051
    endloop
  endfacet
  facet normal 0.570188 0.721443 -0.392945
    outer loop
      vertex 80.9046 135.004 157.444
      vertex 79.9277 136.025 157.901
      vertex 80.9661 135.981 159.327
    endloop
  endfacet
  facet normal 0.211213 0.560511 -0.80076
    outer loop
      vertex 79.9277 136.025 157.901
      vertex 80.9046 135.004 157.444
      vertex 79.8184 134.929 157.105
    endloop
  endfacet
  facet normal 0.609531 0.695369 -0.380702
    outer loop
      vertex 82.0258 134.924 159.093
      vertex 80.9046 135.004 157.444
      vertex 80.9661 135.981 159.327
    endloop
  endfacet
  facet normal -0.275034 0.861096 -0.427633
    outer loop
      vertex 78.1212 136.271 159.115
      vertex 79.3693 136.764 159.305
      vertex 78.8582 135.978 158.051
    endloop
  endfacet
  facet normal -0.107455 0.86153 -0.496206
    outer loop
      vertex 79.9277 136.025 157.901
      vertex 78.8582 135.978 158.051
      vertex 79.3693 136.764 159.305
    endloop
  endfacet
  facet normal 0.185124 0.898042 -0.39906
    outer loop
      vertex 79.3693 136.764 159.305
      vertex 80.2817 136.731 159.654
      vertex 79.9277 136.025 157.901
    endloop
  endfacet
  facet normal 0.582204 0.70662 -0.402153
    outer loop
      vertex 80.9661 135.981 159.327
      vertex 79.9277 136.025 157.901
      vertex 80.2817 136.731 159.654
    endloop
  endfacet
  facet normal -0.504926 -0.857549 -0.0982799
    outer loop
      vertex 79.0777 132.498 161.92
      vertex 78.1284 133.106 161.492
      vertex 78.9021 132.829 159.934
    endloop
  endfacet
  facet normal -0.233204 -0.950197 -0.20674
    outer loop
      vertex 79.9537 132.832 158.734
      vertex 80.0567 132.263 161.233
      vertex 78.9021 132.829 159.934
    endloop
  endfacet
  facet normal -0.315971 -0.939996 -0.128728
    outer loop
      vertex 79.0777 132.498 161.92
      vertex 78.9021 132.829 159.934
      vertex 80.0567 132.263 161.233
    endloop
  endfacet
  facet normal -0.459214 -0.870067 -0.179179
    outer loop
      vertex 80.0567 132.263 161.233
      vertex 79.9537 132.832 158.734
      vertex 80.8251 132.175 159.691
    endloop
  endfacet
  facet normal -0.0809463 -0.996581 0.016537
    outer loop
      vertex 80.8251 132.175 159.691
      vertex 81.1768 132.173 161.292
      vertex 80.0567 132.263 161.233
    endloop
  endfacet
  facet normal 0.618201 -0.750134 0.234788
    outer loop
      vertex 81.1768 132.173 161.292
      vertex 82.0029 132.343 159.66
      vertex 82.0341 133.026 161.76
    endloop
  endfacet
  facet normal 0.14031 -0.989588 -0.0320588
    outer loop
      vertex 82.0029 132.343 159.66
      vertex 81.1768 132.173 161.292
      vertex 80.8251 132.175 159.691
    endloop
  endfacet
  facet normal 0.305944 -0.941835 0.139087
    outer loop
      vertex 83.055 132.587 158.998
      vertex 82.9883 132.774 160.411
      vertex 82.0029 132.343 159.66
    endloop
  endfacet
  facet normal 0.179475 -0.936307 0.301856
    outer loop
      vertex 82.0341 133.026 161.76
      vertex 82.0029 132.343 159.66
      vertex 82.9883 132.774 160.411
    endloop
  endfacet
  facet normal 0.659249 -0.74075 0.129152
    outer loop
      vertex 82.9883 132.774 160.411
      vertex 83.055 132.587 158.998
      vertex 83.5567 133.128 159.54
    endloop
  endfacet
  facet normal -0.665027 -0.708972 -0.234729
    outer loop
      vertex 77.9837 133.987 159.241
      vertex 78.1284 133.106 161.492
      vertex 77.0845 134.114 161.405
    endloop
  endfacet
  facet normal -0.694316 -0.6842 -0.223151
    outer loop
      vertex 78.9021 132.829 159.934
      vertex 78.1284 133.106 161.492
      vertex 77.9837 133.987 159.241
    endloop
  endfacet
  facet normal 0.753797 -0.293356 0.58799
    outer loop
      vertex 82.9883 132.774 160.411
      vertex 83.1876 133.693 160.614
      vertex 82.0341 133.026 161.76
    endloop
  endfacet
  facet normal 0.648004 0.159088 0.744837
    outer loop
      vertex 82.0341 133.026 161.76
      vertex 83.1876 133.693 160.614
      vertex 82.2268 134.362 161.307
    endloop
  endfacet
  facet normal 0.956449 0.156771 0.246229
    outer loop
      vertex 83.5591 133.817 159.092
      vertex 83.1876 133.693 160.614
      vertex 83.5567 133.128 159.54
    endloop
  endfacet
  facet normal 0.851871 -0.282204 0.441221
    outer loop
      vertex 82.9883 132.774 160.411
      vertex 83.5567 133.128 159.54
      vertex 83.1876 133.693 160.614
    endloop
  endfacet
  facet normal -0.694066 -0.647454 -0.314764
    outer loop
      vertex 76.0655 135.219 161.379
      vertex 76.9993 135.095 159.575
      vertex 77.0845 134.114 161.405
    endloop
  endfacet
  facet normal -0.757994 -0.588912 -0.280405
    outer loop
      vertex 77.9837 133.987 159.241
      vertex 77.0845 134.114 161.405
      vertex 76.9993 135.095 159.575
    endloop
  endfacet
  facet normal -0.66161 -0.395828 -0.636861
    outer loop
      vertex 78.0598 135.192 158.413
      vertex 77.9837 133.987 159.241
      vertex 76.9993 135.095 159.575
    endloop
  endfacet
  facet normal 0.680833 0.722285 0.121534
    outer loop
      vertex 82.2268 134.362 161.307
      vertex 82.0258 134.924 159.093
      vertex 81.1272 135.329 161.72
    endloop
  endfacet
  facet normal 0.354726 0.913405 0.199654
    outer loop
      vertex 83.0507 134.411 159.619
      vertex 82.0258 134.924 159.093
      vertex 82.2268 134.362 161.307
    endloop
  endfacet
  facet normal 0.693265 0.626299 0.356558
    outer loop
      vertex 83.0507 134.411 159.619
      vertex 82.2268 134.362 161.307
      vertex 83.1876 133.693 160.614
    endloop
  endfacet
  facet normal 0.833 0.496668 0.243789
    outer loop
      vertex 83.5591 133.817 159.092
      vertex 83.0507 134.411 159.619
      vertex 83.1876 133.693 160.614
    endloop
  endfacet
  facet normal -0.767104 -0.563647 -0.306356
    outer loop
      vertex 75.4356 136.204 161.144
      vertex 76.0656 136.051 159.848
      vertex 76.0655 135.219 161.379
    endloop
  endfacet
  facet normal -0.720573 -0.609211 -0.331114
    outer loop
      vertex 76.9993 135.095 159.575
      vertex 76.0655 135.219 161.379
      vertex 76.0656 136.051 159.848
    endloop
  endfacet
  facet normal -0.470127 -0.214692 -0.856089
    outer loop
      vertex 76.0656 136.051 159.848
      vertex 77.0695 136.309 159.232
      vertex 76.9993 135.095 159.575
    endloop
  endfacet
  facet normal -0.686409 0.423624 -0.591089
    outer loop
      vertex 78.1212 136.271 159.115
      vertex 78.0598 135.192 158.413
      vertex 76.9993 135.095 159.575
    endloop
  endfacet
  facet normal -0.11606 -0.263835 -0.95756
    outer loop
      vertex 78.1212 136.271 159.115
      vertex 76.9993 135.095 159.575
      vertex 77.0695 136.309 159.232
    endloop
  endfacet
  facet normal 0.89412 0.443696 0.0606966
    outer loop
      vertex 81.1272 135.329 161.72
      vertex 80.9661 135.981 159.327
      vertex 80.6347 136.403 161.124
    endloop
  endfacet
  facet normal 0.714564 0.68568 0.138716
    outer loop
      vertex 82.0258 134.924 159.093
      vertex 80.9661 135.981 159.327
      vertex 81.1272 135.329 161.72
    endloop
  endfacet
  facet normal -0.892462 -0.183327 -0.412193
    outer loop
      vertex 75.4356 136.204 161.144
      vertex 75.6478 136.9 160.375
      vertex 76.0656 136.051 159.848
    endloop
  endfacet
  facet normal -0.979703 0.136526 -0.146776
    outer loop
      vertex 75.6478 136.9 160.375
      vertex 75.4356 136.204 161.144
      vertex 75.4605 136.96 161.681
    endloop
  endfacet
  facet normal -0.553392 0.282458 -0.783565
    outer loop
      vertex 77.0695 136.309 159.232
      vertex 76.0656 136.051 159.848
      vertex 76.5649 137.118 159.88
    endloop
  endfacet
  facet normal -0.505841 0.261362 -0.82208
    outer loop
      vertex 76.5649 137.118 159.88
      vertex 76.0656 136.051 159.848
      vertex 75.6478 136.9 160.375
    endloop
  endfacet
  facet normal -0.0493223 0.730872 -0.68073
    outer loop
      vertex 77.0695 136.309 159.232
      vertex 77.7003 137.201 160.144
      vertex 78.1212 136.271 159.115
    endloop
  endfacet
  facet normal 0.122446 0.665866 -0.735955
    outer loop
      vertex 77.7003 137.201 160.144
      vertex 77.0695 136.309 159.232
      vertex 76.5649 137.118 159.88
    endloop
  endfacet
  facet normal 0.532854 0.724651 -0.436975
    outer loop
      vertex 78.1212 136.271 159.115
      vertex 77.7003 137.201 160.144
      vertex 78.7185 137.074 161.175
    endloop
  endfacet
  facet normal -0.319732 0.910503 -0.262213
    outer loop
      vertex 79.3693 136.764 159.305
      vertex 78.1212 136.271 159.115
      vertex 78.7185 137.074 161.175
    endloop
  endfacet
  facet normal 0.0495369 0.998154 -0.0351242
    outer loop
      vertex 80.2817 136.731 159.654
      vertex 79.3693 136.764 159.305
      vertex 79.8341 136.813 161.353
    endloop
  endfacet
  facet normal 0.238807 0.967981 -0.0773576
    outer loop
      vertex 79.8341 136.813 161.353
      vertex 79.3693 136.764 159.305
      vertex 78.7185 137.074 161.175
    endloop
  endfacet
  facet normal 0.733133 0.679648 -0.0244024
    outer loop
      vertex 80.6347 136.403 161.124
      vertex 80.9661 135.981 159.327
      vertex 80.2817 136.731 159.654
    endloop
  endfacet
  facet normal 0.472808 0.877322 0.082218
    outer loop
      vertex 80.6347 136.403 161.124
      vertex 80.2817 136.731 159.654
      vertex 79.8341 136.813 161.353
    endloop
  endfacet
  facet normal -0.780436 0.609378 -0.139922
    outer loop
      vertex 75.4605 136.96 161.681
      vertex 75.9843 137.491 161.072
      vertex 75.6478 136.9 160.375
    endloop
  endfacet
  facet normal -0.430411 0.780262 -0.453804
    outer loop
      vertex 76.5649 137.118 159.88
      vertex 75.6478 136.9 160.375
      vertex 75.9843 137.491 161.072
    endloop
  endfacet
  facet normal -0.0389034 0.948087 -0.315624
    outer loop
      vertex 75.9843 137.491 161.072
      vertex 76.9139 137.642 161.411
      vertex 76.5649 137.118 159.88
    endloop
  endfacet
  facet normal 0.00647009 0.945647 -0.325132
    outer loop
      vertex 77.7003 137.201 160.144
      vertex 76.5649 137.118 159.88
      vertex 76.9139 137.642 161.411
    endloop
  endfacet
  facet normal 0.220264 0.955569 -0.195888
    outer loop
      vertex 76.9139 137.642 161.411
      vertex 77.8427 137.522 161.87
      vertex 77.7003 137.201 160.144
    endloop
  endfacet
  facet normal 0.316805 0.92746 -0.198626
    outer loop
      vertex 78.7185 137.074 161.175
      vertex 77.7003 137.201 160.144
      vertex 77.8427 137.522 161.87
    endloop
  endfacet
  facet normal -0.608616 -0.727846 0.315955
    outer loop
      vertex 79.0777 132.498 161.92
      vertex 78.9243 133.155 163.138
      vertex 78.1284 133.106 161.492
    endloop
  endfacet
  facet normal -0.015036 -0.952435 0.30437
    outer loop
      vertex 80.0567 132.263 161.233
      vertex 79.9482 132.854 163.077
      vertex 79.0777 132.498 161.92
    endloop
  endfacet
  facet normal -0.229119 -0.868476 0.439607
    outer loop
      vertex 78.9243 133.155 163.138
      vertex 79.0777 132.498 161.92
      vertex 79.9482 132.854 163.077
    endloop
  endfacet
  facet normal -0.0927352 -0.941236 0.32477
    outer loop
      vertex 80.0567 132.263 161.233
      vertex 81.1768 132.173 161.292
      vertex 80.8767 132.667 162.638
    endloop
  endfacet
  facet normal -0.0488304 -0.951982 0.302236
    outer loop
      vertex 79.9482 132.854 163.077
      vertex 80.0567 132.263 161.233
      vertex 80.8767 132.667 162.638
    endloop
  endfacet
  facet normal 0.53136 -0.750074 0.393758
    outer loop
      vertex 80.8767 132.667 162.638
      vertex 81.1768 132.173 161.292
      vertex 82.0341 133.026 161.76
    endloop
  endfacet
  facet normal -0.670721 -0.666525 0.325388
    outer loop
      vertex 78.1284 133.106 161.492
      vertex 78.0292 134.025 163.17
      vertex 77.0845 134.114 161.405
    endloop
  endfacet
  facet normal -0.65056 -0.681645 0.334861
    outer loop
      vertex 78.0292 134.025 163.17
      vertex 78.1284 133.106 161.492
      vertex 78.9243 133.155 163.138
    endloop
  endfacet
  facet normal -0.412238 -0.453202 0.79036
    outer loop
      vertex 78.9243 133.155 163.138
      vertex 79.1177 134.083 163.771
      vertex 78.0292 134.025 163.17
    endloop
  endfacet
  facet normal -0.133432 -0.611884 0.779611
    outer loop
      vertex 79.9482 132.854 163.077
      vertex 79.8115 133.726 163.738
      vertex 78.9243 133.155 163.138
    endloop
  endfacet
  facet normal -0.22635 -0.516244 0.825989
    outer loop
      vertex 79.1177 134.083 163.771
      vertex 78.9243 133.155 163.138
      vertex 79.8115 133.726 163.738
    endloop
  endfacet
  facet normal 0.347519 -0.332615 0.876697
    outer loop
      vertex 80.8767 132.667 162.638
      vertex 80.9482 133.854 163.06
      vertex 79.9482 132.854 163.077
    endloop
  endfacet
  facet normal 0.489257 -0.476843 0.730239
    outer loop
      vertex 79.8115 133.726 163.738
      vertex 79.9482 132.854 163.077
      vertex 80.9482 133.854 163.06
    endloop
  endfacet
  facet normal 0.791937 0.0905238 0.603855
    outer loop
      vertex 82.2268 134.362 161.307
      vertex 80.9482 133.854 163.06
      vertex 82.0341 133.026 161.76
    endloop
  endfacet
  facet normal 0.633876 -0.292701 0.71591
    outer loop
      vertex 80.8767 132.667 162.638
      vertex 82.0341 133.026 161.76
      vertex 80.9482 133.854 163.06
    endloop
  endfacet
  facet normal -0.706926 -0.645083 0.290041
    outer loop
      vertex 77.0845 134.114 161.405
      vertex 76.9501 135.067 163.197
      vertex 76.0655 135.219 161.379
    endloop
  endfacet
  facet normal -0.65495 -0.686456 0.315941
    outer loop
      vertex 76.9501 135.067 163.197
      vertex 77.0845 134.114 161.405
      vertex 78.0292 134.025 163.17
    endloop
  endfacet
  facet normal -0.366591 -0.401393 0.839342
    outer loop
      vertex 78.0292 134.025 163.17
      vertex 78.0948 135.157 163.74
      vertex 76.9501 135.067 163.197
    endloop
  endfacet
  facet normal -0.484101 0.0208948 0.874762
    outer loop
      vertex 78.0292 134.025 163.17
      vertex 79.1177 134.083 163.771
      vertex 79.0394 135.032 163.705
    endloop
  endfacet
  facet normal -0.0262279 -0.448369 0.893464
    outer loop
      vertex 78.0948 135.157 163.74
      vertex 78.0292 134.025 163.17
      vertex 79.0394 135.032 163.705
    endloop
  endfacet
  facet normal 0.134394 0.170959 0.976069
    outer loop
      vertex 79.8115 133.726 163.738
      vertex 80.0644 134.749 163.524
      vertex 79.1177 134.083 163.771
    endloop
  endfacet
  facet normal 0.195751 0.0841012 0.977041
    outer loop
      vertex 79.0394 135.032 163.705
      vertex 79.1177 134.083 163.771
      vertex 80.0644 134.749 163.524
    endloop
  endfacet
  facet normal 0.716916 0.419118 0.55711
    outer loop
      vertex 81.1272 135.329 161.72
      vertex 80.0644 134.749 163.524
      vertex 80.9482 133.854 163.06
    endloop
  endfacet
  facet normal 0.506951 0.0546273 0.860242
    outer loop
      vertex 80.9482 133.854 163.06
      vertex 80.0644 134.749 163.524
      vertex 79.8115 133.726 163.738
    endloop
  endfacet
  facet normal 0.64181 0.471527 0.604766
    outer loop
      vertex 82.2268 134.362 161.307
      vertex 81.1272 135.329 161.72
      vertex 80.9482 133.854 163.06
    endloop
  endfacet
  facet normal -0.836882 -0.467088 0.285406
    outer loop
      vertex 76.0655 135.219 161.379
      vertex 75.9682 136.25 162.781
      vertex 75.4356 136.204 161.144
    endloop
  endfacet
  facet normal -0.779539 -0.5292 0.335061
    outer loop
      vertex 75.9682 136.25 162.781
      vertex 76.0655 135.219 161.379
      vertex 76.9501 135.067 163.197
    endloop
  endfacet
  facet normal -0.619461 -0.252811 0.743206
    outer loop
      vertex 76.9501 135.067 163.197
      vertex 77.0513 136.236 163.679
      vertex 75.9682 136.25 162.781
    endloop
  endfacet
  facet normal -0.406627 -0.20274 0.890815
    outer loop
      vertex 76.9501 135.067 163.197
      vertex 78.0948 135.157 163.74
      vertex 77.8074 135.896 163.777
    endloop
  endfacet
  facet normal -0.272189 -0.346562 0.897668
    outer loop
      vertex 77.0513 136.236 163.679
      vertex 76.9501 135.067 163.197
      vertex 77.8074 135.896 163.777
    endloop
  endfacet
  facet normal 0.0894155 0.423249 0.90159
    outer loop
      vertex 79.0394 135.032 163.705
      vertex 78.9115 136.237 163.152
      vertex 78.0948 135.157 163.74
    endloop
  endfacet
  facet normal 0.456649 0.133555 0.879565
    outer loop
      vertex 77.8074 135.896 163.777
      vertex 78.0948 135.157 163.74
      vertex 78.9115 136.237 163.152
    endloop
  endfacet
  facet normal 0.28355 0.505993 0.814598
    outer loop
      vertex 80.0644 134.749 163.524
      vertex 80.0655 135.922 162.795
      vertex 79.0394 135.032 163.705
    endloop
  endfacet
  facet normal 0.370838 0.419582 0.828511
    outer loop
      vertex 78.9115 136.237 163.152
      vertex 79.0394 135.032 163.705
      vertex 80.0655 135.922 162.795
    endloop
  endfacet
  facet normal 0.723503 0.557609 0.406959
    outer loop
      vertex 80.6347 136.403 161.124
      vertex 80.0655 135.922 162.795
      vertex 81.1272 135.329 161.72
    endloop
  endfacet
  facet normal 0.755973 0.34502 0.556297
    outer loop
      vertex 80.0644 134.749 163.524
      vertex 81.1272 135.329 161.72
      vertex 80.0655 135.922 162.795
    endloop
  endfacet
  facet normal -0.797953 0.26676 0.540473
    outer loop
      vertex 75.4605 136.96 161.681
      vertex 75.9682 136.25 162.781
      vertex 76.057 137.322 162.383
    endloop
  endfacet
  facet normal -0.932315 -0.188516 0.308627
    outer loop
      vertex 75.4356 136.204 161.144
      vertex 75.9682 136.25 162.781
      vertex 75.4605 136.96 161.681
    endloop
  endfacet
  facet normal -0.568774 0.443121 0.692921
    outer loop
      vertex 75.9682 136.25 162.781
      vertex 77.0513 136.236 163.679
      vertex 76.9481 137.17 162.997
    endloop
  endfacet
  facet normal -0.494132 0.338273 0.800878
    outer loop
      vertex 76.057 137.322 162.383
      vertex 75.9682 136.25 162.781
      vertex 76.9481 137.17 162.997
    endloop
  endfacet
  facet normal 0.128913 0.528529 0.83907
    outer loop
      vertex 77.8074 135.896 163.777
      vertex 77.9983 136.875 163.131
      vertex 77.0513 136.236 163.679
    endloop
  endfacet
  facet normal 0.0642032 0.593114 0.802555
    outer loop
      vertex 76.9481 137.17 162.997
      vertex 77.0513 136.236 163.679
      vertex 77.9983 136.875 163.131
    endloop
  endfacet
  facet normal 0.545268 0.789721 0.281113
    outer loop
      vertex 78.7185 137.074 161.175
      vertex 77.9983 136.875 163.131
      vertex 78.9115 136.237 163.152
    endloop
  endfacet
  facet normal 0.315758 0.478921 0.819104
    outer loop
      vertex 78.9115 136.237 163.152
      vertex 77.9983 136.875 163.131
      vertex 77.8074 135.896 163.777
    endloop
  endfacet
  facet normal 0.154689 0.915118 0.372331
    outer loop
      vertex 79.8341 136.813 161.353
      vertex 78.7185 137.074 161.175
      vertex 78.9115 136.237 163.152
    endloop
  endfacet
  facet normal 0.361671 0.817957 0.447371
    outer loop
      vertex 79.8341 136.813 161.353
      vertex 78.9115 136.237 163.152
      vertex 80.0655 135.922 162.795
    endloop
  endfacet
  facet normal 0.505716 0.767838 0.393288
    outer loop
      vertex 80.6347 136.403 161.124
      vertex 79.8341 136.813 161.353
      vertex 80.0655 135.922 162.795
    endloop
  endfacet
  facet normal -0.624478 0.769492 0.133824
    outer loop
      vertex 75.9843 137.491 161.072
      vertex 75.4605 136.96 161.681
      vertex 76.057 137.322 162.383
    endloop
  endfacet
  facet normal -0.207092 0.968771 0.136368
    outer loop
      vertex 76.9139 137.642 161.411
      vertex 75.9843 137.491 161.072
      vertex 76.057 137.322 162.383
    endloop
  endfacet
  facet normal -0.0335243 0.957719 0.285744
    outer loop
      vertex 76.9139 137.642 161.411
      vertex 76.057 137.322 162.383
      vertex 76.9481 137.17 162.997
    endloop
  endfacet
  facet normal -0.0173104 0.95821 0.285541
    outer loop
      vertex 77.8427 137.522 161.87
      vertex 76.9139 137.642 161.411
      vertex 76.9481 137.17 162.997
    endloop
  endfacet
  facet normal 0.193148 0.882444 0.428936
    outer loop
      vertex 77.8427 137.522 161.87
      vertex 76.9481 137.17 162.997
      vertex 77.9983 136.875 163.131
    endloop
  endfacet
  facet normal 0.612206 0.731638 0.29985
    outer loop
      vertex 78.7185 137.074 161.175
      vertex 77.8427 137.522 161.87
      vertex 77.9983 136.875 163.131
    endloop
  endfacet
endsolid
