solid ascii
  facet normal -0.241132 -0.783669 -0.572467
    outer loop
      vertex 131.128 31.979 65.1819
      vertex 130.911 31.5952 65.7987
      vertex 130.651 31.9655 65.4013
    endloop
  endfacet
  facet normal 0.800132 -0.593375 -0.087725
    outer loop
      vertex 131.128 31.979 65.1819
      vertex 131.233 31.9858 66.0936
      vertex 130.911 31.5952 65.7987
    endloop
  endfacet
  facet normal -0.327683 -0.577245 -0.747938
    outer loop
      vertex 130.651 31.9655 65.4013
      vertex 131.051 32.8219 64.5651
      vertex 131.128 31.979 65.1819
    endloop
  endfacet
  facet normal -0.879203 -0.0518012 -0.473623
    outer loop
      vertex 131.051 32.8219 64.5651
      vertex 130.651 31.9655 65.4013
      vertex 130.511 32.8102 65.5688
    endloop
  endfacet
  facet normal 0.851901 -0.515148 -0.0942707
    outer loop
      vertex 131.233 31.9858 66.0936
      vertex 131.128 31.979 65.1819
      vertex 131.761 32.9437 65.6305
    endloop
  endfacet
  facet normal 0.810074 -0.296253 -0.505978
    outer loop
      vertex 131.761 32.9437 65.6305
      vertex 131.128 31.979 65.1819
      vertex 131.051 32.8219 64.5651
    endloop
  endfacet
  facet normal -0.860039 -0.209678 -0.465153
    outer loop
      vertex 130.511 32.8102 65.5688
      vertex 130.975 33.9225 64.2095
      vertex 131.051 32.8219 64.5651
    endloop
  endfacet
  facet normal -0.948279 0.0077656 -0.317343
    outer loop
      vertex 130.975 33.9225 64.2095
      vertex 130.511 32.8102 65.5688
      vertex 130.472 33.9283 65.7127
    endloop
  endfacet
  facet normal 0.681056 -0.624395 -0.382484
    outer loop
      vertex 131.051 32.8219 64.5651
      vertex 132.039 33.9504 64.4821
      vertex 131.761 32.9437 65.6305
    endloop
  endfacet
  facet normal 0.245012 -0.282716 -0.927384
    outer loop
      vertex 132.039 33.9504 64.4821
      vertex 131.051 32.8219 64.5651
      vertex 130.975 33.9225 64.2095
    endloop
  endfacet
  facet normal 0.866782 -0.459746 -0.193191
    outer loop
      vertex 131.761 32.9437 65.6305
      vertex 132.039 33.9504 64.4821
      vertex 132.477 34.0751 66.1505
    endloop
  endfacet
  facet normal -0.945971 -0.071522 -0.316264
    outer loop
      vertex 130.472 33.9283 65.7127
      vertex 130.928 35.0049 64.1053
      vertex 130.975 33.9225 64.2095
    endloop
  endfacet
  facet normal -0.944965 -0.075167 -0.31842
    outer loop
      vertex 130.928 35.0049 64.1053
      vertex 130.472 33.9283 65.7127
      vertex 130.391 34.9987 65.7004
    endloop
  endfacet
  facet normal 0.238838 -0.380893 -0.89324
    outer loop
      vertex 130.975 33.9225 64.2095
      vertex 132.064 35.0052 64.039
      vertex 132.039 33.9504 64.4821
    endloop
  endfacet
  facet normal -0.0579563 -0.0981567 -0.993482
    outer loop
      vertex 132.064 35.0052 64.039
      vertex 130.975 33.9225 64.2095
      vertex 130.928 35.0049 64.1053
    endloop
  endfacet
  facet normal 0.907728 -0.362521 -0.211207
    outer loop
      vertex 132.039 33.9504 64.4821
      vertex 132.757 34.992 65.7801
      vertex 132.477 34.0751 66.1505
    endloop
  endfacet
  facet normal 0.914297 -0.1751 -0.36524
    outer loop
      vertex 132.757 34.992 65.7801
      vertex 132.039 33.9504 64.4821
      vertex 132.064 35.0052 64.039
    endloop
  endfacet
  facet normal -0.947026 -0.0374384 -0.318967
    outer loop
      vertex 130.391 34.9987 65.7004
      vertex 130.899 36.052 64.0685
      vertex 130.928 35.0049 64.1053
    endloop
  endfacet
  facet normal -0.954374 -0.00234483 -0.298604
    outer loop
      vertex 130.899 36.052 64.0685
      vertex 130.391 34.9987 65.7004
      vertex 130.379 35.9988 65.7309
    endloop
  endfacet
  facet normal -0.0580913 -0.0724639 -0.995678
    outer loop
      vertex 130.928 35.0049 64.1053
      vertex 132.044 36.0284 63.9657
      vertex 132.064 35.0052 64.039
    endloop
  endfacet
  facet normal -0.0901253 -0.0374729 -0.995225
    outer loop
      vertex 132.044 36.0284 63.9657
      vertex 130.928 35.0049 64.1053
      vertex 130.899 36.052 64.0685
    endloop
  endfacet
  facet normal 0.877863 -0.324871 -0.351874
    outer loop
      vertex 132.064 35.0052 64.039
      vertex 132.855 35.8391 65.2425
      vertex 132.757 34.992 65.7801
    endloop
  endfacet
  facet normal 0.842421 -0.0221011 -0.538367
    outer loop
      vertex 132.855 35.8391 65.2425
      vertex 132.064 35.0052 64.039
      vertex 132.044 36.0284 63.9657
    endloop
  endfacet
  facet normal -0.951699 0.0852287 -0.294965
    outer loop
      vertex 130.379 35.9988 65.7309
      vertex 130.906 37.0556 64.3359
      vertex 130.899 36.052 64.0685
    endloop
  endfacet
  facet normal -0.954682 0.235018 -0.182617
    outer loop
      vertex 130.906 37.0556 64.3359
      vertex 130.379 35.9988 65.7309
      vertex 130.511 36.833 66.1144
    endloop
  endfacet
  facet normal -0.0879738 0.0623238 -0.994171
    outer loop
      vertex 130.899 36.052 64.0685
      vertex 132.017 37.0431 64.0317
      vertex 132.044 36.0284 63.9657
    endloop
  endfacet
  facet normal -0.253026 0.250729 -0.934405
    outer loop
      vertex 132.017 37.0431 64.0317
      vertex 130.899 36.052 64.0685
      vertex 130.906 37.0556 64.3359
    endloop
  endfacet
  facet normal 0.841289 0.189535 -0.506271
    outer loop
      vertex 132.044 36.0284 63.9657
      vertex 132.899 36.7443 65.6545
      vertex 132.855 35.8391 65.2425
    endloop
  endfacet
  facet normal 0.88147 0.05397 -0.469146
    outer loop
      vertex 132.899 36.7443 65.6545
      vertex 132.044 36.0284 63.9657
      vertex 132.017 37.0431 64.0317
    endloop
  endfacet
  facet normal -0.926579 0.338756 -0.163391
    outer loop
      vertex 130.511 36.833 66.1144
      vertex 131.018 37.9173 65.4873
      vertex 130.906 37.0556 64.3359
    endloop
  endfacet
  facet normal -0.607876 0.66295 -0.437017
    outer loop
      vertex 130.906 37.0556 64.3359
      vertex 131.018 37.9173 65.4873
      vertex 131.992 38.0204 64.2889
    endloop
  endfacet
  facet normal -0.253848 0.240093 -0.936972
    outer loop
      vertex 132.017 37.0431 64.0317
      vertex 130.906 37.0556 64.3359
      vertex 131.992 38.0204 64.2889
    endloop
  endfacet
  facet normal 0.881314 0.0489049 -0.469994
    outer loop
      vertex 132.017 37.0431 64.0317
      vertex 132.869 37.7395 65.7018
      vertex 132.899 36.7443 65.6545
    endloop
  endfacet
  facet normal 0.852965 0.153142 -0.498997
    outer loop
      vertex 132.869 37.7395 65.7018
      vertex 132.017 37.0431 64.0317
      vertex 131.992 38.0204 64.2889
    endloop
  endfacet
  facet normal -0.77138 0.174776 -0.611903
    outer loop
      vertex 131.018 37.9173 65.4873
      vertex 132.004 39.0036 64.5546
      vertex 131.992 38.0204 64.2889
    endloop
  endfacet
  facet normal -0.781326 0.202218 -0.590456
    outer loop
      vertex 132.004 39.0036 64.5546
      vertex 131.018 37.9173 65.4873
      vertex 131.163 39.0116 65.6702
    endloop
  endfacet
  facet normal 0.851888 0.0296206 -0.522886
    outer loop
      vertex 131.992 38.0204 64.2889
      vertex 132.841 38.7319 65.7124
      vertex 132.869 37.7395 65.7018
    endloop
  endfacet
  facet normal 0.81773 0.140842 -0.558105
    outer loop
      vertex 132.841 38.7319 65.7124
      vertex 131.992 38.0204 64.2889
      vertex 132.004 39.0036 64.5546
    endloop
  endfacet
  facet normal -0.790222 -0.14812 -0.59465
    outer loop
      vertex 131.163 39.0116 65.6702
      vertex 132.01 40.0162 64.2944
      vertex 132.004 39.0036 64.5546
    endloop
  endfacet
  facet normal -0.827745 -0.0653188 -0.55729
    outer loop
      vertex 132.01 40.0162 64.2944
      vertex 131.163 39.0116 65.6702
      vertex 131.119 40.0154 65.6179
    endloop
  endfacet
  facet normal 0.805762 -0.0366475 -0.591104
    outer loop
      vertex 132.004 39.0036 64.5546
      vertex 132.981 40.0213 65.8233
      vertex 132.841 38.7319 65.7124
    endloop
  endfacet
  facet normal 0.835896 -0.141247 -0.530404
    outer loop
      vertex 132.981 40.0213 65.8233
      vertex 132.004 39.0036 64.5546
      vertex 132.01 40.0162 64.2944
    endloop
  endfacet
  facet normal -0.813855 -0.193178 -0.548016
    outer loop
      vertex 131.119 40.0154 65.6179
      vertex 131.961 41.0839 63.9908
      vertex 132.01 40.0162 64.2944
    endloop
  endfacet
  facet normal -0.89507 0.0275828 -0.445072
    outer loop
      vertex 131.961 41.0839 63.9908
      vertex 131.119 40.0154 65.6179
      vertex 131.102 41.0854 65.7184
    endloop
  endfacet
  facet normal 0.654403 -0.633068 -0.413498
    outer loop
      vertex 132.01 40.0162 64.2944
      vertex 133.091 41.0819 64.3736
      vertex 132.981 40.0213 65.8233
    endloop
  endfacet
  facet normal 0.310536 -0.246773 -0.917971
    outer loop
      vertex 133.091 41.0819 64.3736
      vertex 132.01 40.0162 64.2944
      vertex 131.961 41.0839 63.9908
    endloop
  endfacet
  facet normal 0.914774 -0.355956 -0.191006
    outer loop
      vertex 132.981 40.0213 65.8233
      vertex 133.091 41.0819 64.3736
      vertex 133.511 41.2426 66.0856
    endloop
  endfacet
  facet normal -0.882191 0.17088 -0.438793
    outer loop
      vertex 131.102 41.0854 65.7184
      vertex 131.952 42.1904 64.4398
      vertex 131.961 41.0839 63.9908
    endloop
  endfacet
  facet normal -0.88445 0.397473 -0.244466
    outer loop
      vertex 131.952 42.1904 64.4398
      vertex 131.102 41.0854 65.7184
      vertex 131.387 42.0041 66.181
    endloop
  endfacet
  facet normal 0.313935 -0.201711 -0.92777
    outer loop
      vertex 131.961 41.0839 63.9908
      vertex 133.028 42.1995 64.1093
      vertex 133.091 41.0819 64.3736
    endloop
  endfacet
  facet normal -0.276777 0.359384 -0.8912
    outer loop
      vertex 133.028 42.1995 64.1093
      vertex 131.961 41.0839 63.9908
      vertex 131.952 42.1904 64.4398
    endloop
  endfacet
  facet normal 0.956139 -0.197851 -0.215995
    outer loop
      vertex 133.091 41.0819 64.3736
      vertex 133.59 42.1782 65.5783
      vertex 133.511 41.2426 66.0856
    endloop
  endfacet
  facet normal 0.933352 -0.0319401 -0.357539
    outer loop
      vertex 133.59 42.1782 65.5783
      vertex 133.091 41.0819 64.3736
      vertex 133.028 42.1995 64.1093
    endloop
  endfacet
  facet normal -0.733994 0.658111 -0.167758
    outer loop
      vertex 131.387 42.0041 66.181
      vertex 132.3 42.9186 65.7739
      vertex 131.952 42.1904 64.4398
    endloop
  endfacet
  facet normal -0.64072 0.731787 -0.232304
    outer loop
      vertex 131.952 42.1904 64.4398
      vertex 132.3 42.9186 65.7739
      vertex 132.872 43.0574 64.6335
    endloop
  endfacet
  facet normal -0.263132 0.467733 -0.843794
    outer loop
      vertex 133.028 42.1995 64.1093
      vertex 131.952 42.1904 64.4398
      vertex 132.872 43.0574 64.6335
    endloop
  endfacet
  facet normal 0.933665 0.0318004 -0.356734
    outer loop
      vertex 133.028 42.1995 64.1093
      vertex 133.434 43.0475 65.2475
      vertex 133.59 42.1782 65.5783
    endloop
  endfacet
  facet normal 0.651654 0.478241 -0.588754
    outer loop
      vertex 133.434 43.0475 65.2475
      vertex 133.028 42.1995 64.1093
      vertex 132.872 43.0574 64.6335
    endloop
  endfacet
  facet normal -0.559048 0.808925 -0.181951
    outer loop
      vertex 132.3 42.9186 65.7739
      vertex 133.066 43.4097 65.6037
      vertex 132.872 43.0574 64.6335
    endloop
  endfacet
  facet normal 0.432703 0.816185 -0.382897
    outer loop
      vertex 133.434 43.0475 65.2475
      vertex 132.872 43.0574 64.6335
      vertex 133.066 43.4097 65.6037
    endloop
  endfacet
  facet normal -0.490516 -0.650753 -0.579582
    outer loop
      vertex 44.1022 55.2102 65.2507
      vertex 44 54.838 65.7551
      vertex 43.7469 55.2102 65.5514
    endloop
  endfacet
  facet normal 0.856608 -0.482597 -0.182548
    outer loop
      vertex 44.1022 55.2102 65.2507
      vertex 44.2531 55.2102 65.9588
      vertex 44 54.838 65.7551
    endloop
  endfacet
  facet normal -0.631008 -0.21432 -0.745584
    outer loop
      vertex 43.7469 55.2102 65.5514
      vertex 43.8978 55.812 65.2507
      vertex 44.1022 55.2102 65.2507
    endloop
  endfacet
  facet normal -0.968446 0.139714 -0.206381
    outer loop
      vertex 43.8978 55.812 65.2507
      vertex 43.7469 55.2102 65.5514
      vertex 43.7469 55.812 65.9588
    endloop
  endfacet
  facet normal 0.968446 -0.139714 -0.206381
    outer loop
      vertex 44.2531 55.2102 65.9588
      vertex 44.1022 55.2102 65.2507
      vertex 44.2531 55.812 65.5514
    endloop
  endfacet
  facet normal 0.631008 0.21432 -0.745584
    outer loop
      vertex 44.2531 55.812 65.5514
      vertex 44.1022 55.2102 65.2507
      vertex 43.8978 55.812 65.2507
    endloop
  endfacet
  facet normal -0.856608 0.482597 -0.182548
    outer loop
      vertex 43.7469 55.812 65.9588
      vertex 44 56.1842 65.7551
      vertex 43.8978 55.812 65.2507
    endloop
  endfacet
  facet normal 0.490516 0.650753 -0.579582
    outer loop
      vertex 44.2531 55.812 65.5514
      vertex 43.8978 55.812 65.2507
      vertex 44 56.1842 65.7551
    endloop
  endfacet
  facet normal -0.37119 -0.842799 -0.389753
    outer loop
      vertex 55.1539 26.9844 66.702
      vertex 54.9439 26.634 67.6597
      vertex 54.5837 26.9588 67.3004
    endloop
  endfacet
  facet normal 0.547321 -0.817534 -0.179103
    outer loop
      vertex 55.1539 26.9844 66.702
      vertex 55.7089 27.1187 67.785
      vertex 54.9439 26.634 67.6597
    endloop
  endfacet
  facet normal -0.613892 -0.505178 -0.606574
    outer loop
      vertex 54.5837 26.9588 67.3004
      vertex 55.0284 27.7967 66.1525
      vertex 55.1539 26.9844 66.702
    endloop
  endfacet
  facet normal -0.933113 0.00262541 -0.359574
    outer loop
      vertex 55.0284 27.7967 66.1525
      vertex 54.5837 26.9588 67.3004
      vertex 54.4659 27.8221 67.6124
    endloop
  endfacet
  facet normal 0.659657 -0.70871 -0.250166
    outer loop
      vertex 55.7089 27.1187 67.785
      vertex 55.1539 26.9844 66.702
      vertex 56.0486 27.8787 66.5277
    endloop
  endfacet
  facet normal 0.33508 -0.491856 -0.803616
    outer loop
      vertex 56.0486 27.8787 66.5277
      vertex 55.1539 26.9844 66.702
      vertex 55.0284 27.7967 66.1525
    endloop
  endfacet
  facet normal 0.779246 -0.60691 -0.156321
    outer loop
      vertex 56.0486 27.8787 66.5277
      vertex 56.4604 28.0047 68.0913
      vertex 55.7089 27.1187 67.785
    endloop
  endfacet
  facet normal -0.93183 -0.0594039 -0.358001
    outer loop
      vertex 54.4659 27.8221 67.6124
      vertex 54.9821 28.8912 66.0914
      vertex 55.0284 27.7967 66.1525
    endloop
  endfacet
  facet normal -0.951298 0.0218465 -0.307498
    outer loop
      vertex 54.9821 28.8912 66.0914
      vertex 54.4659 27.8221 67.6124
      vertex 54.3611 29.0436 68.0234
    endloop
  endfacet
  facet normal 0.343433 -0.412751 -0.843617
    outer loop
      vertex 55.0284 27.7967 66.1525
      vertex 56.0676 28.9465 66.013
      vertex 56.0486 27.8787 66.5277
    endloop
  endfacet
  facet normal -0.068948 -0.0585125 -0.995903
    outer loop
      vertex 56.0676 28.9465 66.013
      vertex 55.0284 27.7967 66.1525
      vertex 54.9821 28.8912 66.0914
    endloop
  endfacet
  facet normal 0.941622 -0.247688 -0.228032
    outer loop
      vertex 56.4604 28.0047 68.0913
      vertex 56.0486 27.8787 66.5277
      vertex 56.6147 28.9439 67.7083
    endloop
  endfacet
  facet normal 0.93889 -0.162876 -0.303244
    outer loop
      vertex 56.6147 28.9439 67.7083
      vertex 56.0486 27.8787 66.5277
      vertex 56.0676 28.9465 66.013
    endloop
  endfacet
  facet normal -0.952067 -0.00172053 -0.305886
    outer loop
      vertex 54.3611 29.0436 68.0234
      vertex 54.9962 29.9426 66.0416
      vertex 54.9821 28.8912 66.0914
    endloop
  endfacet
  facet normal -0.781853 -0.434121 -0.447487
    outer loop
      vertex 54.9962 29.9426 66.0416
      vertex 54.3611 29.0436 68.0234
      vertex 54.2073 30.0674 67.2989
    endloop
  endfacet
  facet normal -0.0695656 -0.0471798 -0.996461
    outer loop
      vertex 54.9821 28.8912 66.0914
      vertex 56.068 29.9956 65.9633
      vertex 56.0676 28.9465 66.013
    endloop
  endfacet
  facet normal -0.0705074 -0.0462512 -0.996438
    outer loop
      vertex 56.068 29.9956 65.9633
      vertex 54.9821 28.8912 66.0914
      vertex 54.9962 29.9426 66.0416
    endloop
  endfacet
  facet normal 0.951384 -0.02409 -0.307064
    outer loop
      vertex 56.0676 28.9465 66.013
      vertex 56.6142 30.0331 67.6213
      vertex 56.6147 28.9439 67.7083
    endloop
  endfacet
  facet normal 0.949781 -0.0151687 -0.312546
    outer loop
      vertex 56.6142 30.0331 67.6213
      vertex 56.0676 28.9465 66.013
      vertex 56.068 29.9956 65.9633
    endloop
  endfacet
  facet normal -0.84686 0.0043529 -0.531799
    outer loop
      vertex 54.2073 30.0674 67.2989
      vertex 55.0099 30.9342 66.0279
      vertex 54.9962 29.9426 66.0416
    endloop
  endfacet
  facet normal -0.844952 -0.00186942 -0.534838
    outer loop
      vertex 55.0099 30.9342 66.0279
      vertex 54.2073 30.0674 67.2989
      vertex 54.0069 30.8964 67.6126
    endloop
  endfacet
  facet normal -0.0758309 0.0633741 -0.995105
    outer loop
      vertex 54.9962 29.9426 66.0416
      vertex 56.1043 30.9843 66.0235
      vertex 56.068 29.9956 65.9633
    endloop
  endfacet
  facet normal -0.00338979 -0.0137678 -0.999899
    outer loop
      vertex 56.1043 30.9843 66.0235
      vertex 54.9962 29.9426 66.0416
      vertex 55.0099 30.9342 66.0279
    endloop
  endfacet
  facet normal 0.949795 -0.0131764 -0.312596
    outer loop
      vertex 56.068 29.9956 65.9633
      vertex 56.6285 31.0544 67.6217
      vertex 56.6142 30.0331 67.6213
    endloop
  endfacet
  facet normal 0.95028 -0.0159541 -0.310986
    outer loop
      vertex 56.6285 31.0544 67.6217
      vertex 56.068 29.9956 65.9633
      vertex 56.1043 30.9843 66.0235
    endloop
  endfacet
  facet normal -0.841702 -0.0761054 -0.534552
    outer loop
      vertex 54.0069 30.8964 67.6126
      vertex 54.9218 32.068 66.0052
      vertex 55.0099 30.9342 66.0279
    endloop
  endfacet
  facet normal -0.755994 -0.243343 -0.607665
    outer loop
      vertex 54.9218 32.068 66.0052
      vertex 54.0069 30.8964 67.6126
      vertex 53.6026 31.8795 67.7219
    endloop
  endfacet
  facet normal -0.00794312 0.086016 -0.996262
    outer loop
      vertex 55.0099 30.9342 66.0279
      vertex 56.1467 31.9924 66.1102
      vertex 56.1043 30.9843 66.0235
    endloop
  endfacet
  facet normal 0.0845809 -0.0133754 -0.996327
    outer loop
      vertex 56.1467 31.9924 66.1102
      vertex 55.0099 30.9342 66.0279
      vertex 54.9218 32.068 66.0052
    endloop
  endfacet
  facet normal 0.950263 -0.0201426 -0.310797
    outer loop
      vertex 56.1043 30.9843 66.0235
      vertex 56.652 32.0427 67.6295
      vertex 56.6285 31.0544 67.6217
    endloop
  endfacet
  facet normal 0.948945 -0.0128052 -0.315183
    outer loop
      vertex 56.652 32.0427 67.6295
      vertex 56.1043 30.9843 66.0235
      vertex 56.1467 31.9924 66.1102
    endloop
  endfacet
  facet normal -0.862686 -0.495131 0.103048
    outer loop
      vertex 130.911 31.5952 65.7987
      vertex 130.756 31.9723 66.313
      vertex 130.651 31.9655 65.4013
    endloop
  endfacet
  facet normal 0.306143 -0.721378 0.621201
    outer loop
      vertex 130.756 31.9723 66.313
      vertex 130.911 31.5952 65.7987
      vertex 131.233 31.9858 66.0936
    endloop
  endfacet
  facet normal -0.678616 -0.512233 -0.526402
    outer loop
      vertex 52.831 32.8783 67.7447
      vertex 54.0931 33.077 65.9243
      vertex 53.6026 31.8795 67.7219
    endloop
  endfacet
  facet normal -0.626979 -0.55849 -0.543127
    outer loop
      vertex 54.9218 32.068 66.0052
      vertex 53.6026 31.8795 67.7219
      vertex 54.0931 33.077 65.9243
    endloop
  endfacet
  facet normal -0.287744 -0.309007 -0.906487
    outer loop
      vertex 54.0931 33.077 65.9243
      vertex 55.3076 33.1808 65.5034
      vertex 54.9218 32.068 66.0052
    endloop
  endfacet
  facet normal 0.0841878 -0.0196471 -0.996256
    outer loop
      vertex 54.9218 32.068 66.0052
      vertex 56.1764 33.0324 66.0922
      vertex 56.1467 31.9924 66.1102
    endloop
  endfacet
  facet normal 0.429809 -0.490773 -0.757896
    outer loop
      vertex 56.1764 33.0324 66.0922
      vertex 54.9218 32.068 66.0052
      vertex 55.3076 33.1808 65.5034
    endloop
  endfacet
  facet normal 0.948232 -0.049217 -0.313741
    outer loop
      vertex 56.1467 31.9924 66.1102
      vertex 56.6796 33.0449 67.5557
      vertex 56.652 32.0427 67.6295
    endloop
  endfacet
  facet normal 0.945245 -0.0326143 -0.324728
    outer loop
      vertex 56.6796 33.0449 67.5557
      vertex 56.1467 31.9924 66.1102
      vertex 56.1764 33.0324 66.0922
    endloop
  endfacet
  facet normal -0.911888 0.0891947 0.40063
    outer loop
      vertex 130.511 32.8102 65.5688
      vertex 130.756 31.9723 66.313
      vertex 131.047 32.9387 66.7602
    endloop
  endfacet
  facet normal -0.976245 -0.18437 0.113809
    outer loop
      vertex 130.651 31.9655 65.4013
      vertex 130.756 31.9723 66.313
      vertex 130.511 32.8102 65.5688
    endloop
  endfacet
  facet normal 0.827979 -0.20383 0.522402
    outer loop
      vertex 131.761 32.9437 65.6305
      vertex 131.047 32.9387 66.7602
      vertex 131.233 31.9858 66.0936
    endloop
  endfacet
  facet normal 0.377742 -0.480108 0.791712
    outer loop
      vertex 130.756 31.9723 66.313
      vertex 131.233 31.9858 66.0936
      vertex 131.047 32.9387 66.7602
    endloop
  endfacet
  facet normal -0.601261 -0.622749 -0.500668
    outer loop
      vertex 51.8449 33.8881 67.6729
      vertex 53.0736 34.0818 65.9564
      vertex 52.831 32.8783 67.7447
    endloop
  endfacet
  facet normal -0.617778 -0.611002 -0.495003
    outer loop
      vertex 54.0931 33.077 65.9243
      vertex 52.831 32.8783 67.7447
      vertex 53.0736 34.0818 65.9564
    endloop
  endfacet
  facet normal -0.359088 -0.336531 -0.870518
    outer loop
      vertex 53.0736 34.0818 65.9564
      vertex 54.2103 34.1659 65.455
      vertex 54.0931 33.077 65.9243
    endloop
  endfacet
  facet normal -0.304839 -0.204817 -0.93012
    outer loop
      vertex 55.3076 33.1808 65.5034
      vertex 54.0931 33.077 65.9243
      vertex 54.9741 33.8847 65.4577
    endloop
  endfacet
  facet normal -0.136539 -0.379654 -0.914997
    outer loop
      vertex 54.9741 33.8847 65.4577
      vertex 54.0931 33.077 65.9243
      vertex 54.2103 34.1659 65.455
    endloop
  endfacet
  facet normal 0.572249 0.155232 -0.805254
    outer loop
      vertex 55.3076 33.1808 65.5034
      vertex 55.8986 34.0264 66.0864
      vertex 56.1764 33.0324 66.0922
    endloop
  endfacet
  facet normal 0.530327 0.197739 -0.82441
    outer loop
      vertex 55.8986 34.0264 66.0864
      vertex 55.3076 33.1808 65.5034
      vertex 54.9741 33.8847 65.4577
    endloop
  endfacet
  facet normal 0.945143 0.0304665 -0.325232
    outer loop
      vertex 56.1764 33.0324 66.0922
      vertex 56.5503 33.8856 67.2587
      vertex 56.6796 33.0449 67.5557
    endloop
  endfacet
  facet normal 0.860777 0.237942 -0.449941
    outer loop
      vertex 56.5503 33.8856 67.2587
      vertex 56.1764 33.0324 66.0922
      vertex 55.8986 34.0264 66.0864
    endloop
  endfacet
  facet normal -0.925693 -0.194341 0.324538
    outer loop
      vertex 130.472 33.9283 65.7127
      vertex 131.047 32.9387 66.7602
      vertex 130.977 34.1926 67.3114
    endloop
  endfacet
  facet normal -0.905176 -0.0851661 0.416416
    outer loop
      vertex 130.511 32.8102 65.5688
      vertex 131.047 32.9387 66.7602
      vertex 130.472 33.9283 65.7127
    endloop
  endfacet
  facet normal 0.551844 -0.759048 0.34542
    outer loop
      vertex 131.047 32.9387 66.7602
      vertex 131.761 32.9437 65.6305
      vertex 131.88 33.7419 67.1944
    endloop
  endfacet
  facet normal -0.0841379 -0.404929 0.910469
    outer loop
      vertex 130.977 34.1926 67.3114
      vertex 131.047 32.9387 66.7602
      vertex 131.88 33.7419 67.1944
    endloop
  endfacet
  facet normal 0.763787 -0.596596 0.246379
    outer loop
      vertex 131.88 33.7419 67.1944
      vertex 131.761 32.9437 65.6305
      vertex 132.477 34.0751 66.1505
    endloop
  endfacet
  facet normal -0.712261 -0.535165 -0.454184
    outer loop
      vertex 50.8351 34.989 67.9593
      vertex 52.0213 35.0887 65.9816
      vertex 51.8449 33.8881 67.6729
    endloop
  endfacet
  facet normal -0.60408 -0.618748 -0.502234
    outer loop
      vertex 53.0736 34.0818 65.9564
      vertex 51.8449 33.8881 67.6729
      vertex 52.0213 35.0887 65.9816
    endloop
  endfacet
  facet normal -0.362523 -0.357327 -0.860752
    outer loop
      vertex 52.0213 35.0887 65.9816
      vertex 53.1477 35.1795 65.4695
      vertex 53.0736 34.0818 65.9564
    endloop
  endfacet
  facet normal -0.391924 -0.131447 -0.910559
    outer loop
      vertex 54.2103 34.1659 65.455
      vertex 53.0736 34.0818 65.9564
      vertex 53.901 34.899 65.4823
    endloop
  endfacet
  facet normal -0.131451 -0.39452 -0.909437
    outer loop
      vertex 53.901 34.899 65.4823
      vertex 53.0736 34.0818 65.9564
      vertex 53.1477 35.1795 65.4695
    endloop
  endfacet
  facet normal 0.17753 0.473928 -0.862482
    outer loop
      vertex 54.2103 34.1659 65.455
      vertex 54.9944 34.9186 66.03
      vertex 54.9741 33.8847 65.4577
    endloop
  endfacet
  facet normal 0.434223 0.21577 -0.874582
    outer loop
      vertex 54.9944 34.9186 66.03
      vertex 54.2103 34.1659 65.455
      vertex 53.901 34.899 65.4823
    endloop
  endfacet
  facet normal 0.671044 0.658536 -0.340633
    outer loop
      vertex 55.8986 34.0264 66.0864
      vertex 54.9944 34.9186 66.03
      vertex 55.9337 34.8124 67.6751
    endloop
  endfacet
  facet normal 0.464767 0.421805 -0.778506
    outer loop
      vertex 54.9944 34.9186 66.03
      vertex 55.8986 34.0264 66.0864
      vertex 54.9741 33.8847 65.4577
    endloop
  endfacet
  facet normal 0.714691 0.620506 -0.322782
    outer loop
      vertex 56.5503 33.8856 67.2587
      vertex 55.8986 34.0264 66.0864
      vertex 55.9337 34.8124 67.6751
    endloop
  endfacet
  facet normal -0.946052 -0.228366 0.229858
    outer loop
      vertex 130.391 34.9987 65.7004
      vertex 130.977 34.1926 67.3114
      vertex 130.735 35.1438 67.2604
    endloop
  endfacet
  facet normal -0.948047 -0.0681705 0.310741
    outer loop
      vertex 130.472 33.9283 65.7127
      vertex 130.977 34.1926 67.3114
      vertex 130.391 34.9987 65.7004
    endloop
  endfacet
  facet normal -0.0876522 -0.411158 0.90734
    outer loop
      vertex 131.88 33.7419 67.1944
      vertex 131.998 34.9755 67.7648
      vertex 130.977 34.1926 67.3114
    endloop
  endfacet
  facet normal -0.375769 -0.0459755 0.925572
    outer loop
      vertex 130.735 35.1438 67.2604
      vertex 130.977 34.1926 67.3114
      vertex 131.998 34.9755 67.7648
    endloop
  endfacet
  facet normal 0.925209 -0.140074 0.352659
    outer loop
      vertex 132.477 34.0751 66.1505
      vertex 132.757 34.992 65.7801
      vertex 131.998 34.9755 67.7648
    endloop
  endfacet
  facet normal 0.87006 -0.273008 0.410441
    outer loop
      vertex 131.88 33.7419 67.1944
      vertex 132.477 34.0751 66.1505
      vertex 131.998 34.9755 67.7648
    endloop
  endfacet
  facet normal -0.693119 -0.6051 -0.391716
    outer loop
      vertex 49.9406 36.1583 67.7358
      vertex 50.9831 36.0925 65.9928
      vertex 50.8351 34.989 67.9593
    endloop
  endfacet
  facet normal -0.635095 -0.652243 -0.413803
    outer loop
      vertex 52.0213 35.0887 65.9816
      vertex 50.8351 34.989 67.9593
      vertex 50.9831 36.0925 65.9928
    endloop
  endfacet
  facet normal -0.381844 -0.385557 -0.839965
    outer loop
      vertex 50.9831 36.0925 65.9928
      vertex 52.0935 36.1616 65.4563
      vertex 52.0213 35.0887 65.9816
    endloop
  endfacet
  facet normal -0.39672 -0.168095 -0.902418
    outer loop
      vertex 53.1477 35.1795 65.4695
      vertex 52.0213 35.0887 65.9816
      vertex 52.8457 35.9003 65.468
    endloop
  endfacet
  facet normal -0.134911 -0.428373 -0.893474
    outer loop
      vertex 52.8457 35.9003 65.468
      vertex 52.0213 35.0887 65.9816
      vertex 52.0935 36.1616 65.4563
    endloop
  endfacet
  facet normal 0.178571 0.439389 -0.880369
    outer loop
      vertex 53.1477 35.1795 65.4695
      vertex 53.9591 35.9337 66.0105
      vertex 53.901 34.899 65.4823
    endloop
  endfacet
  facet normal 0.426808 0.176978 -0.886856
    outer loop
      vertex 53.9591 35.9337 66.0105
      vertex 53.1477 35.1795 65.4695
      vertex 52.8457 35.9003 65.468
    endloop
  endfacet
  facet normal 0.654091 0.660009 -0.369532
    outer loop
      vertex 54.9944 34.9186 66.03
      vertex 53.9591 35.9337 66.0105
      vertex 55.0296 35.8507 67.7571
    endloop
  endfacet
  facet normal 0.405257 0.397507 -0.823259
    outer loop
      vertex 53.9591 35.9337 66.0105
      vertex 54.9944 34.9186 66.03
      vertex 53.901 34.899 65.4823
    endloop
  endfacet
  facet normal 0.691289 0.629901 -0.354041
    outer loop
      vertex 55.9337 34.8124 67.6751
      vertex 54.9944 34.9186 66.03
      vertex 55.0296 35.8507 67.7571
    endloop
  endfacet
  facet normal -0.96138 0.07395 0.265105
    outer loop
      vertex 130.379 35.9988 65.7309
      vertex 130.735 35.1438 67.2604
      vertex 130.917 35.9766 67.6881
    endloop
  endfacet
  facet normal -0.976015 -0.0183267 0.216929
    outer loop
      vertex 130.391 34.9987 65.7004
      vertex 130.735 35.1438 67.2604
      vertex 130.379 35.9988 65.7309
    endloop
  endfacet
  facet normal -0.387201 -0.352843 0.851808
    outer loop
      vertex 130.917 35.9766 67.6881
      vertex 130.735 35.1438 67.2604
      vertex 131.998 34.9755 67.7648
    endloop
  endfacet
  facet normal 0.793458 -0.530099 0.299031
    outer loop
      vertex 132.757 34.992 65.7801
      vertex 132.804 36.1126 67.6419
      vertex 131.998 34.9755 67.7648
    endloop
  endfacet
  facet normal 0.994981 -0.0948267 0.0319576
    outer loop
      vertex 132.804 36.1126 67.6419
      vertex 132.757 34.992 65.7801
      vertex 132.855 35.8391 65.2425
    endloop
  endfacet
  facet normal -0.700662 -0.615817 -0.360337
    outer loop
      vertex 49.0784 37.1586 67.7028
      vertex 50.0028 37.0887 66.0248
      vertex 49.9406 36.1583 67.7358
    endloop
  endfacet
  facet normal -0.666875 -0.644201 -0.374543
    outer loop
      vertex 50.9831 36.0925 65.9928
      vertex 49.9406 36.1583 67.7358
      vertex 50.0028 37.0887 66.0248
    endloop
  endfacet
  facet normal -0.396732 -0.363322 -0.842972
    outer loop
      vertex 50.0028 37.0887 66.0248
      vertex 51.115 37.1487 65.4755
      vertex 50.9831 36.0925 65.9928
    endloop
  endfacet
  facet normal -0.422246 -0.152475 -0.893566
    outer loop
      vertex 52.0935 36.1616 65.4563
      vertex 50.9831 36.0925 65.9928
      vertex 51.8323 36.8697 65.4589
    endloop
  endfacet
  facet normal -0.181721 -0.414133 -0.891892
    outer loop
      vertex 51.8323 36.8697 65.4589
      vertex 50.9831 36.0925 65.9928
      vertex 51.115 37.1487 65.4755
    endloop
  endfacet
  facet normal 0.162645 0.428405 -0.888828
    outer loop
      vertex 52.0935 36.1616 65.4563
      vertex 52.9647 36.9261 65.9842
      vertex 52.8457 35.9003 65.468
    endloop
  endfacet
  facet normal 0.409433 0.154331 -0.899192
    outer loop
      vertex 52.9647 36.9261 65.9842
      vertex 52.0935 36.1616 65.4563
      vertex 51.8323 36.8697 65.4589
    endloop
  endfacet
  facet normal 0.648702 0.639057 -0.41327
    outer loop
      vertex 53.9591 35.9337 66.0105
      vertex 52.9647 36.9261 65.9842
      vertex 54.1434 36.852 67.7198
    endloop
  endfacet
  facet normal 0.396848 0.37545 -0.837585
    outer loop
      vertex 52.9647 36.9261 65.9842
      vertex 53.9591 35.9337 66.0105
      vertex 52.8457 35.9003 65.468
    endloop
  endfacet
  facet normal 0.694531 0.599899 -0.397174
    outer loop
      vertex 55.0296 35.8507 67.7571
      vertex 53.9591 35.9337 66.0105
      vertex 54.1434 36.852 67.7198
    endloop
  endfacet
  facet normal -0.95667 0.0671137 0.283335
    outer loop
      vertex 130.511 36.833 66.1144
      vertex 130.917 35.9766 67.6881
      vertex 131.057 36.9797 67.9232
    endloop
  endfacet
  facet normal -0.963696 0.0305498 0.26525
    outer loop
      vertex 130.379 35.9988 65.7309
      vertex 130.917 35.9766 67.6881
      vertex 130.511 36.833 66.1144
    endloop
  endfacet
  facet normal 0.997719 -0.0613313 0.0281978
    outer loop
      vertex 132.804 36.1126 67.6419
      vertex 132.855 35.8391 65.2425
      vertex 132.899 36.7443 65.6545
    endloop
  endfacet
  facet normal 0.997565 -0.0641884 0.0272823
    outer loop
      vertex 132.899 36.7443 65.6545
      vertex 132.87 37.2728 67.9583
      vertex 132.804 36.1126 67.6419
    endloop
  endfacet
  facet normal -0.704598 -0.619608 -0.345871
    outer loop
      vertex 48.4534 38.0642 67.3537
      vertex 49.1547 37.9504 66.1289
      vertex 49.0784 37.1586 67.7028
    endloop
  endfacet
  facet normal -0.687894 -0.634449 -0.352528
    outer loop
      vertex 50.0028 37.0887 66.0248
      vertex 49.0784 37.1586 67.7028
      vertex 49.1547 37.9504 66.1289
    endloop
  endfacet
  facet normal -0.484754 -0.382052 -0.786797
    outer loop
      vertex 49.1547 37.9504 66.1289
      vertex 50.0966 38.1248 65.4639
      vertex 50.0028 37.0887 66.0248
    endloop
  endfacet
  facet normal -0.439245 -0.0624982 -0.896191
    outer loop
      vertex 51.115 37.1487 65.4755
      vertex 50.0028 37.0887 66.0248
      vertex 51.0001 38.0394 65.4697
    endloop
  endfacet
  facet normal -0.0390555 -0.472973 -0.880211
    outer loop
      vertex 51.0001 38.0394 65.4697
      vertex 50.0028 37.0887 66.0248
      vertex 50.0966 38.1248 65.4639
    endloop
  endfacet
  facet normal 0.136018 0.403531 -0.9048
    outer loop
      vertex 51.115 37.1487 65.4755
      vertex 52.1821 37.9368 65.9874
      vertex 51.8323 36.8697 65.4589
    endloop
  endfacet
  facet normal 0.404126 0.0461834 -0.913537
    outer loop
      vertex 52.1821 37.9368 65.9874
      vertex 51.115 37.1487 65.4755
      vertex 51.0001 38.0394 65.4697
    endloop
  endfacet
  facet normal 0.714581 0.554661 -0.426292
    outer loop
      vertex 52.9647 36.9261 65.9842
      vertex 52.1821 37.9368 65.9874
      vertex 53.3169 37.8364 67.759
    endloop
  endfacet
  facet normal 0.388471 0.303553 -0.870026
    outer loop
      vertex 52.1821 37.9368 65.9874
      vertex 52.9647 36.9261 65.9842
      vertex 51.8323 36.8697 65.4589
    endloop
  endfacet
  facet normal 0.680267 0.588547 -0.436863
    outer loop
      vertex 54.1434 36.852 67.7198
      vertex 52.9647 36.9261 65.9842
      vertex 53.3169 37.8364 67.759
    endloop
  endfacet
  facet normal -0.83339 0.511192 0.210106
    outer loop
      vertex 131.018 37.9173 65.4873
      vertex 130.511 36.833 66.1144
      vertex 131.057 36.9797 67.9232
    endloop
  endfacet
  facet normal -0.987736 0.139761 0.0696094
    outer loop
      vertex 131.057 36.9797 67.9232
      vertex 131.196 37.9771 67.893
      vertex 131.018 37.9173 65.4873
    endloop
  endfacet
  facet normal 0.999538 0.0298583 0.00573248
    outer loop
      vertex 132.87 37.2728 67.9583
      vertex 132.899 36.7443 65.6545
      vertex 132.869 37.7395 65.7018
    endloop
  endfacet
  facet normal 0.998959 0.0447613 0.00881504
    outer loop
      vertex 132.869 37.7395 65.7018
      vertex 132.826 38.2643 67.9099
      vertex 132.87 37.2728 67.9583
    endloop
  endfacet
  facet normal -0.836123 -0.314338 -0.449544
    outer loop
      vertex 48.4534 38.0642 67.3537
      vertex 48.784 39.0796 66.0288
      vertex 49.1547 37.9504 66.1289
    endloop
  endfacet
  facet normal -0.920792 -0.162735 -0.354484
    outer loop
      vertex 48.784 39.0796 66.0288
      vertex 48.4534 38.0642 67.3537
      vertex 48.0672 39.008 67.9236
    endloop
  endfacet
  facet normal -0.564198 -0.0845511 -0.821299
    outer loop
      vertex 50.0966 38.1248 65.4639
      vertex 49.1547 37.9504 66.1289
      vertex 49.9366 38.9943 65.4843
    endloop
  endfacet
  facet normal -0.429987 -0.218806 -0.87592
    outer loop
      vertex 49.9366 38.9943 65.4843
      vertex 49.1547 37.9504 66.1289
      vertex 48.784 39.0796 66.0288
    endloop
  endfacet
  facet normal 0.00297398 -0.0364067 -0.999333
    outer loop
      vertex 50.0966 38.1248 65.4639
      vertex 50.8522 38.9002 65.4379
      vertex 51.0001 38.0394 65.4697
    endloop
  endfacet
  facet normal -0.0491318 0.0143901 -0.998689
    outer loop
      vertex 50.8522 38.9002 65.4379
      vertex 50.0966 38.1248 65.4639
      vertex 49.9366 38.9943 65.4843
    endloop
  endfacet
  facet normal 0.407491 0.209473 -0.88886
    outer loop
      vertex 51.0001 38.0394 65.4697
      vertex 51.8377 39.0782 66.0985
      vertex 52.1821 37.9368 65.9874
    endloop
  endfacet
  facet normal 0.547769 0.0632975 -0.834232
    outer loop
      vertex 51.8377 39.0782 66.0985
      vertex 51.0001 38.0394 65.4697
      vertex 50.8522 38.9002 65.4379
    endloop
  endfacet
  facet normal 0.786651 0.385784 -0.482027
    outer loop
      vertex 52.1821 37.9368 65.9874
      vertex 52.7722 38.88 67.7053
      vertex 53.3169 37.8364 67.759
    endloop
  endfacet
  facet normal 0.840742 0.297701 -0.452246
    outer loop
      vertex 52.7722 38.88 67.7053
      vertex 52.1821 37.9368 65.9874
      vertex 51.8377 39.0782 66.0985
    endloop
  endfacet
  facet normal -0.990345 0.119474 0.0703067
    outer loop
      vertex 131.163 39.0116 65.6702
      vertex 131.018 37.9173 65.4873
      vertex 131.196 37.9771 67.893
    endloop
  endfacet
  facet normal -0.999815 -0.018162 0.0063907
    outer loop
      vertex 131.196 37.9771 67.893
      vertex 131.178 38.9681 67.8933
      vertex 131.163 39.0116 65.6702
    endloop
  endfacet
  facet normal 0.999524 0.0280643 0.0127944
    outer loop
      vertex 132.826 38.2643 67.9099
      vertex 132.869 37.7395 65.7018
      vertex 132.841 38.7319 65.7124
    endloop
  endfacet
  facet normal 0.998879 0.0444414 0.0162749
    outer loop
      vertex 132.841 38.7319 65.7124
      vertex 132.781 39.2683 67.9302
      vertex 132.826 38.2643 67.9099
    endloop
  endfacet
  facet normal -0.749492 -0.569041 -0.33831
    outer loop
      vertex 47.5271 40.0727 67.3293
      vertex 48.1658 39.9701 66.0869
      vertex 48.0672 39.008 67.9236
    endloop
  endfacet
  facet normal -0.788376 -0.526547 -0.318138
    outer loop
      vertex 48.784 39.0796 66.0288
      vertex 48.0672 39.008 67.9236
      vertex 48.1658 39.9701 66.0869
    endloop
  endfacet
  facet normal -0.485509 -0.283083 -0.82713
    outer loop
      vertex 48.1658 39.9701 66.0869
      vertex 49.1113 40.1881 65.4573
      vertex 48.784 39.0796 66.0288
    endloop
  endfacet
  facet normal -0.430356 -0.0709327 -0.899868
    outer loop
      vertex 48.784 39.0796 66.0288
      vertex 49.8301 39.9132 65.4628
      vertex 49.9366 38.9943 65.4843
    endloop
  endfacet
  facet normal -0.152589 -0.416913 -0.896047
    outer loop
      vertex 49.8301 39.9132 65.4628
      vertex 48.784 39.0796 66.0288
      vertex 49.1113 40.1881 65.4573
    endloop
  endfacet
  facet normal 0.00328585 0.467785 -0.883836
    outer loop
      vertex 49.9366 38.9943 65.4843
      vertex 50.9956 39.9754 66.0075
      vertex 50.8522 38.9002 65.4379
    endloop
  endfacet
  facet normal 0.422019 0.0277098 -0.906163
    outer loop
      vertex 50.9956 39.9754 66.0075
      vertex 49.9366 38.9943 65.4843
      vertex 49.8301 39.9132 65.4628
    endloop
  endfacet
  facet normal 0.67667 0.590507 -0.439794
    outer loop
      vertex 51.8377 39.0782 66.0985
      vertex 50.9956 39.9754 66.0075
      vertex 52.1573 39.9112 67.7087
    endloop
  endfacet
  facet normal 0.472902 0.3624 -0.803137
    outer loop
      vertex 50.9956 39.9754 66.0075
      vertex 51.8377 39.0782 66.0985
      vertex 50.8522 38.9002 65.4379
    endloop
  endfacet
  facet normal 0.786777 0.470469 -0.39955
    outer loop
      vertex 52.7722 38.88 67.7053
      vertex 51.8377 39.0782 66.0985
      vertex 52.1573 39.9112 67.7087
    endloop
  endfacet
  facet normal -0.999037 -0.0434843 0.00588997
    outer loop
      vertex 131.119 40.0154 65.6179
      vertex 131.163 39.0116 65.6702
      vertex 131.178 38.9681 67.8933
    endloop
  endfacet
  facet normal -0.998812 -0.0486061 0.00352674
    outer loop
      vertex 131.178 38.9681 67.8933
      vertex 131.128 39.9952 67.8884
      vertex 131.119 40.0154 65.6179
    endloop
  endfacet
  facet normal 0.992196 -0.112377 0.0540223
    outer loop
      vertex 132.781 39.2683 67.9302
      vertex 132.841 38.7319 65.7124
      vertex 132.981 40.0213 65.8233
    endloop
  endfacet
  facet normal 0.993904 0.0315786 0.105634
    outer loop
      vertex 132.981 40.0213 65.8233
      vertex 132.715 40.1758 68.2799
      vertex 132.781 39.2683 67.9302
    endloop
  endfacet
  facet normal -0.856512 -0.306889 -0.414977
    outer loop
      vertex 47.5271 40.0727 67.3293
      vertex 47.8225 41.0955 65.9632
      vertex 48.1658 39.9701 66.0869
    endloop
  endfacet
  facet normal -0.918071 -0.195473 -0.344871
    outer loop
      vertex 47.8225 41.0955 65.9632
      vertex 47.5271 40.0727 67.3293
      vertex 47.0849 41.0984 67.9251
    endloop
  endfacet
  facet normal -0.520146 -0.1645 -0.838086
    outer loop
      vertex 49.1113 40.1881 65.4573
      vertex 48.1658 39.9701 66.0869
      vertex 48.8325 40.8837 65.4938
    endloop
  endfacet
  facet normal -0.449544 -0.231948 -0.862618
    outer loop
      vertex 48.8325 40.8837 65.4938
      vertex 48.1658 39.9701 66.0869
      vertex 47.8225 41.0955 65.9632
    endloop
  endfacet
  facet normal 0.15926 0.398355 -0.9033
    outer loop
      vertex 49.1113 40.1881 65.4573
      vertex 49.9816 40.9871 65.9631
      vertex 49.8301 39.9132 65.4628
    endloop
  endfacet
  facet normal 0.356376 0.190831 -0.914647
    outer loop
      vertex 49.9816 40.9871 65.9631
      vertex 49.1113 40.1881 65.4573
      vertex 48.8325 40.8837 65.4938
    endloop
  endfacet
  facet normal 0.675164 0.662457 -0.324507
    outer loop
      vertex 50.9956 39.9754 66.0075
      vertex 49.9816 40.9871 65.9631
      vertex 51.0602 40.9046 68.0388
    endloop
  endfacet
  facet normal 0.382147 0.345399 -0.857125
    outer loop
      vertex 49.9816 40.9871 65.9631
      vertex 50.9956 39.9754 66.0075
      vertex 49.8301 39.9132 65.4628
    endloop
  endfacet
  facet normal 0.565256 0.743207 -0.35795
    outer loop
      vertex 52.1573 39.9112 67.7087
      vertex 50.9956 39.9754 66.0075
      vertex 51.0602 40.9046 68.0388
    endloop
  endfacet
  facet normal -0.999861 -0.0162443 0.00381881
    outer loop
      vertex 131.102 41.0854 65.7184
      vertex 131.119 40.0154 65.6179
      vertex 131.128 39.9952 67.8884
    endloop
  endfacet
  facet normal -0.983956 0.154417 0.0893681
    outer loop
      vertex 131.128 39.9952 67.8884
      vertex 131.297 41.0502 67.9262
      vertex 131.102 41.0854 65.7184
    endloop
  endfacet
  facet normal 0.978323 -0.171074 0.116692
    outer loop
      vertex 132.715 40.1758 68.2799
      vertex 132.981 40.0213 65.8233
      vertex 132.942 41.0597 67.6726
    endloop
  endfacet
  facet normal 0.864103 -0.430864 0.260157
    outer loop
      vertex 132.942 41.0597 67.6726
      vertex 132.981 40.0213 65.8233
      vertex 133.511 41.2426 66.0856
    endloop
  endfacet
  facet normal -0.719546 -0.623169 -0.306455
    outer loop
      vertex 46.0974 42.3207 67.7582
      vertex 46.9723 42.1852 65.9795
      vertex 47.0849 41.0984 67.9251
    endloop
  endfacet
  facet normal -0.757988 -0.587144 -0.284107
    outer loop
      vertex 47.8225 41.0955 65.9632
      vertex 47.0849 41.0984 67.9251
      vertex 46.9723 42.1852 65.9795
    endloop
  endfacet
  facet normal -0.461788 -0.34809 -0.815834
    outer loop
      vertex 46.9723 42.1852 65.9795
      vertex 47.9636 42.0837 65.4617
      vertex 47.8225 41.0955 65.9632
    endloop
  endfacet
  facet normal -0.320349 0.387815 -0.864278
    outer loop
      vertex 47.8225 41.0955 65.9632
      vertex 48.9215 41.9788 65.9522
      vertex 48.8325 40.8837 65.4938
    endloop
  endfacet
  facet normal 0.363504 -0.462343 -0.808767
    outer loop
      vertex 48.9215 41.9788 65.9522
      vertex 47.8225 41.0955 65.9632
      vertex 47.9636 42.0837 65.4617
    endloop
  endfacet
  facet normal 0.651197 0.692704 -0.310007
    outer loop
      vertex 49.9816 40.9871 65.9631
      vertex 48.9215 41.9788 65.9522
      vertex 49.8634 41.8737 67.6959
    endloop
  endfacet
  facet normal 0.328796 0.341798 -0.880379
    outer loop
      vertex 48.9215 41.9788 65.9522
      vertex 49.9816 40.9871 65.9631
      vertex 48.8325 40.8837 65.4938
    endloop
  endfacet
  facet normal 0.650349 0.69333 -0.310385
    outer loop
      vertex 51.0602 40.9046 68.0388
      vertex 49.9816 40.9871 65.9631
      vertex 49.8634 41.8737 67.6959
    endloop
  endfacet
  facet normal -0.627526 0.696365 0.348261
    outer loop
      vertex 131.387 42.0041 66.181
      vertex 131.297 41.0502 67.9262
      vertex 132.183 42.0043 67.6149
    endloop
  endfacet
  facet normal -0.963115 0.253906 0.0891136
    outer loop
      vertex 131.297 41.0502 67.9262
      vertex 131.387 42.0041 66.181
      vertex 131.102 41.0854 65.7184
    endloop
  endfacet
  facet normal 0.376172 0.354549 0.856031
    outer loop
      vertex 132.183 42.0043 67.6149
      vertex 132.942 41.0597 67.6726
      vertex 133.261 41.9893 67.1474
    endloop
  endfacet
  facet normal 0.977513 0.0305907 0.208642
    outer loop
      vertex 133.511 41.2426 66.0856
      vertex 133.59 42.1782 65.5783
      vertex 133.261 41.9893 67.1474
    endloop
  endfacet
  facet normal 0.936981 -0.140908 0.319704
    outer loop
      vertex 132.942 41.0597 67.6726
      vertex 133.511 41.2426 66.0856
      vertex 133.261 41.9893 67.1474
    endloop
  endfacet
  facet normal -0.81315 -0.488103 -0.317085
    outer loop
      vertex 45.6285 43.1181 67.7332
      vertex 46.1151 43.133 66.4624
      vertex 46.0974 42.3207 67.7582
    endloop
  endfacet
  facet normal -0.777011 -0.528524 -0.34193
    outer loop
      vertex 46.9723 42.1852 65.9795
      vertex 46.0974 42.3207 67.7582
      vertex 46.1151 43.133 66.4624
    endloop
  endfacet
  facet normal -0.711284 -0.326016 -0.622726
    outer loop
      vertex 46.1151 43.133 66.4624
      vertex 46.8842 43.1575 65.5711
      vertex 46.9723 42.1852 65.9795
    endloop
  endfacet
  facet normal -0.395226 0.387884 -0.832672
    outer loop
      vertex 47.9636 42.0837 65.4617
      vertex 46.9723 42.1852 65.9795
      vertex 47.8729 43.0524 65.956
    endloop
  endfacet
  facet normal 0.308553 -0.344464 -0.886645
    outer loop
      vertex 47.8729 43.0524 65.956
      vertex 46.9723 42.1852 65.9795
      vertex 46.8842 43.1575 65.5711
    endloop
  endfacet
  facet normal 0.680785 0.666012 -0.304894
    outer loop
      vertex 48.9215 41.9788 65.9522
      vertex 47.8729 43.0524 65.956
      vertex 48.8032 42.8966 67.6929
    endloop
  endfacet
  facet normal 0.447076 0.439423 -0.779121
    outer loop
      vertex 47.8729 43.0524 65.956
      vertex 48.9215 41.9788 65.9522
      vertex 47.9636 42.0837 65.4617
    endloop
  endfacet
  facet normal 0.659433 0.682555 -0.315067
    outer loop
      vertex 49.8634 41.8737 67.6959
      vertex 48.9215 41.9788 65.9522
      vertex 48.8032 42.8966 67.6929
    endloop
  endfacet
  facet normal -0.591415 0.736551 0.328209
    outer loop
      vertex 132.3 42.9186 65.7739
      vertex 131.387 42.0041 66.181
      vertex 132.183 42.0043 67.6149
    endloop
  endfacet
  facet normal -0.362851 0.843572 0.395885
    outer loop
      vertex 132.183 42.0043 67.6149
      vertex 133.104 42.9034 66.5432
      vertex 132.3 42.9186 65.7739
    endloop
  endfacet
  facet normal 0.336488 0.558796 0.757973
    outer loop
      vertex 133.104 42.9034 66.5432
      vertex 132.183 42.0043 67.6149
      vertex 133.261 41.9893 67.1474
    endloop
  endfacet
  facet normal 0.926273 0.267309 0.26564
    outer loop
      vertex 133.59 42.1782 65.5783
      vertex 133.434 43.0475 65.2475
      vertex 133.104 42.9034 66.5432
    endloop
  endfacet
  facet normal 0.922014 0.310879 0.230749
    outer loop
      vertex 133.261 41.9893 67.1474
      vertex 133.59 42.1782 65.5783
      vertex 133.104 42.9034 66.5432
    endloop
  endfacet
  facet normal -0.785063 0.545081 -0.294216
    outer loop
      vertex 45.6285 43.1181 67.7332
      vertex 46.1447 43.8661 67.7416
      vertex 46.1151 43.133 66.4624
    endloop
  endfacet
  facet normal -0.653941 0.662823 -0.364727
    outer loop
      vertex 46.1151 43.133 66.4624
      vertex 46.1447 43.8661 67.7416
      vertex 46.8958 43.9072 66.4696
    endloop
  endfacet
  facet normal -0.605255 0.615037 -0.505367
    outer loop
      vertex 46.8842 43.1575 65.5711
      vertex 46.1151 43.133 66.4624
      vertex 46.8958 43.9072 66.4696
    endloop
  endfacet
  facet normal 0.513047 0.789229 -0.33749
    outer loop
      vertex 47.8729 43.0524 65.956
      vertex 46.8958 43.9072 66.4696
      vertex 47.7067 43.9228 67.7388
    endloop
  endfacet
  facet normal 0.314907 0.726753 -0.610462
    outer loop
      vertex 46.8958 43.9072 66.4696
      vertex 47.8729 43.0524 65.956
      vertex 46.8842 43.1575 65.5711
    endloop
  endfacet
  facet normal 0.648776 0.705931 -0.284168
    outer loop
      vertex 48.8032 42.8966 67.6929
      vertex 47.8729 43.0524 65.956
      vertex 47.7067 43.9228 67.7388
    endloop
  endfacet
  facet normal -0.411043 0.795457 0.4453
    outer loop
      vertex 133.066 43.4097 65.6037
      vertex 132.3 42.9186 65.7739
      vertex 133.104 42.9034 66.5432
    endloop
  endfacet
  facet normal 0.79404 0.547943 0.263172
    outer loop
      vertex 133.434 43.0475 65.2475
      vertex 133.066 43.4097 65.6037
      vertex 133.104 42.9034 66.5432
    endloop
  endfacet
  facet normal -0.539944 0.788931 -0.293339
    outer loop
      vertex 46.1447 43.8661 67.7416
      vertex 46.8973 44.3846 67.7508
      vertex 46.8958 43.9072 66.4696
    endloop
  endfacet
  facet normal 0.467835 0.828009 -0.30908
    outer loop
      vertex 47.7067 43.9228 67.7388
      vertex 46.8958 43.9072 66.4696
      vertex 46.8973 44.3846 67.7508
    endloop
  endfacet
  facet normal -0.856608 -0.482597 0.182548
    outer loop
      vertex 44 54.838 65.7551
      vertex 43.8978 55.2102 66.2595
      vertex 43.7469 55.2102 65.5514
    endloop
  endfacet
  facet normal 0.490516 -0.650753 0.579582
    outer loop
      vertex 43.8978 55.2102 66.2595
      vertex 44 54.838 65.7551
      vertex 44.2531 55.2102 65.9588
    endloop
  endfacet
  facet normal -0.631008 0.21432 0.745584
    outer loop
      vertex 43.7469 55.812 65.9588
      vertex 43.8978 55.2102 66.2595
      vertex 44.1022 55.812 66.2595
    endloop
  endfacet
  facet normal -0.968446 -0.139714 0.206381
    outer loop
      vertex 43.7469 55.2102 65.5514
      vertex 43.8978 55.2102 66.2595
      vertex 43.7469 55.812 65.9588
    endloop
  endfacet
  facet normal 0.968446 0.139714 0.206381
    outer loop
      vertex 44.2531 55.812 65.5514
      vertex 44.1022 55.812 66.2595
      vertex 44.2531 55.2102 65.9588
    endloop
  endfacet
  facet normal 0.631008 -0.21432 0.745584
    outer loop
      vertex 43.8978 55.2102 66.2595
      vertex 44.2531 55.2102 65.9588
      vertex 44.1022 55.812 66.2595
    endloop
  endfacet
  facet normal -0.490516 0.650753 0.579582
    outer loop
      vertex 44 56.1842 65.7551
      vertex 43.7469 55.812 65.9588
      vertex 44.1022 55.812 66.2595
    endloop
  endfacet
  facet normal 0.856608 0.482597 0.182548
    outer loop
      vertex 44.2531 55.812 65.5514
      vertex 44 56.1842 65.7551
      vertex 44.1022 55.812 66.2595
    endloop
  endfacet
  facet normal -0.783819 -0.549725 0.288842
    outer loop
      vertex 54.9439 26.634 67.6597
      vertex 54.9494 27.0971 68.556
      vertex 54.5837 26.9588 67.3004
    endloop
  endfacet
  facet normal 0.4392 -0.799244 0.410258
    outer loop
      vertex 54.9494 27.0971 68.556
      vertex 54.9439 26.634 67.6597
      vertex 55.7089 27.1187 67.785
    endloop
  endfacet
  facet normal -0.925234 -0.188505 0.329255
    outer loop
      vertex 54.4659 27.8221 67.6124
      vertex 54.9494 27.0971 68.556
      vertex 55.0052 28.1161 69.2962
    endloop
  endfacet
  facet normal -0.926434 -0.233216 0.295517
    outer loop
      vertex 54.5837 26.9588 67.3004
      vertex 54.9494 27.0971 68.556
      vertex 54.4659 27.8221 67.6124
    endloop
  endfacet
  facet normal 0.357765 -0.874336 0.327934
    outer loop
      vertex 55.7089 27.1187 67.785
      vertex 55.842 27.6663 69.0998
      vertex 54.9494 27.0971 68.556
    endloop
  endfacet
  facet normal -0.121977 -0.57894 0.806195
    outer loop
      vertex 55.0052 28.1161 69.2962
      vertex 54.9494 27.0971 68.556
      vertex 55.842 27.6663 69.0998
    endloop
  endfacet
  facet normal 0.709033 -0.673567 0.208757
    outer loop
      vertex 55.842 27.6663 69.0998
      vertex 55.7089 27.1187 67.785
      vertex 56.4604 28.0047 68.0913
    endloop
  endfacet
  facet normal -0.925567 -0.227672 0.302476
    outer loop
      vertex 54.3611 29.0436 68.0234
      vertex 55.0052 28.1161 69.2962
      vertex 54.9752 29.2204 70.0356
    endloop
  endfacet
  facet normal -0.924831 -0.190187 0.329419
    outer loop
      vertex 54.4659 27.8221 67.6124
      vertex 55.0052 28.1161 69.2962
      vertex 54.3611 29.0436 68.0234
    endloop
  endfacet
  facet normal 0.0609539 -0.302001 0.951357
    outer loop
      vertex 55.842 27.6663 69.0998
      vertex 56.079 28.6343 69.3919
      vertex 55.0052 28.1161 69.2962
    endloop
  endfacet
  facet normal 0.18901 -0.542787 0.818326
    outer loop
      vertex 54.9752 29.2204 70.0356
      vertex 55.0052 28.1161 69.2962
      vertex 56.079 28.6343 69.3919
    endloop
  endfacet
  facet normal 0.954194 -0.0356235 0.297061
    outer loop
      vertex 56.6147 28.9439 67.7083
      vertex 56.079 28.6343 69.3919
      vertex 56.4604 28.0047 68.0913
    endloop
  endfacet
  facet normal 0.849751 -0.331695 0.409757
    outer loop
      vertex 55.842 27.6663 69.0998
      vertex 56.4604 28.0047 68.0913
      vertex 56.079 28.6343 69.3919
    endloop
  endfacet
  facet normal -0.69631 -0.664653 0.270905
    outer loop
      vertex 54.9752 29.2204 70.0356
      vertex 54.0095 30.0669 69.6303
      vertex 54.3611 29.0436 68.0234
    endloop
  endfacet
  facet normal -0.975236 -0.205088 -0.0827847
    outer loop
      vertex 54.2073 30.0674 67.2989
      vertex 54.3611 29.0436 68.0234
      vertex 54.0095 30.0669 69.6303
    endloop
  endfacet
  facet normal 0.315341 -0.367182 0.875064
    outer loop
      vertex 56.079 28.6343 69.3919
      vertex 55.9943 29.8654 69.939
      vertex 54.9752 29.2204 70.0356
    endloop
  endfacet
  facet normal 0.965442 0.0211911 0.259754
    outer loop
      vertex 56.6147 28.9439 67.7083
      vertex 56.6142 30.0331 67.6213
      vertex 55.9943 29.8654 69.939
    endloop
  endfacet
  facet normal 0.954311 -0.0640505 0.291871
    outer loop
      vertex 56.079 28.6343 69.3919
      vertex 56.6147 28.9439 67.7083
      vertex 55.9943 29.8654 69.939
    endloop
  endfacet
  facet normal -0.866649 -0.461837 -0.18875
    outer loop
      vertex 54.0069 30.8964 67.6126
      vertex 54.0095 30.0669 69.6303
      vertex 53.5021 31.0468 69.5624
    endloop
  endfacet
  facet normal -0.975369 -0.204452 -0.0827958
    outer loop
      vertex 54.0069 30.8964 67.6126
      vertex 54.2073 30.0674 67.2989
      vertex 54.0095 30.0669 69.6303
    endloop
  endfacet
  facet normal 0.980724 -0.0138082 0.194911
    outer loop
      vertex 56.6142 30.0331 67.6213
      vertex 56.6285 31.0544 67.6217
      vertex 56.1691 31.0031 69.9296
    endloop
  endfacet
  facet normal 0.958375 -0.145217 0.245823
    outer loop
      vertex 55.9943 29.8654 69.939
      vertex 56.6142 30.0331 67.6213
      vertex 56.1691 31.0031 69.9296
    endloop
  endfacet
  facet normal -0.912366 -0.351968 -0.209061
    outer loop
      vertex 53.6026 31.8795 67.7219
      vertex 54.0069 30.8964 67.6126
      vertex 53.5021 31.0468 69.5624
    endloop
  endfacet
  facet normal -0.944386 -0.277162 -0.176965
    outer loop
      vertex 53.5021 31.0468 69.5624
      vertex 53.0934 32.0469 70.1771
      vertex 53.6026 31.8795 67.7219
    endloop
  endfacet
  facet normal 0.975787 -0.0249175 0.217297
    outer loop
      vertex 56.6285 31.0544 67.6217
      vertex 56.652 32.0427 67.6295
      vertex 56.1617 32.0329 69.8301
    endloop
  endfacet
  facet normal 0.980317 0.0259545 0.195714
    outer loop
      vertex 56.1691 31.0031 69.9296
      vertex 56.6285 31.0544 67.6217
      vertex 56.1617 32.0329 69.8301
    endloop
  endfacet
  facet normal -0.716441 -0.680167 -0.155195
    outer loop
      vertex 52.831 32.8783 67.7447
      vertex 53.0934 32.0469 70.1771
      vertex 52.1239 33.1591 69.7783
    endloop
  endfacet
  facet normal -0.786802 -0.605043 -0.121927
    outer loop
      vertex 53.6026 31.8795 67.7219
      vertex 53.0934 32.0469 70.1771
      vertex 52.831 32.8783 67.7447
    endloop
  endfacet
  facet normal 0.972657 -0.00969919 0.232043
    outer loop
      vertex 56.652 32.0427 67.6295
      vertex 56.6796 33.0449 67.5557
      vertex 56.2023 33.0808 69.5579
    endloop
  endfacet
  facet normal 0.975879 0.0186908 0.217512
    outer loop
      vertex 56.1617 32.0329 69.8301
      vertex 56.652 32.0427 67.6295
      vertex 56.2023 33.0808 69.5579
    endloop
  endfacet
  facet normal -0.693688 -0.704084 -0.151866
    outer loop
      vertex 51.8449 33.8881 67.6729
      vertex 52.1239 33.1591 69.7783
      vertex 51.3006 34.037 69.4688
    endloop
  endfacet
  facet normal -0.702287 -0.696331 -0.148042
    outer loop
      vertex 52.831 32.8783 67.7447
      vertex 52.1239 33.1591 69.7783
      vertex 51.8449 33.8881 67.6729
    endloop
  endfacet
  facet normal 0.832876 0.258472 0.489398
    outer loop
      vertex 56.2278 34.1025 68.9749
      vertex 55.1778 34.0592 70.7847
      vertex 56.2023 33.0808 69.5579
    endloop
  endfacet
  facet normal 0.966539 0.203723 0.15588
    outer loop
      vertex 56.6796 33.0449 67.5557
      vertex 56.5503 33.8856 67.2587
      vertex 56.2278 34.1025 68.9749
    endloop
  endfacet
  facet normal 0.96765 0.106388 0.228768
    outer loop
      vertex 56.2023 33.0808 69.5579
      vertex 56.6796 33.0449 67.5557
      vertex 56.2278 34.1025 68.9749
    endloop
  endfacet
  facet normal -0.747834 -0.640808 -0.173523
    outer loop
      vertex 50.8351 34.989 67.9593
      vertex 51.8449 33.8881 67.6729
      vertex 51.3006 34.037 69.4688
    endloop
  endfacet
  facet normal -0.926452 -0.373018 0.0504474
    outer loop
      vertex 51.3006 34.037 69.4688
      vertex 51.0021 34.8969 70.3452
      vertex 50.8351 34.989 67.9593
    endloop
  endfacet
  facet normal 0.784183 0.601814 0.151254
    outer loop
      vertex 56.2278 34.1025 68.9749
      vertex 55.9337 34.8124 67.6751
      vertex 55.1884 35.2354 69.8561
    endloop
  endfacet
  facet normal 0.800924 0.366564 0.473446
    outer loop
      vertex 55.1778 34.0592 70.7847
      vertex 56.2278 34.1025 68.9749
      vertex 55.1884 35.2354 69.8561
    endloop
  endfacet
  facet normal 0.847769 0.522091 0.0933247
    outer loop
      vertex 56.5503 33.8856 67.2587
      vertex 55.9337 34.8124 67.6751
      vertex 56.2278 34.1025 68.9749
    endloop
  endfacet
  facet normal -0.763068 -0.64569 0.0284858
    outer loop
      vertex 50.8351 34.989 67.9593
      vertex 51.0021 34.8969 70.3452
      vertex 50.2994 35.6908 69.5169
    endloop
  endfacet
  facet normal -0.7943 -0.607525 0.000548535
    outer loop
      vertex 49.9406 36.1583 67.7358
      vertex 50.8351 34.989 67.9593
      vertex 50.2994 35.6908 69.5169
    endloop
  endfacet
  facet normal 0.890807 0.449788 0.0644565
    outer loop
      vertex 55.1884 35.2354 69.8561
      vertex 55.0296 35.8507 67.7571
      vertex 54.6663 36.3265 69.4578
    endloop
  endfacet
  facet normal 0.752695 0.644975 0.132123
    outer loop
      vertex 55.9337 34.8124 67.6751
      vertex 55.0296 35.8507 67.7571
      vertex 55.1884 35.2354 69.8561
    endloop
  endfacet
  facet normal -0.573834 -0.574949 0.583222
    outer loop
      vertex 131.998 34.9755 67.7648
      vertex 131.847 36.1479 68.772
      vertex 130.917 35.9766 67.6881
    endloop
  endfacet
  facet normal 0.685426 -0.421686 0.59361
    outer loop
      vertex 131.847 36.1479 68.772
      vertex 131.998 34.9755 67.7648
      vertex 132.804 36.1126 67.6419
    endloop
  endfacet
  facet normal -0.751872 -0.643306 0.144382
    outer loop
      vertex 49.9406 36.1583 67.7358
      vertex 49.8295 36.7954 69.9959
      vertex 49.0784 37.1586 67.7028
    endloop
  endfacet
  facet normal -0.90594 -0.417059 0.0730314
    outer loop
      vertex 49.8295 36.7954 69.9959
      vertex 49.9406 36.1583 67.7358
      vertex 50.2994 35.6908 69.5169
    endloop
  endfacet
  facet normal 0.749063 0.662019 -0.0251979
    outer loop
      vertex 54.6663 36.3265 69.4578
      vertex 55.0296 35.8507 67.7571
      vertex 54.1434 36.852 67.7198
    endloop
  endfacet
  facet normal 0.720897 0.693004 -0.00735523
    outer loop
      vertex 54.1434 36.852 67.7198
      vertex 53.8878 37.14 69.8032
      vertex 54.6663 36.3265 69.4578
    endloop
  endfacet
  facet normal -0.736663 -0.00963279 0.676191
    outer loop
      vertex 131.057 36.9797 67.9232
      vertex 131.847 36.1479 68.772
      vertex 132.034 37.0167 68.9881
    endloop
  endfacet
  facet normal -0.754272 -0.048194 0.654791
    outer loop
      vertex 130.917 35.9766 67.6881
      vertex 131.847 36.1479 68.772
      vertex 131.057 36.9797 67.9232
    endloop
  endfacet
  facet normal 0.784242 -0.204375 0.585828
    outer loop
      vertex 132.804 36.1126 67.6419
      vertex 132.87 37.2728 67.9583
      vertex 132.034 37.0167 68.9881
    endloop
  endfacet
  facet normal 0.720895 -0.309415 0.620139
    outer loop
      vertex 131.847 36.1479 68.772
      vertex 132.804 36.1126 67.6419
      vertex 132.034 37.0167 68.9881
    endloop
  endfacet
  facet normal -0.836182 -0.539901 0.0964735
    outer loop
      vertex 49.0784 37.1586 67.7028
      vertex 48.7957 37.8761 69.2679
      vertex 48.4534 38.0642 67.3537
    endloop
  endfacet
  facet normal -0.763032 -0.628628 0.150362
    outer loop
      vertex 48.7957 37.8761 69.2679
      vertex 49.0784 37.1586 67.7028
      vertex 49.8295 36.7954 69.9959
    endloop
  endfacet
  facet normal 0.765947 0.642884 0.00510002
    outer loop
      vertex 53.8878 37.14 69.8032
      vertex 54.1434 36.852 67.7198
      vertex 53.3169 37.8364 67.759
    endloop
  endfacet
  facet normal 0.785573 0.618709 -0.00861688
    outer loop
      vertex 53.3169 37.8364 67.759
      vertex 53.0318 38.2306 70.0717
      vertex 53.8878 37.14 69.8032
    endloop
  endfacet
  facet normal -0.79778 -0.00866285 0.602886
    outer loop
      vertex 131.196 37.9771 67.893
      vertex 132.034 37.0167 68.9881
      vertex 132.033 37.9996 69.0009
    endloop
  endfacet
  facet normal -0.733434 0.122459 0.668639
    outer loop
      vertex 131.057 36.9797 67.9232
      vertex 132.034 37.0167 68.9881
      vertex 131.196 37.9771 67.893
    endloop
  endfacet
  facet normal 0.799683 0.064627 0.596934
    outer loop
      vertex 132.87 37.2728 67.9583
      vertex 132.826 38.2643 67.9099
      vertex 132.033 37.9996 69.0009
    endloop
  endfacet
  facet normal 0.777256 -0.00740234 0.629141
    outer loop
      vertex 132.034 37.0167 68.9881
      vertex 132.87 37.2728 67.9583
      vertex 132.033 37.9996 69.0009
    endloop
  endfacet
  facet normal -0.923675 -0.235505 0.302261
    outer loop
      vertex 48.0672 39.008 67.9236
      vertex 48.7957 37.8761 69.2679
      vertex 48.836 38.9372 70.2178
    endloop
  endfacet
  facet normal -0.892478 -0.435714 0.116778
    outer loop
      vertex 48.4534 38.0642 67.3537
      vertex 48.7957 37.8761 69.2679
      vertex 48.0672 39.008 67.9236
    endloop
  endfacet
  facet normal 0.885472 0.463716 0.0301169
    outer loop
      vertex 53.0318 38.2306 70.0717
      vertex 53.3169 37.8364 67.759
      vertex 52.7722 38.88 67.7053
    endloop
  endfacet
  facet normal 0.955326 0.294581 -0.0239612
    outer loop
      vertex 52.7722 38.88 67.7053
      vertex 52.67 39.3526 69.4408
      vertex 53.0318 38.2306 70.0717
    endloop
  endfacet
  facet normal -0.799677 -0.0196621 0.600109
    outer loop
      vertex 131.178 38.9681 67.8933
      vertex 132.033 37.9996 69.0009
      vertex 131.972 38.9911 68.9521
    endloop
  endfacet
  facet normal -0.797666 -0.0146709 0.602921
    outer loop
      vertex 131.196 37.9771 67.893
      vertex 132.033 37.9996 69.0009
      vertex 131.178 38.9681 67.8933
    endloop
  endfacet
  facet normal 0.780888 0.0223778 0.62427
    outer loop
      vertex 132.826 38.2643 67.9099
      vertex 132.781 39.2683 67.9302
      vertex 131.972 38.9911 68.9521
    endloop
  endfacet
  facet normal 0.797245 0.0785075 0.59853
    outer loop
      vertex 132.033 37.9996 69.0009
      vertex 132.826 38.2643 67.9099
      vertex 131.972 38.9911 68.9521
    endloop
  endfacet
  facet normal -0.91398 -0.340235 0.221089
    outer loop
      vertex 48.0672 39.008 67.9236
      vertex 48.0009 40.0319 69.2252
      vertex 47.5271 40.0727 67.3293
    endloop
  endfacet
  facet normal -0.868504 -0.410125 0.278384
    outer loop
      vertex 48.0009 40.0319 69.2252
      vertex 48.0672 39.008 67.9236
      vertex 48.836 38.9372 70.2178
    endloop
  endfacet
  facet normal -0.725284 0.0679071 0.685092
    outer loop
      vertex 48.836 38.9372 70.2178
      vertex 49.2286 40.0382 70.5243
      vertex 48.0009 40.0319 69.2252
    endloop
  endfacet
  facet normal 0.855387 0.510355 -0.0886047
    outer loop
      vertex 52.67 39.3526 69.4408
      vertex 52.7722 38.88 67.7053
      vertex 52.1573 39.9112 67.7087
    endloop
  endfacet
  facet normal 0.708428 0.705557 0.0178471
    outer loop
      vertex 52.1573 39.9112 67.7087
      vertex 51.893 40.1223 69.8544
      vertex 52.67 39.3526 69.4408
    endloop
  endfacet
  facet normal -0.799503 -0.0369116 0.599527
    outer loop
      vertex 131.128 39.9952 67.8884
      vertex 131.972 38.9911 68.9521
      vertex 131.942 40.0031 68.9744
    endloop
  endfacet
  facet normal -0.799141 -0.03604 0.600063
    outer loop
      vertex 131.178 38.9681 67.8933
      vertex 131.972 38.9911 68.9521
      vertex 131.128 39.9952 67.8884
    endloop
  endfacet
  facet normal 0.678673 -0.220588 0.700531
    outer loop
      vertex 132.781 39.2683 67.9302
      vertex 132.715 40.1758 68.2799
      vertex 131.942 40.0031 68.9744
    endloop
  endfacet
  facet normal 0.782757 0.00949253 0.622255
    outer loop
      vertex 131.972 38.9911 68.9521
      vertex 132.781 39.2683 67.9302
      vertex 131.942 40.0031 68.9744
    endloop
  endfacet
  facet normal -0.872826 -0.216434 0.437414
    outer loop
      vertex 47.0849 41.0984 67.9251
      vertex 48.0009 40.0319 69.2252
      vertex 47.9176 41.25 69.6617
    endloop
  endfacet
  facet normal -0.851122 -0.484433 0.202277
    outer loop
      vertex 47.5271 40.0727 67.3293
      vertex 48.0009 40.0319 69.2252
      vertex 47.0849 41.0984 67.9251
    endloop
  endfacet
  facet normal -0.722458 0.11247 0.682206
    outer loop
      vertex 48.0009 40.0319 69.2252
      vertex 49.2286 40.0382 70.5243
      vertex 48.8095 40.8575 69.9454
    endloop
  endfacet
  facet normal -0.415446 -0.331895 0.846906
    outer loop
      vertex 47.9176 41.25 69.6617
      vertex 48.0009 40.0319 69.2252
      vertex 48.8095 40.8575 69.9454
    endloop
  endfacet
  facet normal 0.0545402 0.594663 0.802123
    outer loop
      vertex 49.2286 40.0382 70.5243
      vertex 49.9774 41.0845 69.6977
      vertex 48.8095 40.8575 69.9454
    endloop
  endfacet
  facet normal 0.346991 0.929407 0.125698
    outer loop
      vertex 51.0602 40.9046 68.0388
      vertex 49.9774 41.0845 69.6977
      vertex 50.9738 40.6424 70.216
    endloop
  endfacet
  facet normal 0.672839 0.73972 0.0101024
    outer loop
      vertex 51.893 40.1223 69.8544
      vertex 52.1573 39.9112 67.7087
      vertex 51.0602 40.9046 68.0388
    endloop
  endfacet
  facet normal 0.52476 0.842422 0.122277
    outer loop
      vertex 51.893 40.1223 69.8544
      vertex 51.0602 40.9046 68.0388
      vertex 50.9738 40.6424 70.216
    endloop
  endfacet
  facet normal -0.649316 0.299729 0.698965
    outer loop
      vertex 131.297 41.0502 67.9262
      vertex 131.942 40.0031 68.9744
      vertex 132.127 40.8796 68.7704
    endloop
  endfacet
  facet normal -0.796025 0.106165 0.59588
    outer loop
      vertex 131.128 39.9952 67.8884
      vertex 131.942 40.0031 68.9744
      vertex 131.297 41.0502 67.9262
    endloop
  endfacet
  facet normal 0.765988 0.218638 0.604533
    outer loop
      vertex 132.942 41.0597 67.6726
      vertex 132.127 40.8796 68.7704
      vertex 132.715 40.1758 68.2799
    endloop
  endfacet
  facet normal 0.663755 0.0338064 0.747186
    outer loop
      vertex 131.942 40.0031 68.9744
      vertex 132.715 40.1758 68.2799
      vertex 132.127 40.8796 68.7704
    endloop
  endfacet
  facet normal -0.75482 -0.564121 0.334685
    outer loop
      vertex 47.0849 41.0984 67.9251
      vertex 46.9913 42.1815 69.5396
      vertex 46.0974 42.3207 67.7582
    endloop
  endfacet
  facet normal -0.680134 -0.626421 0.380809
    outer loop
      vertex 46.9913 42.1815 69.5396
      vertex 47.0849 41.0984 67.9251
      vertex 47.9176 41.25 69.6617
    endloop
  endfacet
  facet normal -0.418656 -0.304156 0.855696
    outer loop
      vertex 47.9176 41.25 69.6617
      vertex 47.9954 42.0761 69.9934
      vertex 46.9913 42.1815 69.5396
    endloop
  endfacet
  facet normal -0.100873 0.422002 0.900966
    outer loop
      vertex 48.8095 40.8575 69.9454
      vertex 48.9224 41.9729 69.4356
      vertex 47.9176 41.25 69.6617
    endloop
  endfacet
  facet normal 0.448675 -0.369068 0.813929
    outer loop
      vertex 47.9954 42.0761 69.9934
      vertex 47.9176 41.25 69.6617
      vertex 48.9224 41.9729 69.4356
    endloop
  endfacet
  facet normal 0.580093 0.768518 0.269949
    outer loop
      vertex 49.8634 41.8737 67.6959
      vertex 48.9224 41.9729 69.4356
      vertex 49.9774 41.0845 69.6977
    endloop
  endfacet
  facet normal 0.114145 0.403397 0.907878
    outer loop
      vertex 49.9774 41.0845 69.6977
      vertex 48.9224 41.9729 69.4356
      vertex 48.8095 40.8575 69.9454
    endloop
  endfacet
  facet normal 0.555329 0.783982 0.277456
    outer loop
      vertex 51.0602 40.9046 68.0388
      vertex 49.8634 41.8737 67.6959
      vertex 49.9774 41.0845 69.6977
    endloop
  endfacet
  facet normal -0.47889 0.640566 0.600283
    outer loop
      vertex 132.183 42.0043 67.6149
      vertex 131.297 41.0502 67.9262
      vertex 132.127 40.8796 68.7704
    endloop
  endfacet
  facet normal 0.630563 0.54068 0.556827
    outer loop
      vertex 132.942 41.0597 67.6726
      vertex 132.183 42.0043 67.6149
      vertex 132.127 40.8796 68.7704
    endloop
  endfacet
  facet normal -0.822134 -0.473537 0.316002
    outer loop
      vertex 46.0974 42.3207 67.7582
      vertex 46.114 43.1269 69.0095
      vertex 45.6285 43.1181 67.7332
    endloop
  endfacet
  facet normal -0.77642 -0.525039 0.348578
    outer loop
      vertex 46.114 43.1269 69.0095
      vertex 46.0974 42.3207 67.7582
      vertex 46.9913 42.1815 69.5396
    endloop
  endfacet
  facet normal -0.715922 -0.314974 0.623094
    outer loop
      vertex 46.9913 42.1815 69.5396
      vertex 46.8806 43.1437 69.8988
      vertex 46.114 43.1269 69.0095
    endloop
  endfacet
  facet normal -0.341482 0.402895 0.849156
    outer loop
      vertex 46.9913 42.1815 69.5396
      vertex 47.9954 42.0761 69.9934
      vertex 47.871 43.0327 69.4895
    endloop
  endfacet
  facet normal 0.336488 -0.29512 0.894248
    outer loop
      vertex 46.8806 43.1437 69.8988
      vertex 46.9913 42.1815 69.5396
      vertex 47.871 43.0327 69.4895
    endloop
  endfacet
  facet normal 0.683876 0.662963 0.30462
    outer loop
      vertex 48.8032 42.8966 67.6929
      vertex 47.871 43.0327 69.4895
      vertex 48.9224 41.9729 69.4356
    endloop
  endfacet
  facet normal 0.49589 0.454321 0.740058
    outer loop
      vertex 48.9224 41.9729 69.4356
      vertex 47.871 43.0327 69.4895
      vertex 47.9954 42.0761 69.9934
    endloop
  endfacet
  facet normal 0.65806 0.682986 0.316998
    outer loop
      vertex 49.8634 41.8737 67.6959
      vertex 48.8032 42.8966 67.6929
      vertex 48.9224 41.9729 69.4356
    endloop
  endfacet
  facet normal -0.787727 0.540293 0.295923
    outer loop
      vertex 46.1447 43.8661 67.7416
      vertex 45.6285 43.1181 67.7332
      vertex 46.114 43.1269 69.0095
    endloop
  endfacet
  facet normal -0.657532 0.657704 0.367528
    outer loop
      vertex 46.114 43.1269 69.0095
      vertex 46.8916 43.901 69.0154
      vertex 46.1447 43.8661 67.7416
    endloop
  endfacet
  facet normal -0.607779 0.606621 0.512461
    outer loop
      vertex 46.8916 43.901 69.0154
      vertex 46.114 43.1269 69.0095
      vertex 46.8806 43.1437 69.8988
    endloop
  endfacet
  facet normal 0.522542 0.778834 0.346939
    outer loop
      vertex 47.7067 43.9228 67.7388
      vertex 46.8916 43.901 69.0154
      vertex 47.871 43.0327 69.4895
    endloop
  endfacet
  facet normal 0.334433 0.713436 0.615762
    outer loop
      vertex 47.871 43.0327 69.4895
      vertex 46.8916 43.901 69.0154
      vertex 46.8806 43.1437 69.8988
    endloop
  endfacet
  facet normal 0.660361 0.692621 0.290172
    outer loop
      vertex 48.8032 42.8966 67.6929
      vertex 47.7067 43.9228 67.7388
      vertex 47.871 43.0327 69.4895
    endloop
  endfacet
  facet normal -0.544104 0.784485 0.297545
    outer loop
      vertex 46.8973 44.3846 67.7508
      vertex 46.1447 43.8661 67.7416
      vertex 46.8916 43.901 69.0154
    endloop
  endfacet
  facet normal 0.47363 0.821911 0.316445
    outer loop
      vertex 47.7067 43.9228 67.7388
      vertex 46.8973 44.3846 67.7508
      vertex 46.8916 43.901 69.0154
    endloop
  endfacet
  facet normal -0.694091 -0.605117 0.389962
    outer loop
      vertex 54.0095 30.0669 69.6303
      vertex 54.9752 29.2204 70.0356
      vertex 54.7798 30.1355 71.1078
    endloop
  endfacet
  facet normal 0.459436 -0.632518 0.62357
    outer loop
      vertex 54.7798 30.1355 71.1078
      vertex 54.9752 29.2204 70.0356
      vertex 55.9943 29.8654 69.939
    endloop
  endfacet
  facet normal -0.862158 -0.427603 0.271734
    outer loop
      vertex 54.0095 30.0669 69.6303
      vertex 54.0526 31.0675 71.3416
      vertex 53.5021 31.0468 69.5624
    endloop
  endfacet
  facet normal -0.679166 -0.626041 0.383153
    outer loop
      vertex 54.0526 31.0675 71.3416
      vertex 54.0095 30.0669 69.6303
      vertex 54.7798 30.1355 71.1078
    endloop
  endfacet
  facet normal -0.125718 -0.332561 0.934665
    outer loop
      vertex 54.7798 30.1355 71.1078
      vertex 55.2273 30.7974 71.4035
      vertex 54.0526 31.0675 71.3416
    endloop
  endfacet
  facet normal 0.843859 -0.125343 0.52172
    outer loop
      vertex 56.1691 31.0031 69.9296
      vertex 55.2273 30.7974 71.4035
      vertex 55.9943 29.8654 69.939
    endloop
  endfacet
  facet normal 0.477076 -0.606636 0.635918
    outer loop
      vertex 54.7798 30.1355 71.1078
      vertex 55.9943 29.8654 69.939
      vertex 55.2273 30.7974 71.4035
    endloop
  endfacet
  facet normal -0.843533 -0.284532 0.455514
    outer loop
      vertex 53.0934 32.0469 70.1771
      vertex 54.0526 31.0675 71.3416
      vertex 53.908 32.2515 71.8134
    endloop
  endfacet
  facet normal -0.8265 -0.4985 0.261526
    outer loop
      vertex 53.5021 31.0468 69.5624
      vertex 54.0526 31.0675 71.3416
      vertex 53.0934 32.0469 70.1771
    endloop
  endfacet
  facet normal -0.0792901 -0.117996 0.989843
    outer loop
      vertex 54.0526 31.0675 71.3416
      vertex 55.2273 30.7974 71.4035
      vertex 55.0796 31.7263 71.5024
    endloop
  endfacet
  facet normal 0.0853378 -0.359811 0.929114
    outer loop
      vertex 53.908 32.2515 71.8134
      vertex 54.0526 31.0675 71.3416
      vertex 55.0796 31.7263 71.5024
    endloop
  endfacet
  facet normal 0.833118 0.059121 0.549927
    outer loop
      vertex 56.1617 32.0329 69.8301
      vertex 55.0796 31.7263 71.5024
      vertex 56.1691 31.0031 69.9296
    endloop
  endfacet
  facet normal 0.835517 0.0748962 0.544336
    outer loop
      vertex 55.2273 30.7974 71.4035
      vertex 56.1691 31.0031 69.9296
      vertex 55.0796 31.7263 71.5024
    endloop
  endfacet
  facet normal -0.764208 -0.539325 0.353716
    outer loop
      vertex 53.0934 32.0469 70.1771
      vertex 53.0062 33.0977 71.5909
      vertex 52.1239 33.1591 69.7783
    endloop
  endfacet
  facet normal -0.675362 -0.611237 0.412644
    outer loop
      vertex 53.0062 33.0977 71.5909
      vertex 53.0934 32.0469 70.1771
      vertex 53.908 32.2515 71.8134
    endloop
  endfacet
  facet normal -0.453396 -0.258933 0.852869
    outer loop
      vertex 53.908 32.2515 71.8134
      vertex 53.9004 32.9901 72.0336
      vertex 53.0062 33.0977 71.5909
    endloop
  endfacet
  facet normal 0.299406 0.106441 0.94817
    outer loop
      vertex 55.0796 31.7263 71.5024
      vertex 54.9469 32.8995 71.4126
      vertex 53.908 32.2515 71.8134
    endloop
  endfacet
  facet normal 0.478739 -0.246309 0.842699
    outer loop
      vertex 53.9004 32.9901 72.0336
      vertex 53.908 32.2515 71.8134
      vertex 54.9469 32.8995 71.4126
    endloop
  endfacet
  facet normal 0.817384 0.114966 0.564505
    outer loop
      vertex 56.2023 33.0808 69.5579
      vertex 54.9469 32.8995 71.4126
      vertex 56.1617 32.0329 69.8301
    endloop
  endfacet
  facet normal 0.820343 0.135318 0.555631
    outer loop
      vertex 55.0796 31.7263 71.5024
      vertex 56.1617 32.0329 69.8301
      vertex 54.9469 32.8995 71.4126
    endloop
  endfacet
  facet normal -0.745603 -0.590036 0.309733
    outer loop
      vertex 52.1239 33.1591 69.7783
      vertex 52.0084 34.0838 71.2618
      vertex 51.3006 34.037 69.4688
    endloop
  endfacet
  facet normal -0.716565 -0.615621 0.327941
    outer loop
      vertex 52.0084 34.0838 71.2618
      vertex 52.1239 33.1591 69.7783
      vertex 53.0062 33.0977 71.5909
    endloop
  endfacet
  facet normal -0.522155 -0.256946 0.813224
    outer loop
      vertex 53.0062 33.0977 71.5909
      vertex 53.0995 34.1149 71.9722
      vertex 52.0084 34.0838 71.2618
    endloop
  endfacet
  facet normal -0.401322 0.268167 0.875801
    outer loop
      vertex 53.0062 33.0977 71.5909
      vertex 53.9004 32.9901 72.0336
      vertex 53.9807 33.7125 71.8492
    endloop
  endfacet
  facet normal -0.028409 -0.348575 0.93685
    outer loop
      vertex 53.0995 34.1149 71.9722
      vertex 53.0062 33.0977 71.5909
      vertex 53.9807 33.7125 71.8492
    endloop
  endfacet
  facet normal 0.586932 0.292001 0.755146
    outer loop
      vertex 55.1778 34.0592 70.7847
      vertex 53.9807 33.7125 71.8492
      vertex 54.9469 32.8995 71.4126
    endloop
  endfacet
  facet normal 0.51399 0.158078 0.843105
    outer loop
      vertex 54.9469 32.8995 71.4126
      vertex 53.9807 33.7125 71.8492
      vertex 53.9004 32.9901 72.0336
    endloop
  endfacet
  facet normal 0.81296 0.143677 0.564317
    outer loop
      vertex 56.2023 33.0808 69.5579
      vertex 55.1778 34.0592 70.7847
      vertex 54.9469 32.8995 71.4126
    endloop
  endfacet
  facet normal -0.764524 -0.307621 0.566456
    outer loop
      vertex 51.0021 34.8969 70.3452
      vertex 52.0084 34.0838 71.2618
      vertex 51.9164 35.2488 71.7703
    endloop
  endfacet
  facet normal -0.752726 -0.57956 0.312272
    outer loop
      vertex 51.3006 34.037 69.4688
      vertex 52.0084 34.0838 71.2618
      vertex 51.0021 34.8969 70.3452
    endloop
  endfacet
  facet normal -0.541375 -0.0933522 0.835583
    outer loop
      vertex 52.0084 34.0838 71.2618
      vertex 53.0995 34.1149 71.9722
      vertex 52.9638 34.986 71.9816
    endloop
  endfacet
  facet normal -0.277032 -0.40267 0.872416
    outer loop
      vertex 51.9164 35.2488 71.7703
      vertex 52.0084 34.0838 71.2618
      vertex 52.9638 34.986 71.9816
    endloop
  endfacet
  facet normal 0.236695 0.229774 0.944023
    outer loop
      vertex 53.9807 33.7125 71.8492
      vertex 54.0745 34.7605 71.5706
      vertex 53.0995 34.1149 71.9722
    endloop
  endfacet
  facet normal 0.354741 0.0451842 0.933872
    outer loop
      vertex 52.9638 34.986 71.9816
      vertex 53.0995 34.1149 71.9722
      vertex 54.0745 34.7605 71.5706
    endloop
  endfacet
  facet normal 0.689718 0.444838 0.571321
    outer loop
      vertex 55.1884 35.2354 69.8561
      vertex 54.0745 34.7605 71.5706
      vertex 55.1778 34.0592 70.7847
    endloop
  endfacet
  facet normal 0.633625 0.145293 0.759874
    outer loop
      vertex 53.9807 33.7125 71.8492
      vertex 55.1778 34.0592 70.7847
      vertex 54.0745 34.7605 71.5706
    endloop
  endfacet
  facet normal -0.851633 -0.323703 0.412235
    outer loop
      vertex 51.0021 34.8969 70.3452
      vertex 51.025 36.0573 71.3037
      vertex 50.2994 35.6908 69.5169
    endloop
  endfacet
  facet normal -0.698339 -0.447591 0.558556
    outer loop
      vertex 51.025 36.0573 71.3037
      vertex 51.0021 34.8969 70.3452
      vertex 51.9164 35.2488 71.7703
    endloop
  endfacet
  facet normal -0.531335 -0.100345 0.841198
    outer loop
      vertex 51.9164 35.2488 71.7703
      vertex 52.1435 36.1563 72.022
      vertex 51.025 36.0573 71.3037
    endloop
  endfacet
  facet normal -0.218794 -0.0908702 0.971531
    outer loop
      vertex 52.9638 34.986 71.9816
      vertex 52.8612 35.851 72.0394
      vertex 51.9164 35.2488 71.7703
    endloop
  endfacet
  facet normal -0.123884 -0.2363 0.963751
    outer loop
      vertex 52.1435 36.1563 72.022
      vertex 51.9164 35.2488 71.7703
      vertex 52.8612 35.851 72.0394
    endloop
  endfacet
  facet normal 0.383341 0.289747 0.876981
    outer loop
      vertex 54.0745 34.7605 71.5706
      vertex 53.9517 35.9578 71.2287
      vertex 52.9638 34.986 71.9816
    endloop
  endfacet
  facet normal 0.595459 0.0169581 0.803206
    outer loop
      vertex 52.8612 35.851 72.0394
      vertex 52.9638 34.986 71.9816
      vertex 53.9517 35.9578 71.2287
    endloop
  endfacet
  facet normal 0.754801 0.511217 0.411015
    outer loop
      vertex 54.6663 36.3265 69.4578
      vertex 53.9517 35.9578 71.2287
      vertex 55.1884 35.2354 69.8561
    endloop
  endfacet
  facet normal 0.780852 0.244277 0.574977
    outer loop
      vertex 54.0745 34.7605 71.5706
      vertex 55.1884 35.2354 69.8561
      vertex 53.9517 35.9578 71.2287
    endloop
  endfacet
  facet normal -0.781502 -0.265057 0.564801
    outer loop
      vertex 49.8295 36.7954 69.9959
      vertex 51.025 36.0573 71.3037
      vertex 50.9571 37.2426 71.766
    endloop
  endfacet
  facet normal -0.760477 -0.502085 0.411807
    outer loop
      vertex 50.2994 35.6908 69.5169
      vertex 51.025 36.0573 71.3037
      vertex 49.8295 36.7954 69.9959
    endloop
  endfacet
  facet normal -0.518543 -0.19011 0.83365
    outer loop
      vertex 51.025 36.0573 71.3037
      vertex 52.1435 36.1563 72.022
      vertex 51.8574 36.8323 71.9982
    endloop
  endfacet
  facet normal -0.381789 -0.354744 0.85346
    outer loop
      vertex 50.9571 37.2426 71.766
      vertex 51.025 36.0573 71.3037
      vertex 51.8574 36.8323 71.9982
    endloop
  endfacet
  facet normal 0.142278 0.386404 0.91129
    outer loop
      vertex 52.8612 35.851 72.0394
      vertex 52.9708 36.908 71.5741
      vertex 52.1435 36.1563 72.022
    endloop
  endfacet
  facet normal 0.339882 0.17637 0.923782
    outer loop
      vertex 51.8574 36.8323 71.9982
      vertex 52.1435 36.1563 72.022
      vertex 52.9708 36.908 71.5741
    endloop
  endfacet
  facet normal 0.700524 0.564421 0.436686
    outer loop
      vertex 53.8878 37.14 69.8032
      vertex 52.9708 36.908 71.5741
      vertex 53.9517 35.9578 71.2287
    endloop
  endfacet
  facet normal 0.553282 0.286887 0.782032
    outer loop
      vertex 53.9517 35.9578 71.2287
      vertex 52.9708 36.908 71.5741
      vertex 52.8612 35.851 72.0394
    endloop
  endfacet
  facet normal 0.739675 0.533925 0.409639
    outer loop
      vertex 54.6663 36.3265 69.4578
      vertex 53.8878 37.14 69.8032
      vertex 53.9517 35.9578 71.2287
    endloop
  endfacet
  facet normal -0.772511 -0.41552 0.480177
    outer loop
      vertex 49.8295 36.7954 69.9959
      vertex 49.9875 38.0868 71.3676
      vertex 48.7957 37.8761 69.2679
    endloop
  endfacet
  facet normal -0.665157 -0.503915 0.551032
    outer loop
      vertex 49.9875 38.0868 71.3676
      vertex 49.8295 36.7954 69.9959
      vertex 50.9571 37.2426 71.766
    endloop
  endfacet
  facet normal -0.488271 -0.155549 0.858718
    outer loop
      vertex 50.9571 37.2426 71.766
      vertex 51.2094 38.1758 72.0785
      vertex 49.9875 38.0868 71.3676
    endloop
  endfacet
  facet normal -0.138453 0.239975 0.960855
    outer loop
      vertex 51.8574 36.8323 71.9982
      vertex 52.0933 37.7696 71.7981
      vertex 50.9571 37.2426 71.766
    endloop
  endfacet
  facet normal 0.134833 -0.347225 0.928038
    outer loop
      vertex 51.2094 38.1758 72.0785
      vertex 50.9571 37.2426 71.766
      vertex 52.0933 37.7696 71.7981
    endloop
  endfacet
  facet normal 0.666029 0.546267 0.507934
    outer loop
      vertex 53.0318 38.2306 70.0717
      vertex 52.0933 37.7696 71.7981
      vertex 52.9708 36.908 71.5741
    endloop
  endfacet
  facet normal 0.347115 0.111431 0.931179
    outer loop
      vertex 52.9708 36.908 71.5741
      vertex 52.0933 37.7696 71.7981
      vertex 51.8574 36.8323 71.9982
    endloop
  endfacet
  facet normal 0.752263 0.47909 0.452298
    outer loop
      vertex 53.8878 37.14 69.8032
      vertex 53.0318 38.2306 70.0717
      vertex 52.9708 36.908 71.5741
    endloop
  endfacet
  facet normal -0.734654 -0.0846382 0.673142
    outer loop
      vertex 48.836 38.9372 70.2178
      vertex 49.9875 38.0868 71.3676
      vertex 49.9883 39.2951 71.5204
    endloop
  endfacet
  facet normal -0.778376 -0.402065 0.482156
    outer loop
      vertex 48.7957 37.8761 69.2679
      vertex 49.9875 38.0868 71.3676
      vertex 48.836 38.9372 70.2178
    endloop
  endfacet
  facet normal -0.485894 -0.172721 0.856781
    outer loop
      vertex 49.9875 38.0868 71.3676
      vertex 51.2094 38.1758 72.0785
      vertex 50.8793 38.8693 72.0311
    endloop
  endfacet
  facet normal -0.53209 -0.105878 0.840042
    outer loop
      vertex 49.9883 39.2951 71.5204
      vertex 49.9875 38.0868 71.3676
      vertex 50.8793 38.8693 72.0311
    endloop
  endfacet
  facet normal 0.427825 0.358069 0.829911
    outer loop
      vertex 52.0933 37.7696 71.7981
      vertex 51.9992 38.9818 71.3236
      vertex 51.2094 38.1758 72.0785
    endloop
  endfacet
  facet normal 0.490261 0.289548 0.822074
    outer loop
      vertex 50.8793 38.8693 72.0311
      vertex 51.2094 38.1758 72.0785
      vertex 51.9992 38.9818 71.3236
    endloop
  endfacet
  facet normal 0.798477 0.469424 0.376929
    outer loop
      vertex 53.0318 38.2306 70.0717
      vertex 52.67 39.3526 69.4408
      vertex 51.9992 38.9818 71.3236
    endloop
  endfacet
  facet normal 0.815855 0.264597 0.514168
    outer loop
      vertex 52.0933 37.7696 71.7981
      vertex 53.0318 38.2306 70.0717
      vertex 51.9992 38.9818 71.3236
    endloop
  endfacet
  facet normal -0.464775 0.50228 0.729177
    outer loop
      vertex 49.2286 40.0382 70.5243
      vertex 49.9883 39.2951 71.5204
      vertex 50.2469 40.253 71.0254
    endloop
  endfacet
  facet normal -0.758137 0.0905671 0.645776
    outer loop
      vertex 48.836 38.9372 70.2178
      vertex 49.9883 39.2951 71.5204
      vertex 49.2286 40.0382 70.5243
    endloop
  endfacet
  facet normal -0.191691 0.56305 0.803884
    outer loop
      vertex 50.8793 38.8693 72.0311
      vertex 51.0747 39.8016 71.4247
      vertex 49.9883 39.2951 71.5204
    endloop
  endfacet
  facet normal -0.150553 0.485625 0.861105
    outer loop
      vertex 50.2469 40.253 71.0254
      vertex 49.9883 39.2951 71.5204
      vertex 51.0747 39.8016 71.4247
    endloop
  endfacet
  facet normal 0.618597 0.641685 0.453408
    outer loop
      vertex 51.893 40.1223 69.8544
      vertex 51.0747 39.8016 71.4247
      vertex 51.9992 38.9818 71.3236
    endloop
  endfacet
  facet normal 0.45532 0.416423 0.786941
    outer loop
      vertex 51.9992 38.9818 71.3236
      vertex 51.0747 39.8016 71.4247
      vertex 50.8793 38.8693 72.0311
    endloop
  endfacet
  facet normal 0.745521 0.551501 0.374226
    outer loop
      vertex 52.67 39.3526 69.4408
      vertex 51.893 40.1223 69.8544
      vertex 51.9992 38.9818 71.3236
    endloop
  endfacet
  facet normal -0.420048 0.728324 0.541391
    outer loop
      vertex 49.9774 41.0845 69.6977
      vertex 49.2286 40.0382 70.5243
      vertex 50.2469 40.253 71.0254
    endloop
  endfacet
  facet normal 0.112369 0.852247 0.510929
    outer loop
      vertex 50.9738 40.6424 70.216
      vertex 49.9774 41.0845 69.6977
      vertex 50.2469 40.253 71.0254
    endloop
  endfacet
  facet normal 0.17806 0.814704 0.551863
    outer loop
      vertex 50.9738 40.6424 70.216
      vertex 50.2469 40.253 71.0254
      vertex 51.0747 39.8016 71.4247
    endloop
  endfacet
  facet normal 0.567017 0.69763 0.437954
    outer loop
      vertex 51.893 40.1223 69.8544
      vertex 50.9738 40.6424 70.216
      vertex 51.0747 39.8016 71.4247
    endloop
  endfacet
endsolid
